<?xml version="1.0" encoding="UTF-8" standalone="no"?>
<!-- Created with Inkscape (http://www.inkscape.org/) -->

<svg
   xmlns:dc="http://purl.org/dc/elements/1.1/"
   xmlns:cc="http://creativecommons.org/ns#"
   xmlns:rdf="http://www.w3.org/1999/02/22-rdf-syntax-ns#"
   xmlns:svg="http://www.w3.org/2000/svg"
   xmlns="http://www.w3.org/2000/svg"
   xmlns:sodipodi="http://sodipodi.sourceforge.net/DTD/sodipodi-0.dtd"
   xmlns:inkscape="http://www.inkscape.org/namespaces/inkscape"
   width="315.79282"
   height="331.81204"
   id="svg4515"
   version="1.1"
   inkscape:version="0.48.2 r9819"
   sodipodi:docname="New document 3">
  <defs
     id="defs4517" />
  <sodipodi:namedview
     id="base"
     pagecolor="#ffffff"
     bordercolor="#666666"
     borderopacity="1.0"
     inkscape:pageopacity="0.0"
     inkscape:pageshadow="2"
     inkscape:zoom="0.98994949"
     inkscape:cx="209.43305"
     inkscape:cy="145.20589"
     inkscape:document-units="px"
     inkscape:current-layer="layer1"
     showgrid="false"
     fit-margin-top="0"
     fit-margin-left="0"
     fit-margin-right="0"
     fit-margin-bottom="0"
     inkscape:window-width="1280"
     inkscape:window-height="738"
     inkscape:window-x="-8"
     inkscape:window-y="-8"
     inkscape:window-maximized="1" />
  <metadata
     id="metadata4520">
    <rdf:RDF>
      <cc:Work
         rdf:about="">
        <dc:format>image/svg+xml</dc:format>
        <dc:type
           rdf:resource="http://purl.org/dc/dcmitype/StillImage" />
        <dc:title></dc:title>
      </cc:Work>
    </rdf:RDF>
  </metadata>
  <g
     inkscape:label="Layer 1"
     inkscape:groupmode="layer"
     id="layer1"
     transform="translate(-218.14986,-223.07714)">
    <path
       style="fill:#ee3d42;fill-opacity:1;stroke:none"
       d="m 347.62661,223.0823 c -5.58168,0.0775 -8.90314,0.95179 -41.03758,8.21041 -17.24973,3.89642 -29.01375,6.78628 -31.42256,7.71808 -4.69796,1.81731 -10.06828,5.34155 -12.61247,8.26833 -2.34287,2.69519 -5.68825,9.49071 -6.67548,13.56818 -0.40694,1.68074 -2.19354,13.56629 -3.98213,26.41233 -1.7886,12.84604 -4.81851,34.61695 -6.73341,48.37916 -1.91489,13.76222 -4.62169,33.15443 -6.0094,43.09381 -22.18529,158.90192 -21.15952,151.14452 -20.92422,157.08385 0.24633,6.21924 0.9584,9.00391 3.20015,12.68487 2.73363,4.48844 7.45908,6.74254 13.33652,6.34244 1.65656,-0.11277 13.32251,-2.5323 25.93447,-5.37225 27.67498,-6.23182 29.5267,-6.89834 35.63638,-12.69935 5.52661,-5.2474 9.03707,-11.86605 11.36714,-21.48898 1.07019,-4.41976 5.18737,-32.38938 4.82199,-32.75476 -0.10118,-0.10118 -5.18793,0.94698 -11.29474,2.33135 -12.90922,2.92642 -16.67802,3.21442 -19.25899,1.477 -4.42787,-2.98067 -4.51839,-1.67482 5.80665,-75.39967 4.7649,-34.02325 9.98793,-71.41909 11.61332,-83.10327 1.62538,-11.68417 3.01715,-21.31018 3.09881,-21.38761 0.1407,-0.13341 53.75987,82.80952 54.04102,83.5956 0.0733,0.20487 -1.16779,0.6297 -2.75128,0.94123 -15.28774,3.00768 -24.46497,12.87919 -28.6568,30.78542 -0.85219,3.64033 -8.08303,54.45827 -7.79048,54.75056 0.0792,0.0791 18.59868,-4.00612 41.15342,-9.07923 22.55474,-5.07312 41.24891,-9.23584 41.5444,-9.23853 0.29548,-0.003 4.12424,5.57787 8.5145,12.39526 9.88598,15.35141 11.44866,17.48306 16.27602,22.18404 6.20598,6.04353 12.33722,9.53301 20.31606,11.56988 2.71544,0.6932 4.99505,0.87179 10.42592,0.83986 l 6.95061,-0.0434 24.84844,-5.63289 c 15.31823,-3.47682 26.12616,-6.15949 28.14999,-6.99405 12.35365,-5.09424 19.90489,-16.08515 18.18743,-26.48473 -0.28924,-1.75147 -1.02313,-4.29202 -1.62181,-5.6329 -0.83422,-1.86841 -75.44304,-117.98048 -131.30866,-204.34802 -6.47095,-10.00401 -8.81402,-13.14975 -13.29305,-17.86887 -6.32636,-6.66548 -14.66159,-11.83097 -22.7343,-14.07499 -3.23968,-0.90056 -4.81686,-1.02034 -12.5111,-1.01364 -1.91108,0.002 -3.3167,-0.0324 -4.60478,-0.0145 z"
       id="rect4536"
       inkscape:connector-curvature="0" />
  </g>
</svg>
