<?xml version="1.0" encoding="UTF-8" standalone="no"?>
<svg id="Layer_1" height="217" viewBox="0 0 461.4 217" width="461.39999" xmlns="http://www.w3.org/2000/svg">
   <path id="path2" d="m419.5 77.1c0 0-.5 0-1.4 0v0c0 0-103.2.5-119.1.5-15.4 0-22.2 14-22.2 14l-36.2 62.7c0-12.1-.5-70.4-.5-73.8 0-1.4-.5-1.9-1-2.4v0c0 0 0 0-.5 0-.5-.5-1.4-.5-1.4-.5v0c-2.4 0-6.3 0-9.6 0-3.3 0-6.7 0-10.6.5-9.2 1-16.4 12.1-16.4 12.1l-58.8 102.2c3.9-18.8 21.7-107.5 22.7-111.4v0 0-.5-.5c0 0 0 0 0-.5v-.5c-.5-1-1-1-1.9-1.4-.5-.5-1.4 0-1.9 0-1.9 0-4.8 0-6.3 0 0 0-.5 0-1 0-2.4 0-4.8 0-7.7 0-5.3 0-12.1 0-18.3.5-16.4 1-23.1 10.1-23.1 10.1l-104.3 128.8c0 0 0 0 .5 0v0h1c0 0 12.1 0 21.2 0 1.4 0 2.9 0 3.9-.5 5.3-.5 8.2-2.4 11.1-4.8 2.9-2.4 9.2-8.7 13-13 1.9-1.9 3.4-2.9 4.8-3.4 1 0 1.4 0 1.4-.5 1 0 28 0 33.7 0 1 0 1.4 0 1.9 0 .5 0 1 0 1 0 4.3 0 4.3-2.4 4.3-2.4 0 0 3.4-16.4 3.9-18.8.5-1.9-1.4-1.9-1.4-1.9 0 0 0 0-.5 0-.5 0-1 0-1 0-4.8 0-20.7 0-23.1 0-2.9 0-1-2.9-1-2.9l50.6-62.2c-2.9 14.5-21.7 104.1-22.2 107-.5 3.4 1.9 2.9 1.9 2.9 0 0 1 0 2.9 0h40c1.9 0 3.9-.5 5.3-.5 9.6-1.9 14-9.2 14-9.2l39.5-68.5c0 12.1 0 71.8 0 74.7 0 2.9 1.9 2.9 1.9 2.9 0 0 1 0 2.4 0 .5 0 .5 0 1 0h1.9c2.4 0 5.8 0 9.2 0 1.9 0 4.3 0 6.7 0 11.1-.5 19.3-14.9 19.3-14.9l57.9-101.2v0c4.8 0 20.2 0 28 0 1.9 0 3.4 0 3.9 0 2.9 0 1.4 1.9 1.4 1.9 0 0-63.2 110.9-64.1 112.3-1 1.4.5 1.4.5 1.4 0 0 1 0 2.9 0v0c1.4 0 8.2 0 13.5 0 .5 0 1.4 0 2.4 0 1 0 1.9 0 3.4 0 .5 0 .5 0 1 0v0c .5 0 1.4 0 2.4-.5 0 0 0 0 .5 0v0c8.2-2.4 12.5-10.1 12.5-10.1 0 0 59.3-102.7 60.3-104.1 1-1.4 2.9-1.9 2.9-1.9h.5 1.4c0 0 22.2 0 28 0 .5 0 1 0 1.4 0 2.4 0 3.4-1.9 3.4-1.9 0 0 7.2-14.9 9.2-17.8-.1-2-2.9-2-2.9-2z"/>
   <path id="path4" d="m460.9 1v0 0c0-.5-.5-.5 0 0-.5-.5-.5-1-.5-1h-.4c0 0 0 0-.5 0v0c0 0 0 0-.5 0 0 0 0 0-.5 0v0 0h-.5c0 0-95.5 37.6-103.7 40.5-3.9 1.4-5.8 3.9-6.7 5.8v0 .5c0 1.4-.5 1.9-.5 2.4 0 1 0 1.4 0 1.4 0 2.4 0 9.2 0 12.5 0 1 0 1.4.5 1.9.5 1 .5 1 1 1 .5 0 1 0 1 0 0 0 87.3 0 90.2 0 1.9 0 1.4 1.9 1.4 1.9l-.5 1v0c0 0-5.3 11.1-10.1 21.2l-.5.5v0c-3.4 7.2-6.7 14-7.7 15.4-1.9 4.3-4.3 4.3-4.3 4.3h-2.4c-3.9 0-17.8 0-20.7 0-1.4 0-2.4.5-3.4 1h-.6v0c-.5 0-.5 1-.5 1 0 0-2.4 3.9-5.8 10.6-14 25.1-51.1 91.1-51.1 91.6v.5 0c0 .5 0 1 .5 1.4v0 0c .5.5 1 .5 1 .5 0 0 .5 0 1 0v0h .5c12.5 0 101.2 0 112.3 0 .5 0 1 0 1.4 0 7.2 0 9.6-4.8 10.1-8.2.5-1.4.5-2.4.5-2.4 0 0 0 0 0-.5 0-12.1.5-201.5.5-203.5-.5-.9-.5-1.3-.5-1.3z"/>
</svg>
