<?xml version="1.0" encoding="UTF-8"?> <svg xmlns="http://www.w3.org/2000/svg" xmlns:xlink="http://www.w3.org/1999/xlink" version="1.1" viewBox="0 0 635.1 101.3"><defs><linearGradient id="cosmote-linear-gradient" x1="453.7" y1="-86.1" x2="543" y2="-34.6" gradientTransform="translate(0 -2.7) scale(1 -1)" gradientUnits="userSpaceOnUse"><stop offset="0" stop-color="#469c36"></stop><stop offset=".8" stop-color="#bfff00"></stop></linearGradient><linearGradient id="cosmote-linear-gradient-2" x1="-1147" y1="2504.5" x2="-1114" y2="2540.5" gradientTransform="translate(-1097.8 -2495.2) rotate(-180) scale(1 -1)" gradientUnits="userSpaceOnUse"><stop offset="0" stop-color="#c9d400"></stop><stop offset="0" stop-color="#c4d101"></stop><stop offset=".2" stop-color="#b5ca05"></stop><stop offset=".2" stop-color="#9dbd0c"></stop><stop offset=".3" stop-color="#7cac16"></stop><stop offset=".5" stop-color="#519623"></stop><stop offset=".6" stop-color="#1e7c32"></stop><stop offset=".6" stop-color="#06703a"></stop><stop offset="1" stop-color="#0f1d10"></stop></linearGradient><linearGradient id="cosmote-linear-gradient-3" x1="-1135.6" y1="2507.4" x2="-1111.4" y2="2544" gradientTransform="translate(-1097.8 -2495.2) rotate(-180) scale(1 -1)" gradientUnits="userSpaceOnUse"><stop offset="0" stop-color="#fff" stop-opacity="0"></stop><stop offset="0" stop-color="#eef3f0" stop-opacity="0"></stop><stop offset=".3" stop-color="#8daa98" stop-opacity=".5"></stop><stop offset=".5" stop-color="#477659" stop-opacity=".8"></stop><stop offset=".8" stop-color="#1d5632" stop-opacity=".9"></stop><stop offset="1" stop-color="#0f4c26"></stop></linearGradient><linearGradient id="cosmote-linear-gradient-4" x1="69.9" y1="-29.2" x2="86.2" y2="-79.3" gradientTransform="translate(0 -2.7) scale(1 -1)" gradientUnits="userSpaceOnUse"><stop offset=".2" stop-color="#53b3e6"></stop><stop offset=".4" stop-color="#4a95cc"></stop><stop offset=".7" stop-color="#3d6ba9"></stop><stop offset=".9" stop-color="#355193"></stop><stop offset="1" stop-color="#33488b"></stop></linearGradient><linearGradient id="cosmote-linear-gradient-5" x1="37.8" y1="-61.4" x2="83.9" y2="-61.4" gradientTransform="translate(0 -2.7) scale(1 -1)" gradientUnits="userSpaceOnUse"><stop offset="0" stop-color="#53b3e6"></stop><stop offset="1" stop-color="#33488b"></stop></linearGradient><radialGradient id="radial-gradient" cx="870.1" cy="-138.8" fx="870.1" fy="-138.8" r="23" gradientTransform="translate(-835.5 420.8) rotate(-32.4) scale(1.1 -1.1)" gradientUnits="userSpaceOnUse"><stop offset="0" stop-color="#33488b"></stop><stop offset=".2" stop-color="#415492" stop-opacity=".9"></stop><stop offset=".4" stop-color="#6676a8" stop-opacity=".8"></stop><stop offset=".6" stop-color="#a4adcb" stop-opacity=".4"></stop><stop offset=".9" stop-color="#f9f9fb" stop-opacity="0"></stop><stop offset="1" stop-color="#fff" stop-opacity="0"></stop></radialGradient><linearGradient id="cosmote-linear-gradient-6" x1="89.5" y1="-79.6" x2="83.6" y2="-42.1" gradientTransform="translate(0 -2.7) scale(1 -1)" gradientUnits="userSpaceOnUse"><stop offset="0" stop-color="#53b3e6"></stop><stop offset=".2" stop-color="#50a9dd"></stop><stop offset=".4" stop-color="#488fc7"></stop><stop offset=".7" stop-color="#3b65a4"></stop><stop offset=".9" stop-color="#33488b"></stop></linearGradient><linearGradient id="cosmote-linear-gradient-7" x1="46" y1="-101.3" x2="74.9" y2="-69.7" gradientTransform="translate(0 -2.7) scale(1 -1)" gradientUnits="userSpaceOnUse"><stop offset="0" stop-color="#53b3e6"></stop><stop offset="0" stop-color="#51afe1"></stop><stop offset=".3" stop-color="#4da5d5"></stop><stop offset=".4" stop-color="#4694c0"></stop><stop offset=".6" stop-color="#3c7ca3"></stop><stop offset=".7" stop-color="#2f5e7d"></stop><stop offset=".8" stop-color="#1f394f"></stop><stop offset="1" stop-color="#0d0e1a"></stop></linearGradient><linearGradient id="cosmote-linear-gradient-8" x1="51.5" y1="-104.8" x2="75.7" y2="-68.2" gradientTransform="translate(0 -2.7) scale(1 -1)" gradientUnits="userSpaceOnUse"><stop offset="0" stop-color="#fff" stop-opacity="0"></stop><stop offset=".2" stop-color="#b4c8d1" stop-opacity=".3"></stop><stop offset=".4" stop-color="#668ea2" stop-opacity=".6"></stop><stop offset=".6" stop-color="#2d647f" stop-opacity=".8"></stop><stop offset=".8" stop-color="#0b4b6b" stop-opacity=".9"></stop><stop offset="1" stop-color="#004364"></stop></linearGradient><linearGradient id="cosmote-linear-gradient-9" x1="70.7" y1="-30.4" x2="41.5" y2="-17.4" gradientTransform="translate(0 -2.7) scale(1 -1)" gradientUnits="userSpaceOnUse"><stop offset="0" stop-color="#33488b"></stop><stop offset=".2" stop-color="#3b65a4"></stop><stop offset=".6" stop-color="#488fc7"></stop><stop offset=".8" stop-color="#50a9dd"></stop><stop offset="1" stop-color="#53b3e6"></stop></linearGradient><linearGradient id="cosmote-linear-gradient-10" x1="37.8" y1="-25.3" x2="61" y2="-28.2" gradientTransform="translate(0 -2.7) scale(1 -1)" gradientUnits="userSpaceOnUse"><stop offset="0" stop-color="#53b3e6"></stop><stop offset=".2" stop-color="#50a9dd"></stop><stop offset=".4" stop-color="#488fc7"></stop><stop offset=".8" stop-color="#3b65a4"></stop><stop offset="1" stop-color="#33488b"></stop></linearGradient><linearGradient id="cosmote-linear-gradient-11" x1="87.1" y1="-41.8" x2="50.4" y2="-12.6" gradientTransform="translate(0 -2.7) scale(1 -1)" gradientUnits="userSpaceOnUse"><stop offset="0" stop-color="#53b3e6"></stop><stop offset=".2" stop-color="#50a9dd"></stop><stop offset=".4" stop-color="#488fc7"></stop><stop offset=".8" stop-color="#3b65a4"></stop><stop offset="1" stop-color="#33488b"></stop></linearGradient><linearGradient id="cosmote-linear-gradient-12" x1="42.2" y1="-27.7" x2="42" y2="-35.4" gradientTransform="translate(0 -2.7) scale(1 -1)" gradientUnits="userSpaceOnUse"><stop offset=".2" stop-color="#fff" stop-opacity="0"></stop><stop offset=".7" stop-color="#cbd4e7" stop-opacity=".6"></stop><stop offset="1" stop-color="#a6b6d6"></stop></linearGradient><linearGradient id="cosmote-linear-gradient-13" x1="7.1" y1="-45.2" x2="15.1" y2="-77.4" gradientTransform="translate(0 -2.7) scale(1 -1)" gradientUnits="userSpaceOnUse"><stop offset="0" stop-color="#88c440"></stop><stop offset=".2" stop-color="#accd1b"></stop><stop offset=".4" stop-color="#c9d400"></stop><stop offset=".7" stop-color="#89b718"></stop><stop offset="1" stop-color="#439735"></stop></linearGradient><linearGradient id="cosmote-linear-gradient-14" x1="16.1" y1="-52.3" x2="42.7" y2="-88.4" gradientTransform="translate(0 -2.7) scale(1 -1)" gradientUnits="userSpaceOnUse"><stop offset="0" stop-color="#c9d400"></stop><stop offset=".2" stop-color="#a6c40d"></stop><stop offset=".8" stop-color="#5fa329"></stop><stop offset="1" stop-color="#439735"></stop></linearGradient><radialGradient id="radial-gradient-2" cx="536.7" cy="-505.2" fx="536.7" fy="-505.2" r="22.6" gradientTransform="translate(-561 -490.4) scale(1.1 -1.1)" gradientUnits="userSpaceOnUse"><stop offset="0" stop-color="#2d7339"></stop><stop offset=".3" stop-color="#6b9c73" stop-opacity=".7"></stop><stop offset=".8" stop-color="#d5e3d7" stop-opacity=".2"></stop><stop offset="1" stop-color="#fff" stop-opacity="0"></stop></radialGradient><linearGradient id="cosmote-linear-gradient-15" x1="-.4" y1="-51.5" x2="5.3" y2="-69.1" gradientTransform="translate(0 -2.7) scale(1 -1)" gradientUnits="userSpaceOnUse"><stop offset="0" stop-color="#c9d400"></stop><stop offset=".2" stop-color="#a6c40d"></stop><stop offset=".8" stop-color="#5fa329"></stop><stop offset="1" stop-color="#439735"></stop></linearGradient><linearGradient id="cosmote-linear-gradient-16" x1="13.4" y1="-24.6" x2="14.1" y2="-45" gradientTransform="translate(0 -2.7) scale(1 -1)" gradientUnits="userSpaceOnUse"><stop offset="0" stop-color="#c9d400"></stop><stop offset=".4" stop-color="#8ab718"></stop><stop offset=".8" stop-color="#56a02d"></stop><stop offset="1" stop-color="#439735"></stop></linearGradient><linearGradient id="cosmote-linear-gradient-17" x1="20.2" y1="-90.2" x2="46.3" y2="-101.8" gradientTransform="translate(0 -2.7) scale(1 -1)" gradientUnits="userSpaceOnUse"><stop offset="0" stop-color="#c9d400"></stop><stop offset=".2" stop-color="#a6c40d"></stop><stop offset=".8" stop-color="#5fa329"></stop><stop offset="1" stop-color="#439735"></stop></linearGradient><linearGradient id="cosmote-linear-gradient-18" x1="38.7" y1="-93.8" x2="53.4" y2="-94.5" gradientTransform="translate(0 -2.7) scale(1 -1)" gradientUnits="userSpaceOnUse"><stop offset="0" stop-color="#c9d400"></stop><stop offset=".2" stop-color="#a6c40d"></stop><stop offset=".8" stop-color="#5fa329"></stop><stop offset="1" stop-color="#439735"></stop></linearGradient><linearGradient id="cosmote-linear-gradient-19" x1="12.9" y1="-83.3" x2="26.8" y2="-97.3" gradientTransform="translate(0 -2.7) scale(1 -1)" gradientUnits="userSpaceOnUse"><stop offset="0" stop-color="#c9d400"></stop><stop offset=".2" stop-color="#a6c40d"></stop><stop offset=".8" stop-color="#5fa329"></stop><stop offset="1" stop-color="#439735"></stop></linearGradient><linearGradient id="cosmote-linear-gradient-20" x1="-1144.8" y1="2582.7" x2="-1144.9" y2="2575.8" gradientTransform="translate(-1097.8 -2495.2) rotate(-180) scale(1 -1)" gradientUnits="userSpaceOnUse"><stop offset="0" stop-color="#fff" stop-opacity="0"></stop><stop offset=".4" stop-color="#cfdeca" stop-opacity=".5"></stop><stop offset=".8" stop-color="#a6c39e" stop-opacity=".9"></stop><stop offset="1" stop-color="#97b98d"></stop></linearGradient></defs><g><g id="Layer_cosmote1"><g id="Layer_cosmote1-2" data-name="Layer_cosmote1"><g id="Layer_cosmote1-2"><g><g id="Layer_cosmote1-2-2" data-name="Layer_cosmote1-2"><g id="HD" opacity=".7"><path id="D" d="M600.4,36.5V15.9c0-2.1,0-2.3,2.2-2.3,5.3,0,10.6,0,16,.2,3.3.1,6.5,1.1,9.2,3.1,3.2,2.2,5,5.4,6,9.1,1.3,4.4,1.5,8.8,1.2,13.3-.2,3.3-.6,6.5-1.8,9.6-2.3,6.1-6.8,9.6-13.2,10.3-4,.5-8.1.3-12.2.4h-5.6c-1.7,0-2-.2-2-2v-21.2h.2,0ZM608,36.6v14.9c0,1,.2,1.5,1.4,1.5h6.3c5.4-.2,8.9-2.9,10.3-8.1.4-1.6.7-3.3.9-4.9.4-4.2.2-8.5-1.2-12.6-1.4-4-4-6.5-8.3-6.8-2.5-.2-5.1-.2-7.7-.2s-1.6,0-1.6,1.6v14.7h-.1Z" fill="#050351"></path><path id="H" d="M590.4,36.6v20.1c0,2-1,3-3.1,3h-3c-1,0-1.5-.5-1.6-1.5v-17.5c0-1.1-.6-1.7-1.8-1.7h-14c-1.3,0-1.9.7-1.9,2v16.5c0,2.2,0,2.3-2.3,2.3h-3.6c-1.5,0-1.7-.2-1.8-1.8V16.5c0-2,1-2.9,3-2.9h2.9c1.6,0,1.8.2,1.8,1.8v15.4c0,1.1.4,1.4,1.5,1.4h14.7c1,0,1.5-.5,1.5-1.6v-13.3c0-3.9,0-3.7,3.6-3.7h2.2c1.8,0,2,.2,2,2.1v21h-.1Z" fill="#050351"></path></g><path id="_4" d="M525.8,97.5c0,1.2-.3,3.7-3.5,3.7h-19.5c-2.9,0-3.7-1.7-3.7-3.7v-17.1h-44c-2.6,0-4.9-.9-4.9-4.3v-14.3c0-1.4,0-3.2,1.7-5.2L493.6,3.1c1.8-2.1,3.8-3.1,7-3.1h21.7c3.2,0,3.5,2.4,3.5,3.7v52.9h9c3,0,3.5,1.2,3.5,3.5v16.6c0,2.6-.5,3.8-3.5,3.8h-9v16.9h0ZM496.5,32.7l-18.4,22.3v2.4h21.4v-24.6h-3.1.1Z" fill="url(#cosmote-linear-gradient)"></path><g id="Sport"><path id="S" d="M108.2,96.9c-3-1.2-3-2.3-2.6-4l1.2-5.3c.5-2.2,1.3-2.2,3.5-1.9,6.7.8,17,1.8,22.9,1.8,11,0,16.6-4,16.6-11.4s-3.8-11.7-15.4-13.7c-15.3-3-28.9-6.6-28.9-24.4s11.1-25.2,29.4-25.2,16.3.4,23.8,3.5c2.8,1.2,2.8,2.3,2.6,4l-1.3,5.3c-.5,2.1-1.3,2.2-3.8,2.1-5.8-.8-13.1-1.7-20.7-1.7-11,0-14.9,4.3-14.9,11.5s4.1,9.3,15.4,11.4c14.9,3,28.6,6.2,28.6,25.9s-14.9,25.9-31.5,25.9-18.3-1-25-3.8h0Z" fill="#050351"></path><path id="P" d="M191.6,97.1c0,1.4-.5,2.5-2.3,2.5h-9.7c-1.8,0-2.6-.8-2.6-2.5V16c0-1.6.7-2.5,2.6-2.5h26.9c15.7,0,27.8,8.6,27.8,25.8s-5.7,26.8-27.8,26.8h-14.9v31h0ZM204.8,26.2h-13.2v27.6h13.7c10.4,0,14.1-6.2,14.1-14.1s-5.8-13.5-14.6-13.5h0Z" fill="#050351"></path><path id="O" d="M277.4,100.6c-31.7,0-34.6-25.2-34.6-45.3s3.6-42.9,34.7-42.9,35.2,22.1,35.2,42.9-3.2,45.3-35.3,45.3h0ZM277.5,25.2c-14.8,0-19.4,11.5-19.4,31.5s3.9,31.2,19.4,31.2,20.3-11.1,20.3-31.2-4.5-31.5-20.3-31.5Z" fill="#050351"></path><path id="R" d="M385.8,96.8c.7,1.5,0,2.7-1.4,2.7h-11.1c-1.9,0-3-.4-3.8-2.2l-15.2-32.5h-13.2v32.1c0,1.5-.7,2.6-2.5,2.6h-9.6c-1.9,0-2.6-.8-2.6-2.5V16c0-1.6.7-2.5,2.6-2.5h28.8c13.3,0,26.4,7.4,26.4,25.2s-4.1,19.4-15.4,23.7l17,34.3h0ZM354.8,26.4h-13.7v26.2h13.5c6.3,0,14.5-1.9,14.5-13.7s-6.7-12.4-14.2-12.4h0Z" fill="#050351"></path><path id="T" d="M447.7,26.4h-20.6v70.7c0,1.4-.5,2.5-2.3,2.5h-9.7c-1.8,0-2.5-.8-2.5-2.5V26.4h-20.5c-2.1,0-2.6-.8-2.6-2.3v-8c0-1.6.5-2.5,2.5-2.5h55.8c1.7,0,2.5.9,2.5,2.5v8c0,1.6-.7,2.3-2.6,2.3h0Z" fill="#050351"></path></g></g><g><g id="Layer_cosmote1-3"><g id="Icon"><path d="M15.9,22.8c-4,6.9-2,18.9,4.6,28.3,2,2.8,3.7,5,5.4,7,.9-5.6,3.2-10.7,6.1-14.9,1.1-1.6,2.4-3.1,3.6-4.5,2.9-3,6.6-5.4,8.8-8.7,1.3-1.9,2.1-4.2,2.1-6.8,0-4-2.2-7.4-5.9-9-4.8-2.1-12.2-1.2-20.8,4.8-1,.7-2.1,1.5-3.1,2.4-.3.3-.9,1.3-.9,1.3h.1Z" fill="url(#cosmote-linear-gradient-2)"></path><path d="M15.9,22.8c-4,6.9-2,18.9,4.6,28.3,1.3,1.8,2.4,3.3,3.5,4.7-6.6-12.6-6.3-23.5-1.6-31,3.7-6,10.2-9.8,18.2-10.5h0c-4.8-2.1-12.2-1.3-20.8,4.8-1,.7-2.1,1.5-3.1,2.4-.5.5-.9,1.3-.9,1.3h.1Z" fill="url(#cosmote-linear-gradient-3)"></path><path d="M79.5,34.7c-4.7-3.6-10.9-7-18.5-8.7,20.6,12.7,26.9,38.3,20.7,56.7,2.2-3.3,3.9-7,5.2-10.9,2.3-9.5.8-24.6-7.4-37.2h0Z" fill="url(#cosmote-linear-gradient-4)"></path><path d="M60.9,26c-2.9-.6-5.9-1-9.2-1.1-4.3,0-9,.4-14,1.7,1.4,6.7,9.4,12.6,15.7,18.6,4.3,4.1,7.1,6.8,9.9,10.2,1.7,2,3.4,4.2,5.5,7.1,1.3,1.8,2.4,3.7,3.4,5.7,4.3,8.9,4.7,18.9.4,24.3,2.1-1.7,4-3.5,5.7-5.5,1.2-1.4,2.3-2.8,3.3-4.4,6.2-18.4,0-44.1-20.7-56.7h0Z" fill="url(#cosmote-linear-gradient-5)"></path><path d="M60.9,26c-2.9-.6-5.9-1-9.2-1.1,10.3,10,13,20.9,11.6,30.5,1.7,2,3.4,4.2,5.5,7.1,1.3,1.8,2.4,3.7,3.4,5.7,4.3,8.9,4.7,18.9.4,24.3,2.1-1.7,4-3.5,5.7-5.5,1.2-1.4,2.3-2.8,3.3-4.4,6.2-18.4,0-44.1-20.7-56.7h0Z" fill="url(#radial-gradient)"></path><path d="M86,40.5c-1.7-1.8-3.9-3.8-6.5-5.8,8.2,12.6,9.6,27.7,7.4,37.2,1.5-4.6,2.3-9.5,2.3-14.7s-1.1-11.5-3.1-16.7h-.1Z" fill="url(#cosmote-linear-gradient-6)"></path><path d="M73.3,91.6c4-6.9,2-18.9-4.6-28.3-2-2.8-3.7-5-5.4-6.9-.9,5.6-3.2,10.7-6.1,14.9-1.1,1.6-2.4,3.1-3.6,4.5-2.9,3-6.6,5.4-8.8,8.7-1.3,1.9-2.1,4.2-2.1,6.8,0,4,2.2,7.4,5.9,9,4.8,2.1,12.2,1.2,20.8-4.8,1-.7,2.1-1.5,3.1-2.4.3-.3.9-1.3.9-1.3h0v-.2h-.1Z" fill="url(#cosmote-linear-gradient-7)"></path><path d="M73.3,91.6c4-6.9,2-18.9-4.6-28.3-1.3-1.8-2.4-3.3-3.5-4.7,6.6,12.6,6.3,23.5,1.6,31-3.7,6-10.2,9.8-18.2,10.5h0c4.8,2.1,12.2,1.3,20.8-4.8,1-.7,2.1-1.5,3.1-2.4.5-.5.9-1.3.9-1.3h0Z" fill="url(#cosmote-linear-gradient-8)"></path><path d="M72.7,92.6c2.1-1.7,4-3.5,5.7-5.5.2-3.2-.4-10.3-6.1-18.8,4.3,8.9,4.7,18.9.4,24.3h0Z" fill="#33488b"></path><path d="M47.5,13.6c-3.8.7-6.3,2.9-7.9,5.3,8.3,1,15.4,3.6,21.3,7.2,7.6,1.7,13.8,5.1,18.5,8.7-6.3-9.6-16.5-17.9-32-21.1h.1Z" fill="url(#cosmote-linear-gradient-9)"></path><path d="M39.6,18.8c-1.4,2.1-2,4.4-2,5.9s0,1.3.2,2c5-1.3,9.6-1.8,14-1.7,3.3,0,6.3.5,9.2,1.1-5.9-3.6-13-6.2-21.3-7.2h-.1Z" fill="url(#cosmote-linear-gradient-10)"></path><path d="M65.3,16.6c-2.9-1.4-7.1-3.8-15.8-3.3-.7,0-1.4.1-2,.3,15.5,3.3,25.7,11.5,32,21.1,2.6,2,4.8,4,6.5,5.8-3.9-10.1-11.2-18.6-20.7-23.9h0Z" fill="url(#cosmote-linear-gradient-11)"></path><path d="M46.4,25.2c-2.7.3-5.6.7-8.6,1.5.5,2.3,1.8,4.6,3.6,6.8,1.2-1.1,2.2-2.2,3.1-3.5.9-1.4,1.7-3,2-4.9h0Z" fill="url(#cosmote-linear-gradient-12)"></path><path d="M9.6,79.6c4.7,3.6,10.9,7,18.5,8.7C7.6,75.6,1.3,50,7.5,31.5c-2.2,3.3-3.9,7-5.2,10.9C0,52,1.4,67,9.6,79.6h0Z" fill="url(#cosmote-linear-gradient-13)"></path><path d="M28.2,88.4c2.9.6,5.9,1,9.2,1.1,4.3,0,9-.4,14-1.7-1.4-6.7-9.4-12.6-15.7-18.6-4.3-4.1-7.1-6.8-9.9-10.2-1.7-2-3.4-4.2-5.5-7.1-1.3-1.8-2.4-3.7-3.4-5.7-4.3-8.9-4.7-18.9-.4-24.3-2.1,1.7-4,3.5-5.7,5.5-1.2,1.4-2.3,2.8-3.3,4.4-6.2,18.4,0,44.1,20.7,56.7h0Z" fill="url(#cosmote-linear-gradient-14)"></path><path d="M28.2,88.4c2.9.6,5.9,1,9.2,1.1-10.3-10-13-20.9-11.6-30.5-1.7-2-3.4-4.2-5.5-7.1-1.3-1.8-2.4-3.7-3.4-5.7-4.3-8.9-4.7-18.9-.4-24.3-2.1,1.7-4,3.5-5.7,5.5-1.2,1.4-2.3,2.8-3.3,4.4-6.2,18.4,0,44.1,20.7,56.7h0Z" fill="url(#radial-gradient-2)"></path><path d="M3.1,73.9c1.7,1.8,3.9,3.8,6.5,5.8C1.4,67.1,0,52.1,2.3,42.5c-1.5,4.6-2.3,9.5-2.3,14.7s1.1,11.5,3.1,16.7Z" fill="url(#cosmote-linear-gradient-15)"></path><path d="M16.4,21.8c-2.1,1.7-4,3.5-5.7,5.5-.2,3.2.4,10.3,6.1,18.8-4.3-8.9-4.7-18.9-.4-24.3Z" fill="url(#cosmote-linear-gradient-16)"></path><path d="M41.6,100.8c3.8-.7,6.3-2.9,7.9-5.3-8.3-1-15.4-3.6-21.3-7.2-7.6-1.7-13.8-5.1-18.5-8.7,6.3,9.6,16.5,17.8,32,21.1h-.1Z" fill="url(#cosmote-linear-gradient-17)"></path><path d="M49.5,95.6c1.4-2.1,2-4.4,2-5.9s0-.3,0-.4c0-.5,0-1-.2-1.5-5,1.3-9.6,1.8-14,1.7-3.3,0-6.3-.4-9.2-1.1,5.9,3.6,13,6.2,21.3,7.2h.1Z" fill="url(#cosmote-linear-gradient-18)"></path><path d="M23.8,97.8c2.9,1.4,7.1,3.8,15.8,3.3.7,0,1.4,0,2-.3-15.5-3.3-25.7-11.5-32-21.1-2.6-2-4.8-4-6.5-5.8,3.9,10.1,11.2,18.6,20.7,23.9h0Z" fill="url(#cosmote-linear-gradient-19)"></path><path d="M42.7,89.3c2.7-.3,5.6-.7,8.6-1.5-.5-2.3-1.8-4.6-3.6-6.8-1.2,1.1-2.2,2.2-3,3.4-.9,1.4-1.7,3-2,4.9h0Z" fill="url(#cosmote-linear-gradient-20)"></path><path d="M68.9,62.6c-5.6-7.8-8.5-10.7-15.4-17.3s-15.9-13.1-15.9-20.6,1.2-6,5.1-9.1h0l-.2-.2c-4.2,2.9-5.5,7.3-5.5,9.7,0,7.6,9.1,14.2,16.1,20.9,6.9,6.6,9.9,9.5,15.5,17.3,7.1,10,8.5,23.3,3.3,29.9l.7-.6c5.2-6.7,3.5-20-3.8-30.1h.1Z" fill="#fff"></path><path d="M20.2,51.8c5.6,7.8,8.5,10.7,15.4,17.3,6.9,6.6,15.9,13.1,15.9,20.6s-1.2,6-5.1,9.1h0l.2.2c4.2-2.9,5.5-7.3,5.5-9.7,0-7.6-9.1-14.2-16.1-20.9-6.9-6.6-9.9-9.5-15.5-17.3-7.1-10-8.5-23.3-3.3-29.9l-.7.6c-5.2,6.7-3.4,20,3.8,30.1h0Z" fill="#fff"></path><g opacity=".9"><path d="M35.3,26.7c0-1.3,1-2.3,2.2-2.3s2.2,1,2.2,2.3-1,2.3-2.2,2.3-2.2-1-2.2-2.3Z" fill="#fff"></path></g><g opacity=".9"><g opacity=".9"><path d="M36.5,26.7c0-.6.5-1.1,1.1-1.1s1.1.5,1.1,1.1-.5,1.1-1.1,1.1-1.1-.5-1.1-1.1Z" fill="#fff"></path></g></g><g opacity=".9"><g opacity=".8"><path d="M48.6,84.1c0-1,.8-1.8,1.8-1.8s1.8.8,1.8,1.8-.8,1.8-1.8,1.8-1.8-.8-1.8-1.8Z" fill="#fff"></path></g></g><g opacity=".9"><g opacity=".8"><path d="M49.5,84.1c0-.5.4-.9.9-.9s.9.4.9.9-.4.9-.9.9-.9-.4-.9-.9Z" fill="#fff"></path></g></g></g></g></g></g></g></g></g></g></svg> 