<?xml version="1.0" standalone="no"?>
<!DOCTYPE svg PUBLIC "-//W3C//DTD SVG 20010904//EN"
 "http://www.w3.org/TR/2001/REC-SVG-20010904/DTD/svg10.dtd">
<svg version="1.0" xmlns="http://www.w3.org/2000/svg"
 width="2000.000000pt" height="1336.000000pt" viewBox="0 0 2000.000000 1336.000000"
 preserveAspectRatio="xMidYMid meet">

<g transform="translate(0.000000,1336.000000) scale(0.100000,-0.100000)"
fill="#000000" stroke="none">
<path d="M1365 13349 c-193 -25 -415 -101 -592 -205 -425 -250 -714 -699 -763
-1190 -8 -78 -10 -1588 -8 -5354 l3 -5245 23 -100 c79 -343 222 -599 465 -831
199 -191 436 -319 727 -392 l105 -27 8635 -3 c7895 -2 8643 -1 8733 13 634
104 1137 590 1279 1235 l23 105 0 5320 0 5320 -23 107 c-68 325 -235 622 -470
838 -215 198 -456 323 -757 392 l-100 23 -8605 1 c-4914 1 -8635 -2 -8675 -7z
m8338 -1889 c51 -16 123 -48 161 -70 l70 -41 100 50 c56 28 131 58 167 68 l65
17 150 -37 c146 -37 334 -95 444 -137 30 -12 63 -24 73 -27 12 -4 17 -16 17
-44 0 -30 3 -37 15 -33 22 9 19 -23 -4 -35 -20 -11 -51 -89 -55 -138 -2 -38
-14 -53 -25 -34 -7 11 -12 8 -21 -10 -9 -16 -9 -24 -2 -27 7 -2 4 -18 -8 -44
-10 -23 -16 -47 -13 -55 3 -8 -2 -13 -13 -13 -16 -1 -15 -3 6 -15 25 -14 25
-14 2 -15 -12 0 -41 9 -65 20 -105 48 -367 122 -367 103 0 -3 8 -12 18 -19 16
-13 16 -13 0 -14 -20 0 -25 -20 -5 -20 8 0 9 -3 1 -8 -15 -10 -33 -171 -19
-176 5 -2 -1 -8 -14 -13 -22 -9 -18 -11 30 -16 30 -4 88 -7 129 -8 82 -1 363
-25 317 -28 l-27 -1 0 -775 c1 -751 1 -775 20 -785 21 -11 35 2 26 25 -3 9 1
15 10 15 13 0 15 -9 13 -44 -3 -36 0 -47 16 -57 11 -7 23 -12 28 -11 4 1 6 -2
5 -6 -2 -5 24 -35 57 -69 33 -33 79 -81 102 -107 26 -29 47 -45 54 -40 8 4 9
3 5 -4 -4 -7 21 -41 57 -79 193 -206 479 -570 650 -828 188 -284 328 -638 388
-982 29 -168 32 -459 6 -602 -37 -200 -136 -418 -217 -480 l-34 -26 33 48 c53
78 118 225 145 328 80 311 53 719 -75 1102 -111 329 -257 579 -578 987 -246
313 -616 691 -1151 1180 -331 302 -524 499 -657 672 -11 15 -24 24 -28 20 -5
-4 -5 -2 -2 4 3 5 -3 23 -14 40 -11 16 -43 74 -71 129 -28 55 -53 94 -55 87
-4 -10 -8 -10 -19 -1 -8 6 -14 9 -14 5 0 -11 -74 31 -90 51 -25 31 -50 92 -50
123 0 22 -9 36 -37 57 -44 33 -64 53 -79 79 -6 10 -21 21 -34 24 -21 5 -29 14
-50 60 -4 8 -16 17 -26 18 -10 2 -28 13 -39 23 -34 33 -68 59 -77 59 -4 0 -8
9 -8 19 0 11 -9 23 -20 26 -11 3 -20 10 -20 15 0 5 -9 12 -20 15 -11 3 -20 13
-20 21 0 20 -62 75 -79 69 -9 -4 -12 1 -8 14 3 15 1 18 -12 14 -10 -3 -7 4 9
17 109 96 123 110 108 110 -15 0 -39 19 -135 110 -28 26 -36 28 -58 20 -17 -7
-24 -7 -20 0 3 6 13 10 20 10 9 0 12 6 8 15 -3 9 -2 15 3 13 5 -1 18 3 29 9
11 6 59 24 106 41 74 26 117 38 249 69 49 11 267 18 348 10 46 -4 125 -21 175
-37z m1294 -219 c-7 -2 -15 -9 -19 -15 -4 -6 -10 -7 -15 -3 -4 5 -1 12 7 17
10 7 11 10 3 10 -7 0 -13 4 -13 9 0 5 11 4 25 -2 13 -7 19 -14 12 -16z m20
-27 c-3 -3 -12 -4 -19 -1 -8 3 -5 6 6 6 11 1 17 -2 13 -5z m898 -202 c-3 -3
-11 0 -18 7 -9 10 -8 11 6 5 10 -3 15 -9 12 -12z m55 -37 c11 -13 10 -14 -4
-9 -9 3 -16 10 -16 15 0 13 6 11 20 -6z m-3898 -77 c-74 -108 -136 -268 -169
-433 -27 -139 -25 -458 6 -628 46 -262 122 -489 241 -723 80 -157 144 -257
294 -459 310 -419 609 -734 1306 -1377 241 -222 457 -436 537 -531 l40 -49
109 95 c106 92 112 95 152 92 37 -3 41 -1 32 15 -5 9 -6 21 -2 25 4 5 1 5 -6
1 -7 -4 -9 -13 -6 -19 4 -7 4 -9 -1 -5 -4 4 -16 3 -26 -3 -13 -6 -19 -6 -19 1
0 5 4 10 8 10 5 0 25 16 44 36 23 22 39 31 43 24 4 -6 1 -9 -7 -8 -7 2 -12 -3
-11 -9 2 -7 -2 -13 -8 -13 -8 0 -9 -4 0 -13 6 -8 8 -17 4 -20 -3 -4 3 -7 15
-7 11 0 24 -4 27 -10 3 -5 15 -10 26 -10 14 0 19 -7 19 -27 0 -21 7 -31 27
-40 15 -7 33 -13 40 -13 7 0 13 -8 13 -17 0 -10 16 -27 38 -38 21 -12 38 -29
40 -41 3 -18 65 -60 83 -56 4 1 5 -8 2 -18 -7 -28 40 -74 67 -67 11 3 20 1 20
-4 0 -17 310 -319 326 -319 22 0 64 -41 64 -62 0 -14 9 -18 40 -18 37 0 40 -2
40 -27 0 -21 7 -31 27 -40 15 -7 33 -13 40 -13 7 0 13 -9 13 -21 0 -15 5 -19
16 -15 12 4 10 -3 -7 -34 -13 -22 -30 -48 -38 -58 -9 -9 -35 -42 -58 -73 -23
-31 -85 -100 -138 -152 -52 -52 -95 -101 -94 -108 0 -10 2 -11 6 -1 5 14 33
17 33 3 0 -5 -6 -12 -12 -15 -7 -3 -3 -3 9 0 16 4 21 1 18 -8 -3 -8 12 -21 42
-35 66 -30 98 -60 82 -79 -14 -17 -5 -18 20 -2 11 6 26 8 37 3 11 -5 22 -7 27
-7 17 4 5 -8 -24 -22 -17 -9 -36 -13 -42 -9 -6 4 -7 1 -2 -7 6 -10 4 -12 -9
-7 -9 4 -15 3 -12 -2 12 -19 -253 -127 -406 -165 -308 -79 -590 -50 -813 83
-75 44 -82 46 -95 20 -10 -17 -18 -20 -53 -16 -41 5 -41 5 -13 -7 l29 -13 -36
-7 c-20 -4 -44 -14 -53 -24 -10 -9 -20 -16 -23 -16 -3 1 -17 -3 -31 -8 -14 -5
-32 -11 -40 -13 -8 -2 -29 -8 -45 -13 -34 -10 -93 -5 -112 10 -10 8 -13 4 -14
-13 l-2 -24 -4 23 c-3 17 -9 22 -20 17 -9 -3 -19 -2 -22 3 -3 5 -44 18 -91 30
-142 34 -174 43 -190 51 -8 4 -49 18 -90 31 -41 13 -91 32 -110 43 -20 12 -54
20 -80 20 -29 0 -38 3 -25 8 18 6 17 8 -8 18 -16 6 -30 11 -33 11 -2 0 -52 22
-110 50 -58 27 -110 50 -115 50 -6 0 -20 9 -32 20 -12 11 -27 18 -35 15 -7 -2
-11 -1 -8 4 3 5 -16 18 -42 30 -26 12 -58 29 -72 38 l-25 17 22 -22 c13 -13
33 -27 45 -32 22 -8 21 -9 -7 -10 -35 0 -63 -15 -52 -27 5 -4 12 -2 16 5 5 9
17 11 35 6 40 -10 39 -19 -3 -19 -30 -1 -45 -9 -75 -38 -20 -21 -34 -42 -31
-47 5 -9 -16 -14 -52 -13 -7 1 -10 -4 -6 -11 3 -6 -2 -4 -13 4 -10 9 -31 22
-46 29 -15 8 -25 19 -21 24 3 6 1 7 -5 3 -6 -4 -53 21 -104 55 -530 355 -936
847 -1198 1451 -41 93 -51 132 -35 135 6 1 9 -5 7 -13 -3 -14 137 -164 153
-164 4 0 1 8 -6 18 -12 15 -11 14 8 -1 12 -11 27 -16 32 -12 6 3 21 -1 33 -9
12 -9 18 -16 12 -16 -6 0 -14 3 -18 8 -9 9 -57 10 -54 1 6 -14 159 -141 164
-136 3 2 -7 17 -21 32 -15 14 -25 29 -21 32 3 3 14 -5 25 -18 20 -24 22 -28
25 -50 2 -15 58 -59 68 -53 5 3 7 1 6 -4 -5 -14 60 -64 73 -56 8 4 9 3 5 -4
-4 -7 -3 -12 3 -12 6 0 22 -12 36 -26 18 -18 32 -23 48 -19 17 5 18 4 7 -4 -8
-5 -12 -11 -10 -13 3 -2 20 -13 38 -26 36 -26 43 -19 10 10 -18 15 -20 21 -9
27 8 5 11 14 7 20 -5 7 -1 9 9 5 12 -5 13 -10 4 -20 -8 -10 -5 -21 15 -46 29
-39 86 -83 86 -68 0 6 -7 13 -15 16 -20 8 -19 24 1 24 8 0 12 -5 9 -10 -3 -6
1 -13 9 -16 8 -3 18 -14 21 -23 3 -12 14 -17 33 -15 19 1 29 -3 29 -12 0 -10
-4 -11 -11 -4 -5 5 -15 10 -20 10 -6 0 11 -14 37 -30 26 -17 53 -28 59 -24 7
4 8 3 4 -4 -5 -8 1 -12 16 -12 13 0 30 -5 38 -11 12 -8 9 -9 -10 -4 l-25 6 25
-15 c14 -8 28 -12 32 -10 5 3 8 1 8 -4 0 -6 12 -15 28 -21 15 -6 42 -17 60
-25 20 -9 30 -11 26 -4 -5 8 -2 9 12 3 10 -4 30 -8 43 -8 18 1 20 -1 10 -8 -8
-5 -23 -6 -34 -3 -33 9 86 -52 140 -71 28 -9 64 -23 80 -31 17 -7 66 -24 109
-38 62 -21 81 -24 88 -14 6 10 8 9 8 -4 0 -10 12 -19 33 -24 17 -4 34 -8 37
-9 3 -1 23 -7 45 -13 52 -15 59 -15 43 2 -7 7 -19 11 -26 9 -8 -4 -10 0 -6 11
4 11 1 16 -10 16 -9 0 -16 -4 -16 -10 0 -5 -7 -7 -15 -4 -14 6 -13 8 2 20 16
12 16 13 2 14 -9 0 -61 33 -115 74 -94 70 -100 73 -121 58 -27 -17 -30 -10 -6
14 16 15 16 17 -2 30 -11 8 -25 12 -32 9 -40 -16 -46 -16 -25 0 l23 17 -21 20
c-18 17 -24 18 -31 7 -8 -11 -9 -11 -7 2 4 24 -223 243 -235 227 -5 -9 -7 -6
-3 7 7 27 -52 94 -65 74 -5 -8 -9 -11 -9 -7 0 3 -3 15 -6 25 -5 15 -4 15 5 3
6 -8 11 -10 11 -5 0 18 -82 105 -93 98 -6 -4 -7 -1 -2 7 5 8 2 17 -6 24 -20
15 -79 102 -79 115 0 6 -4 11 -9 11 -4 0 -21 20 -36 44 -26 41 -31 44 -61 40
-28 -3 -32 -1 -28 14 5 14 3 14 -10 -2 -9 -11 -16 -25 -16 -32 0 -7 -27 -14
-72 -18 -40 -4 -89 -12 -108 -18 -34 -11 -34 -12 -10 -19 22 -6 20 -7 -12 -8
-21 -1 -38 4 -41 12 -4 10 -7 10 -18 0 -7 -7 -23 -13 -36 -13 -14 0 -23 -6
-23 -15 0 -25 -17 -17 -40 20 -12 19 -26 35 -31 35 -5 0 -9 9 -9 19 0 11 -4
21 -8 23 -4 2 -19 28 -34 58 -24 52 -40 91 -89 213 -12 28 -27 66 -34 82 -7
17 -21 56 -30 89 -13 42 -20 54 -27 45 -7 -10 -8 -8 -4 6 3 12 0 41 -8 65 -8
25 -14 37 -15 26 -1 -16 -3 -16 -17 -5 -16 13 -54 20 -54 10 0 -3 4 -12 9 -20
7 -11 11 -10 20 5 9 17 10 17 11 2 0 -11 8 -18 20 -18 11 0 20 -7 20 -15 0
-23 -165 -18 -166 5 0 8 -6 33 -12 55 -16 57 -40 213 -52 334 -13 134 -13 510
0 642 77 765 385 1437 895 1955 105 106 300 283 313 284 2 0 -10 -19 -26 -42z
m3978 -9 c-11 -7 -9 -8 10 -4 19 5 32 -1 54 -24 31 -33 28 -58 -5 -40 -17 9
-18 13 -7 27 12 15 11 16 -6 2 -17 -14 -17 -15 4 -32 17 -14 26 -16 36 -7 17
14 48 -7 37 -24 -4 -6 -1 -7 6 -2 15 9 63 -33 54 -48 -3 -6 -2 -7 4 -4 21 13
236 -229 381 -429 139 -192 295 -471 376 -672 l25 -64 -102 99 c-92 88 -311
277 -345 297 -17 10 -10 -3 63 -123 120 -200 298 -602 279 -632 -4 -7 -3 -9 3
-6 6 4 13 -5 16 -21 3 -15 8 -34 12 -43 4 -10 0 -16 -9 -16 -11 0 -14 7 -10
23 3 12 1 24 -4 28 -5 3 -12 -9 -16 -27 -5 -25 -9 -29 -16 -17 -6 10 -10 11
-10 3 0 -9 -17 -13 -51 -13 -31 0 -56 -6 -65 -15 -10 -10 -35 -15 -70 -15 -49
0 -54 -2 -55 -22 l-2 -23 -4 23 c-2 12 -9 22 -14 22 -12 0 -11 -17 2 -42 9
-16 8 -19 -2 -13 -9 6 -11 -1 -6 -31 5 -28 -21 15 -86 146 -140 279 -247 448
-424 671 -126 159 -377 411 -523 526 -103 81 -294 215 -321 226 -42 16 45 3
123 -19 377 -106 759 -287 1066 -505 45 -33 87 -59 92 -59 21 0 -161 244 -290
390 -41 47 -130 140 -198 206 -80 80 -119 124 -110 128 7 3 4 4 -8 1 -14 -4
-29 5 -50 27 -23 26 -24 28 -3 10 37 -32 48 -27 15 7 l-28 29 25 -2 c17 -1 23
-6 20 -16 -3 -8 8 5 25 30 16 25 42 51 58 58 16 8 23 16 17 20 -13 9 -13 41 1
39 6 -1 10 5 8 13 -2 10 5 7 20 -8 20 -19 21 -24 8 -33z m-209 -106 c13 -16
12 -17 -3 -4 -17 13 -22 21 -14 21 2 0 10 -8 17 -17z m-895 -1755 c3 -4 -1 -5
-10 -4 -8 1 -18 5 -22 8 -3 4 1 5 10 4 8 -1 18 -5 22 -8z m84 -88 c0 -5 -2
-10 -4 -10 -3 0 -8 5 -11 10 -3 6 -1 10 4 10 6 0 11 -4 11 -10z m2197 -793
c-9 -7 -9 -10 1 -14 6 -2 9 -10 5 -16 -4 -7 -6 -25 -4 -42 6 -73 -65 -495
-103 -615 -8 -25 -15 -42 -15 -39 -1 3 8 70 19 150 12 84 22 225 25 339 5 189
19 280 36 234 6 -17 8 -16 20 9 9 19 15 24 20 15 4 -7 3 -16 -4 -21z m-6224
-596 c4 -29 2 -40 -4 -30 -8 13 -14 88 -5 78 2 -2 6 -24 9 -48z m124 -83 c-3
-8 -6 -5 -6 6 -1 11 2 17 5 13 3 -3 4 -12 1 -19z m-91 -45 c-3 -4 -6 -1 -6 6
0 7 -4 9 -10 6 -6 -4 -7 1 -3 11 6 15 7 15 15 -1 6 -9 7 -19 4 -22z m154 27
c0 -5 -4 -10 -10 -10 -5 0 -10 5 -10 10 0 6 5 10 10 10 6 0 10 -4 10 -10z
m-150 -75 c0 -5 -5 -3 -10 5 -5 8 -10 20 -10 25 0 6 5 3 10 -5 5 -8 10 -19 10
-25z m30 -50 c5 3 10 -3 10 -14 0 -12 -4 -21 -8 -21 -10 0 -32 45 -31 63 0 7
4 2 10 -11 5 -13 13 -20 19 -17z m147 -37 c-3 -8 -6 -5 -6 6 -1 11 2 17 5 13
3 -3 4 -12 1 -19z m-105 3 c6 9 7 2 3 -21 -10 -51 -20 -55 -21 -8 0 23 2 36 4
29 4 -11 6 -10 14 0z m-27 -21 c3 -6 -1 -7 -9 -4 -18 7 -21 14 -7 14 6 0 13
-4 16 -10z m121 -178 c-6 -5 -36 23 -36 34 0 4 9 -1 20 -11 11 -10 18 -20 16
-23z m679 -51 c-8 -8 -35 22 -35 38 0 12 5 10 20 -9 10 -14 17 -27 15 -29z
m-530 -11 c3 -6 -1 -7 -9 -4 -18 7 -21 14 -7 14 6 0 13 -4 16 -10z m-4 -44 c8
4 9 3 5 -5 -4 -6 -2 -19 6 -28 12 -15 11 -15 -8 -3 -12 7 -27 22 -34 34 -12
19 -12 20 3 8 9 -8 22 -10 28 -6z m597 -47 c-3 -8 -7 -3 -11 10 -4 17 -3 21 5
13 5 -5 8 -16 6 -23z m-454 -73 c-10 -8 -21 -12 -24 -10 -5 6 21 24 34 24 6 0
1 -6 -10 -14z m21 -25 c-8 -14 -25 -14 -25 0 0 5 5 7 10 4 6 -3 10 -1 10 6 0
7 3 10 6 6 3 -3 3 -10 -1 -16z m65 -47 c0 -8 -19 -13 -24 -6 -3 5 1 9 9 9 8 0
15 -2 15 -3z m35 -22 c-3 -3 -11 0 -18 7 -9 10 -8 11 6 5 10 -3 15 -9 12 -12z
m355 -222 c-8 -5 -19 -10 -25 -10 -5 0 -3 5 5 10 8 5 20 10 25 10 6 0 3 -5 -5
-10z m25 -30 c-3 -5 -12 -10 -18 -10 -7 0 -6 4 3 10 19 12 23 12 15 0z m355
-20 c0 -5 -2 -10 -4 -10 -3 0 -8 5 -11 10 -3 6 -1 10 4 10 6 0 11 -4 11 -10z
m-205 -30 c-3 -5 -1 -10 6 -10 7 0 10 -3 6 -6 -3 -4 -14 -3 -24 0 -15 6 -15 8
-3 16 19 12 23 12 15 0z m15 -50 c0 -5 -2 -10 -4 -10 -3 0 -8 5 -11 10 -3 6
-1 10 4 10 6 0 11 -4 11 -10z m153 -74 c4 -10 1 -13 -9 -9 -15 6 -19 23 -5 23
5 0 11 -7 14 -14z m247 -26 c0 -5 -5 -10 -11 -10 -5 0 -7 5 -4 10 3 6 8 10 11
10 2 0 4 -4 4 -10z m-150 -10 c0 -5 -5 -10 -11 -10 -5 0 -7 5 -4 10 3 6 8 10
11 10 2 0 4 -4 4 -10z m70 0 c-34 -11 -60 -11 -35 0 11 5 29 8 40 8 16 0 15
-2 -5 -8z m50 -42 c0 -6 -7 -7 -16 -4 -9 3 -22 6 -30 6 -8 0 -14 4 -14 8 0 5
14 7 30 4 17 -2 30 -9 30 -14z m40 -18 c0 -5 -7 -7 -15 -4 -8 4 -15 8 -15 10
0 2 7 4 15 4 8 0 15 -4 15 -10z m140 -40 c0 -5 -7 -10 -16 -10 -8 0 -12 5 -9
10 3 6 10 10 16 10 5 0 9 -4 9 -10z m206 -675 c16 -8 22 -15 14 -15 -8 0 -22
4 -30 10 -9 5 -19 5 -27 -2 -7 -5 -18 -8 -25 -5 -8 4 -7 6 5 6 9 1 17 6 17 11
0 14 13 13 46 -5z m-286 -25 c-19 -13 -30 -13 -30 0 0 6 10 10 23 10 18 0 19
-2 7 -10z m2870 6 c0 -3 -4 -8 -10 -11 -5 -3 -10 -1 -10 4 0 6 5 11 10 11 6 0
10 -2 10 -4z m-2496 -26 c10 0 17 -3 13 -6 -10 -10 -57 5 -57 18 0 9 3 9 12 0
7 -7 21 -12 32 -12z m-400 -5 c23 -5 27 -8 15 -16 -12 -7 -12 -9 0 -9 8 0 12
-2 9 -5 -9 -9 -89 26 -83 36 3 4 11 6 18 4 7 -2 25 -6 41 -10z m433 -31 c-3
-3 -12 -4 -19 -1 -8 3 -5 6 6 6 11 1 17 -2 13 -5z m-357 -24 c0 -5 -4 -10 -9
-10 -6 0 -13 5 -16 10 -3 6 1 10 9 10 9 0 16 -4 16 -10z m35 -10 c10 -11 16
-20 13 -20 -3 0 -13 9 -23 20 -10 11 -16 20 -13 20 3 0 13 -9 23 -20z m85 10
c0 -5 -2 -10 -4 -10 -3 0 -8 5 -11 10 -3 6 -1 10 4 10 6 0 11 -4 11 -10z m-45
-10 c3 -5 2 -10 -4 -10 -5 0 -13 5 -16 10 -3 6 -2 10 4 10 5 0 13 -4 16 -10z
m541 -45 l29 -15 -28 0 c-16 0 -26 4 -23 9 4 5 0 12 -6 14 -7 3 -10 6 -7 6 4
1 20 -6 35 -14z m-341 -45 c9 -8 15 -8 20 0 3 5 11 10 18 10 22 0 -9 -21 -39
-26 -23 -3 -26 -2 -14 7 12 9 11 10 -7 6 -13 -3 -23 -1 -23 4 0 4 -6 6 -14 3
-8 -3 -23 -1 -33 5 -14 8 -7 9 31 6 27 -3 54 -9 61 -15z m82 14 c-3 -3 -12 -4
-19 -1 -8 3 -5 6 6 6 11 1 17 -2 13 -5z m413 -29 c-7 -8 -17 -15 -22 -15 -11
0 14 29 26 30 5 0 3 -7 -4 -15z m-414 -6 c4 -8 -1 -9 -16 -4 -15 5 -20 4 -16
-4 5 -7 1 -8 -9 -4 -13 5 -14 7 -3 14 18 12 36 11 44 -2z m481 -5 c-3 -3 -12
-4 -19 -1 -8 3 -5 6 6 6 11 1 17 -2 13 -5z m-390 -30 c-3 -3 -12 -4 -19 -1 -8
3 -5 6 6 6 11 1 17 -2 13 -5z m68 -14 c4 -7 -3 -8 -22 -4 -38 9 -42 14 -10 14
14 0 29 -5 32 -10z m85 0 c0 -5 19 -10 43 -10 24 0 37 -4 30 -8 -7 -5 -41 -3
-75 2 -49 8 -57 12 -37 17 35 10 39 10 39 -1z m410 -6 c0 -8 -4 -12 -10 -9 -5
3 -10 10 -10 16 0 5 5 9 10 9 6 0 10 -7 10 -16z m-70 -4 c-14 -4 -61 -8 -105
-7 l-80 1 85 6 c126 9 129 9 100 0z m105 -10 c3 -5 -1 -10 -10 -10 -9 0 -13 5
-10 10 3 6 8 10 10 10 2 0 7 -4 10 -10z m-3155 -1534 c139 -36 407 -150 466
-197 8 -7 -10 -50 -60 -147 -97 -189 -96 -187 -154 -186 -35 1 -77 16 -163 57
-199 95 -308 119 -380 81 -54 -27 -69 -102 -31 -147 9 -10 119 -69 246 -131
257 -127 356 -188 443 -274 118 -117 163 -217 163 -360 0 -168 -52 -295 -170
-412 -122 -122 -239 -168 -450 -177 -298 -13 -555 84 -810 305 l-35 30 31 34
c17 18 66 77 109 131 43 54 88 105 99 113 41 28 73 17 174 -59 169 -126 308
-171 431 -137 87 23 140 110 110 181 -28 70 -109 125 -369 252 -268 132 -398
235 -462 365 -32 64 -33 72 -33 182 0 135 17 187 89 284 71 93 161 160 281
206 115 45 315 48 475 6z m-3480 -11 c98 -32 182 -72 261 -126 67 -45 171
-139 167 -150 -2 -4 -61 -66 -131 -138 -128 -131 -128 -131 -174 -131 -37 0
-62 9 -122 45 -94 55 -144 73 -224 81 -230 23 -455 -137 -522 -370 -23 -80
-17 -229 14 -308 53 -138 161 -245 300 -300 44 -17 78 -22 156 -22 119 -1 177
16 269 78 145 98 148 98 315 -69 l136 -135 -65 -61 c-130 -122 -291 -212 -450
-252 -124 -30 -299 -28 -435 7 -346 89 -608 347 -701 691 -15 57 -19 103 -18
245 0 161 2 182 27 263 78 253 239 451 467 575 165 89 272 113 485 108 142 -3
169 -6 245 -31z m1704 11 c399 -112 672 -429 717 -830 31 -280 -64 -559 -265
-775 -51 -56 -183 -149 -270 -191 -131 -64 -255 -92 -416 -93 -178 0 -272 22
-437 103 -105 53 -134 73 -217 151 -153 145 -251 317 -290 511 -20 99 -21 286
-1 383 78 377 364 664 746 750 87 20 351 14 433 -9z m9449 7 c-7 -2 -19 -2
-25 0 -7 3 -2 5 12 5 14 0 19 -2 13 -5z m-6045 -453 c102 -239 187 -437 189
-439 7 -9 17 14 128 277 62 149 122 290 133 314 11 23 32 76 47 116 35 89 83
148 133 162 20 5 121 10 224 10 l186 0 6 -27 c3 -16 10 -59 16 -98 6 -38 17
-110 25 -160 17 -104 102 -656 184 -1190 l56 -370 -234 -3 c-129 -1 -235 -1
-237 1 -2 2 -33 226 -69 498 -35 271 -67 509 -71 528 -5 32 -18 9 -171 -300
-91 -184 -207 -421 -259 -527 -53 -109 -98 -191 -104 -187 -5 3 -10 10 -10 14
0 5 -32 75 -71 157 -40 82 -148 309 -241 504 -93 195 -173 359 -178 364 -7 7
-10 3 -10 -10 0 -11 -27 -247 -60 -523 -33 -277 -60 -507 -60 -512 0 -5 -104
-9 -235 -9 -129 0 -235 4 -235 8 0 9 116 775 210 1386 56 365 66 396 140 434
42 21 55 22 214 20 l169 -3 185 -435z m6199 434 c-3 -3 -12 -4 -19 -1 -8 3 -5
6 6 6 11 1 17 -2 13 -5z m2477 -24 c20 -20 50 -111 149 -450 68 -234 144 -496
168 -582 24 -87 48 -157 54 -155 5 2 13 17 18 33 4 16 73 269 153 563 79 294
152 549 162 565 31 53 46 56 307 56 132 0 246 -4 254 -9 9 -6 12 -19 8 -37 -8
-41 -554 -1669 -579 -1726 -32 -75 -44 -78 -333 -78 -258 0 -278 3 -316 46 -9
11 -117 319 -239 687 l-222 667 -173 0 -173 0 -4 -683 c-2 -561 -5 -687 -17
-700 -12 -15 -42 -17 -252 -17 -203 0 -240 2 -253 16 -14 14 -16 90 -17 682
-1 367 -2 674 -3 682 -1 13 -34 16 -213 20 -155 4 -216 8 -225 18 -19 19 -19
392 1 416 13 15 80 16 867 14 l854 -3 24 -25z m-2399 -18 c-3 -3 -11 0 -18 7
-9 10 -8 11 6 5 10 -3 15 -9 12 -12z m33 -14 c-9 -7 -7 -8 10 -5 14 3 20 1 16
-5 -4 -6 -1 -8 7 -6 15 5 68 -27 82 -49 5 -7 14 -10 20 -7 9 5 9 4 1 -6 -15
-15 -55 -4 -48 15 8 19 -27 35 -83 39 -11 0 -19 4 -16 9 2 4 -2 7 -9 8 -10 0
-10 2 0 6 6 2 10 9 7 14 -4 5 1 6 10 2 14 -5 14 -8 3 -15z m178 -100 l19 -23
-22 19 c-23 19 -23 19 -24 0 0 -10 -3 -14 -5 -8 -3 7 -15 10 -27 7 -15 -3 -13
1 8 11 17 8 30 15 31 15 0 1 9 -9 20 -21z m-4629 -25 c-4 -3 1 -12 11 -20 9
-8 11 -11 3 -7 -7 3 -17 1 -21 -6 -4 -7 -13 -9 -20 -5 -8 5 -7 12 6 26 9 10
19 19 22 19 3 0 2 -3 -1 -7z m-11 -73 c3 0 2 4 -1 10 -4 6 1 7 11 3 13 -5 15
-3 9 7 -6 9 -4 11 4 5 8 -5 9 -11 3 -17 -6 -6 -6 -17 2 -31 34 -61 58 -96 71
-101 8 -3 15 -17 15 -30 0 -15 8 -30 20 -36 11 -6 27 -24 35 -40 19 -36 51
-56 68 -41 9 7 13 5 13 -8 0 -13 -6 -16 -22 -13 -19 3 -22 1 -17 -19 4 -13 8
-18 11 -11 2 6 8 12 14 12 5 0 -5 -19 -24 -42 -18 -23 -33 -45 -34 -48 0 -3
-8 -22 -18 -42 -88 -199 -49 -433 99 -584 97 -99 208 -144 355 -144 48 0 108
6 134 14 35 11 44 11 37 2 -8 -9 -3 -12 18 -10 24 2 29 -2 29 -22 0 -15 21
-44 63 -85 59 -58 77 -80 95 -119 4 -8 14 -23 22 -32 8 -10 12 -26 9 -38 -3
-13 -1 -18 6 -13 7 4 19 8 27 8 8 0 14 6 12 13 -1 8 2 11 8 7 17 -11 11 -25
-15 -35 -14 -5 -25 -15 -25 -21 0 -8 4 -8 15 1 9 7 18 10 21 7 4 -3 -9 -15
-27 -26 -38 -23 -54 -27 -43 -9 4 7 3 8 -5 4 -6 -4 -9 -11 -6 -15 9 -16 -179
-69 -281 -81 -151 -16 -319 7 -455 62 -287 117 -491 351 -576 660 -14 49 -18
102 -18 233 0 193 14 261 85 413 41 86 66 123 158 230 55 63 55 63 74 43 10
-12 21 -21 24 -21z m3404 27 c0 -2 -10 -12 -22 -23 l-23 -19 19 23 c18 21 26
27 26 19z m1280 -27 c0 -5 -5 -10 -11 -10 -5 0 -7 5 -4 10 3 6 8 10 11 10 2 0
4 -4 4 -10z m-52 -45 c-3 -3 -9 2 -12 12 -6 14 -5 15 5 6 7 -7 10 -15 7 -18z
m30 0 c-6 -14 -13 -23 -15 -21 -5 5 15 46 22 46 3 0 -1 -11 -7 -25z m-30 -43
c-4 -2 -5 -9 -2 -17 3 -7 1 -16 -4 -19 -6 -4 -9 5 -7 19 1 14 -2 28 -6 31 -5
3 -9 9 -9 15 0 5 8 1 18 -8 10 -10 15 -19 10 -21z m-333 -100 c-3 -3 -11 0
-18 7 -9 10 -8 11 6 5 10 -3 15 -9 12 -12z m45 4 c-7 -7 -13 -7 -20 0 -6 6 -3
10 10 10 13 0 16 -4 10 -10z m230 -21 c-7 -9 -15 -13 -17 -11 -7 7 7 26 19 26
6 0 6 -6 -2 -15z m-33 -27 c-2 -12 -9 -24 -16 -26 -9 -3 -9 2 0 22 15 32 20
33 16 4z m-187 -8 c0 -5 -2 -10 -4 -10 -3 0 -8 5 -11 10 -3 6 -1 10 4 10 6 0
11 -4 11 -10z m218 -845 c-3 -3 -9 2 -12 12 -6 14 -5 15 5 6 7 -7 10 -15 7
-18z m-3743 -55 c3 -5 1 -10 -4 -10 -6 0 -11 5 -11 10 0 6 2 10 4 10 3 0 8 -4
11 -10z"/>
<path d="M9955 10229 c-4 -6 -13 -8 -21 -5 -8 3 -14 1 -14 -4 0 -4 -35 -10
-77 -12 -58 -2 -81 1 -89 11 -26 33 -6 -31 24 -77 54 -84 55 -84 118 -16 57
62 91 114 75 114 -5 0 -13 -5 -16 -11z"/>
<path d="M10690 9245 c0 -2 6 -8 13 -14 10 -8 14 -7 14 2 0 8 -6 14 -14 14 -7
0 -13 -1 -13 -2z"/>
<path d="M10789 9188 c-5 -18 -6 -38 -1 -34 7 8 12 36 6 36 -2 0 -4 -1 -5 -2z"/>
<path d="M10755 9170 c3 -5 8 -10 11 -10 2 0 4 5 4 10 0 6 -5 10 -11 10 -5 0
-7 -4 -4 -10z"/>
<path d="M7870 9591 c0 -6 4 -13 10 -16 6 -3 7 1 4 9 -7 18 -14 21 -14 7z"/>
<path d="M7905 9520 c-3 -6 1 -7 9 -4 18 7 21 14 7 14 -6 0 -13 -4 -16 -10z"/>
<path d="M7881 9505 c0 -5 6 -19 14 -29 8 -11 15 -15 15 -10 0 6 -7 19 -15 30
-8 10 -14 15 -14 9z"/>
<path d="M7920 9472 c0 -5 7 -9 15 -9 8 0 12 4 9 9 -3 4 -9 8 -15 8 -5 0 -9
-4 -9 -8z"/>
<path d="M7923 9423 c5 -12 14 -20 20 -16 6 3 7 1 3 -6 -4 -6 1 -23 11 -39 10
-15 25 -40 33 -55 9 -17 16 -24 19 -16 2 7 -1 15 -7 17 -7 2 -12 15 -12 28 0
13 -5 24 -11 24 -5 0 -7 5 -4 10 3 6 2 10 -2 10 -5 0 -10 9 -11 20 -4 42 -6
46 -28 46 -19 0 -20 -3 -11 -23z"/>
<path d="M8366 8655 c4 -8 11 -15 16 -15 6 0 5 6 -2 15 -7 8 -14 15 -16 15 -2
0 -1 -7 2 -15z"/>
<path d="M8358 8595 c-11 -13 -26 -22 -31 -18 -6 3 -7 1 -4 -4 4 -6 -3 -19
-14 -29 -25 -23 -69 -106 -69 -131 0 -10 -6 -27 -14 -38 -21 -31 -44 -204 -28
-214 6 -3 12 -49 15 -101 5 -100 15 -138 40 -158 9 -7 23 -35 33 -63 10 -28
29 -56 43 -66 35 -22 60 -54 61 -75 0 -10 7 -18 15 -18 8 0 19 -9 25 -20 6
-10 16 -17 23 -14 7 2 29 -10 50 -28 44 -39 189 -101 198 -86 4 6 9 5 13 -3 3
-8 4 -5 1 6 -24 113 -31 426 -13 603 8 74 7 96 -3 111 -8 11 -66 84 -130 163
-63 78 -126 158 -139 176 -28 38 -43 40 -72 7z"/>
<path d="M7091 7744 c0 -11 3 -14 6 -6 3 7 2 16 -1 19 -3 4 -6 -2 -5 -13z"/>
<path d="M10016 6902 c-3 -4 4 -9 15 -9 23 -2 25 3 4 10 -8 4 -16 3 -19 -1z"/>
<path d="M10535 6871 c-3 -5 -1 -12 5 -16 6 -4 7 -11 4 -17 -4 -7 -2 -8 5 -4
8 6 9 12 2 20 -6 7 -8 16 -4 19 3 4 4 7 0 7 -3 0 -8 -4 -12 -9z"/>
<path d="M10116 6819 c3 -5 9 -7 14 -4 4 3 11 0 13 -5 3 -6 4 -5 3 1 -1 7 -10
13 -19 15 -9 1 -15 -2 -11 -7z"/>
<path d="M10163 6785 c0 -8 5 -11 10 -8 6 4 8 0 4 -10 -4 -11 -2 -14 9 -10 13
5 13 8 -2 24 -21 23 -21 23 -21 4z"/>
<path d="M10200 6740 c0 -6 -4 -9 -8 -6 -4 2 -14 1 -21 -4 -9 -5 -2 -7 18 -6
31 1 40 9 21 21 -5 3 -10 1 -10 -5z"/>
<path d="M10240 6699 c0 -6 8 -17 17 -24 15 -11 15 -15 4 -29 -7 -9 -19 -16
-25 -15 -7 0 -7 2 1 5 26 11 0 34 -38 34 -35 0 -39 -3 -39 -25 0 -22 -4 -25
-40 -25 -29 0 -40 -4 -40 -15 0 -11 -11 -15 -40 -15 -29 0 -40 -4 -40 -15 0
-11 11 -15 40 -15 22 0 40 -4 40 -10 0 -5 -18 -10 -40 -10 -29 0 -40 -4 -40
-15 0 -11 -11 -15 -40 -15 -29 0 -40 -4 -40 -15 0 -11 12 -15 50 -15 28 0 50
-4 50 -10 0 -5 -22 -10 -50 -10 -38 0 -50 -4 -50 -15 0 -11 -11 -15 -40 -15
-36 0 -40 -2 -40 -25 0 -22 -4 -25 -40 -25 -29 0 -40 -4 -40 -15 0 -11 -11
-15 -40 -15 -29 0 -40 -4 -40 -15 0 -11 11 -15 40 -15 22 0 40 -4 40 -10 0 -5
-18 -10 -40 -10 -29 0 -40 -4 -40 -15 0 -11 -11 -15 -40 -15 -36 0 -40 -2 -40
-25 0 -22 -4 -25 -40 -25 l-40 0 0 -40 0 -40 -40 0 c-29 0 -40 -4 -40 -15 0
-11 -11 -15 -40 -15 -50 0 -55 -25 -7 -33 17 -3 41 -8 52 -12 16 -6 17 -5 5 4
-12 9 -10 11 13 11 15 0 27 -5 27 -11 0 -23 589 12 685 41 17 4 89 18 160 30
168 29 158 25 151 58 -4 18 -3 22 2 13 8 -11 10 -11 15 0 4 8 4 1 2 -16 -3
-16 -2 -23 1 -15 4 8 11 18 17 21 13 9 0 29 -19 29 -8 0 -12 5 -9 10 4 6 11 8
16 5 11 -8 11 -3 -1 29 -7 19 -17 26 -35 26 -52 0 -88 33 -104 94 -7 31 -6 46
5 68 9 17 20 26 26 22 7 -4 8 -3 4 5 -4 6 -12 8 -18 5 -7 -5 -8 -2 -4 5 5 7
-6 34 -27 65 -44 67 -117 151 -117 135z m-30 -69 c8 -5 11 -12 8 -16 -4 -3
-14 1 -23 10 -18 17 -9 21 15 6z m-39 -37 c-12 -20 -14 -14 -5 12 4 9 9 14 11
11 3 -2 0 -13 -6 -23z m-38 -40 c-7 -2 -19 -2 -25 0 -7 3 -2 5 12 5 14 0 19
-2 13 -5z m-18 -43 c-3 -5 -12 -10 -18 -10 -7 0 -6 4 3 10 19 12 23 12 15 0z
m68 -357 c-7 -2 -19 -2 -25 0 -7 3 -2 5 12 5 14 0 19 -2 13 -5z m67 -13 c-8
-5 -19 -10 -25 -10 -5 0 -3 5 5 10 8 5 20 10 25 10 6 0 3 -5 -5 -10z m-150
-10 c20 -6 21 -8 5 -8 -11 0 -29 3 -40 8 -25 11 1 11 35 0z"/>
<path d="M9318 6073 c6 -2 18 -2 25 0 6 3 1 5 -13 5 -14 0 -19 -2 -12 -5z"/>
<path d="M10188 5633 c12 -2 20 -9 16 -14 -4 -7 11 -9 42 -5 l49 5 -42 -10
c-42 -10 -43 -11 -43 -50 0 -35 -3 -39 -25 -39 -23 0 -25 -4 -25 -43 0 -24 5
-48 11 -54 8 -8 7 -13 -3 -18 -7 -5 -10 -5 -6 0 9 9 -9 35 -23 35 -5 0 -9 -6
-9 -14 0 -7 -7 -19 -15 -26 -17 -14 -20 -40 -6 -40 5 0 13 9 16 20 4 12 14 20
23 19 33 -3 42 2 102 52 34 28 58 55 54 61 -4 6 -3 8 4 4 6 -3 20 7 31 23 23
31 27 46 11 36 -16 -10 -11 1 7 16 11 10 14 10 9 2 -4 -7 -3 -13 2 -13 5 0 12
9 15 20 4 16 1 20 -11 19 -9 -2 -30 0 -47 4 -16 3 -59 8 -95 10 -36 2 -55 2
-42 0z m152 -33 c0 -5 -2 -10 -4 -10 -3 0 -8 5 -11 10 -3 6 -1 10 4 10 6 0 11
-4 11 -10z m-50 -92 c0 -4 -5 -8 -11 -8 -5 0 -8 -4 -5 -9 5 -8 -2 -8 -33 -2
-2 1 2 7 8 14 12 15 41 19 41 5z m-76 -80 c-3 -4 -11 -5 -19 -1 -21 7 -19 12
4 10 11 0 18 -5 15 -9z"/>
<path d="M10150 5610 c-18 -12 -2 -12 25 0 13 6 15 9 5 9 -8 0 -22 -4 -30 -9z"/>
<path d="M8465 5551 c-3 -5 -2 -12 3 -15 5 -3 9 1 9 9 0 17 -3 19 -12 6z"/>
<path d="M11485 5470 c-8 -13 5 -13 25 0 13 8 13 10 -2 10 -9 0 -20 -4 -23
-10z"/>
<path d="M10090 5424 c0 -8 5 -12 10 -9 6 3 10 10 10 16 0 5 -4 9 -10 9 -5 0
-10 -7 -10 -16z"/>
<path d="M10003 5333 c1 -16 5 -19 17 -14 8 5 22 11 30 15 8 3 3 4 -12 1 -16
-3 -28 0 -31 8 -3 6 -4 2 -4 -10z"/>
<path d="M12016 10901 c-4 -5 3 -7 14 -4 23 6 26 13 6 13 -8 0 -17 -4 -20 -9z"/>
<path d="M12880 9165 c0 -8 2 -15 4 -15 2 0 6 7 10 15 3 8 1 15 -4 15 -6 0
-10 -7 -10 -15z"/>
<path d="M12592 9060 c0 -14 2 -19 5 -12 2 6 2 18 0 25 -3 6 -5 1 -5 -13z"/>
<path d="M8588 5473 c7 -3 16 -2 19 1 4 3 -2 6 -13 5 -11 0 -14 -3 -6 -6z"/>
<path d="M4432 3264 c-208 -56 -348 -224 -368 -444 -24 -249 141 -485 376
-539 170 -39 361 18 476 141 91 99 134 211 134 350 0 287 -217 509 -495 507
-38 0 -94 -7 -123 -15z"/>
</g>
</svg>
