<svg width="135" height="40" viewBox="0 0 135 40" fill="none" xmlns="http://www.w3.org/2000/svg">
<g clip-path="url(#clip0_5438_16597)">
<path d="M52.6707 31.8473V8.15332H60.2352C67.6321 8.15332 72.1223 12.8933 72.1223 20.0003C72.1223 27.1073 67.6291 31.8473 60.2352 31.8473H52.6707ZM55.6103 29.1383H60.2382C65.9797 29.1383 69.1199 25.5173 69.1199 20.0003C69.1199 14.4833 65.9797 10.8623 60.2382 10.8623H55.6103V29.1413V29.1383Z" fill="#02163D"/>
<path d="M74.3884 9.87798C74.3884 8.82798 75.1637 8.08398 76.1785 8.08398C77.1933 8.08398 77.9686 8.82798 77.9686 9.87798C77.9686 10.928 77.1903 11.672 76.1785 11.672C75.1667 11.672 74.3884 10.928 74.3884 9.87798ZM74.7596 14.582H77.5285V31.844H74.7596V14.585V14.582Z" fill="#02163D"/>
<path d="M94.5853 14.5849H96.9831V31.0009C96.9831 35.9779 94.3489 38.8189 88.4367 38.8189C84.0453 38.8189 80.974 36.7549 80.534 32.9629H83.3718C83.8448 35.1289 85.7696 36.3469 88.6403 36.3469C92.2534 36.3469 94.2142 34.6549 94.2142 30.8989V28.8679C93.0647 30.8299 91.2087 32.0509 88.305 32.0509C83.5424 32.0509 80.0311 28.8349 80.0311 23.2159C80.0311 17.9359 83.5424 14.3809 88.305 14.3809C91.2087 14.3809 93.1335 15.6349 94.2142 17.5639L94.5853 14.5849ZM94.2471 23.2849C94.2471 19.4929 91.9511 16.8529 88.5715 16.8529C85.1918 16.8529 82.8629 19.4599 82.8629 23.2159C82.8629 26.9719 85.1589 29.5789 88.5715 29.5789C91.984 29.5789 94.2471 26.9719 94.2471 23.2819V23.2849Z" fill="#02163D"/>
<path d="M99.4827 23.2159C99.4827 17.9689 102.793 14.3809 107.655 14.3809C112.516 14.3809 115.692 17.4619 115.827 22.5709C115.827 22.9429 115.794 23.3479 115.758 23.7559H102.383V23.9929C102.485 27.2749 104.545 29.5789 107.823 29.5789C110.253 29.5789 112.145 28.2919 112.72 26.0599H115.525C114.848 29.5129 112.013 32.0509 108.026 32.0509C102.859 32.0509 99.4827 28.4959 99.4827 23.2159ZM112.858 21.4549C112.588 18.4759 110.562 16.8169 107.691 16.8169C105.158 16.8169 102.826 18.6439 102.557 21.4549H112.858Z" fill="#02163D"/>
<path d="M132.276 14.5849H134.674V31.8469H132.276L131.905 29.0719C130.756 30.6619 128.9 32.0509 125.996 32.0509C121.233 32.0509 117.722 28.8349 117.722 23.2159C117.722 17.9359 121.233 14.3809 125.996 14.3809C128.9 14.3809 130.791 15.5989 131.905 17.2909L132.276 14.5819V14.5849ZM131.938 23.2849C131.938 19.4929 129.642 16.8529 126.262 16.8529C122.883 16.8529 120.554 19.4599 120.554 23.2159C120.554 26.9719 122.85 29.5789 126.262 29.5789C129.675 29.5789 131.938 26.9719 131.938 23.2819V23.2849Z" fill="#02163D"/>
<path d="M26.6035 1.54697C10.9147 -3.54403 -3.36123 10.763 1.7187 26.486C3.54772 32.15 8.008 36.617 13.6597 38.453C29.3485 43.544 43.6244 29.237 38.5445 13.511C36.7154 7.84697 32.2552 3.37997 26.6035 1.54397V1.54697ZM24.2416 32.282H20.1735V7.50497H24.2416C32.0247 7.50497 36.2814 12.368 36.2814 19.892C36.2814 27.416 32.0247 32.279 24.2416 32.279V32.282Z" fill="#FA4F29"/>
</g>
<defs>
<clipPath id="clip0_5438_16597">
<rect width="134" height="39" fill="white" transform="translate(0.674011 0.5)"/>
</clipPath>
</defs>
</svg>
