<?xml version="1.0" encoding="utf-8"?>
<!-- Generator: Adobe Illustrator 23.0.1, SVG Export Plug-In . SVG Version: 6.00 Build 0)  -->
<svg version="1.1" id="Livello_1" xmlns="http://www.w3.org/2000/svg" xmlns:xlink="http://www.w3.org/1999/xlink" x="0px" y="0px"
	 width="486.7px" height="146px" viewBox="0 0 486.7 146" enable-background="new 0 0 486.7 146" xml:space="preserve">
<g>
	<g>
		<path fill-rule="evenodd" clip-rule="evenodd" fill="#00109F" d="M338.7,4.1c0-2.3,1.8-4.1,4.1-4.1h139.8c2.3,0,4.1,1.8,4.1,4.1
			v137.8c0,2.3-1.8,4.1-4.1,4.1H342.8c-2.3,0-4.1-1.8-4.1-4.1V4.1z"/>
		<path fill-rule="evenodd" clip-rule="evenodd" fill="#FFFFFF" d="M435.7,22v103h-25.2V65.1l-20.9,11.7V49l20.9-11.7L435.7,22z"/>
	</g>
	<g transform="translate(-492 -301)">
		<path fill-rule="evenodd" clip-rule="evenodd" fill="#00109F" d="M493.6,316h79.3c0.9,0,1.6,0.7,1.6,1.6v26.9
			c0,0.9-0.7,1.6-1.6,1.6h-45.3v15.3H562c0.8,0,1.5,0.7,1.5,1.5v22.2c0,0.8-0.7,1.5-1.5,1.5h-34.3v14.9h45.3c0.9,0,1.6,0.7,1.6,1.6
			v27.1c0,0.9-0.7,1.6-1.6,1.6h-79.3c-0.9,0-1.6-0.7-1.6-1.6V317.7C492,316.7,492.7,316,493.6,316z"/>
		<path fill-rule="evenodd" clip-rule="evenodd" fill="#00109F" d="M782.1,316h-90.7v0.1c9.6,7.7,16.5,18.2,19.3,30h14.8v83.8
			c0,1.1,0.9,2,2,2h31.6c1.1,0,2-0.9,2-2v-83.8h21c1.4,0,2.6-1.2,2.6-2.6v-24.9C784.7,317.2,783.6,316,782.1,316z"/>
		<path fill-rule="evenodd" clip-rule="evenodd" fill="#00109F" d="M630.6,346.9v25.5h15.3c7,0,12.8-5.7,12.8-12.8l0,0
			c0-7-5.7-12.8-12.8-12.8L630.6,346.9L630.6,346.9z M596.9,316h50.8c24.2,0,43.7,19.6,43.7,43.7l0,0c0,24.2-19.6,43.7-43.7,43.7
			h-17.1v26.8c0,1-0.8,1.8-1.8,1.8h-32c-1,0-1.8-0.8-1.8-1.8V317.8C595.2,316.8,595.9,316,596.9,316z"/>
	</g>
</g>
</svg>
