<?xml version="1.0" encoding="utf-8"?>
<!-- Generator: Adobe Illustrator 23.0.1, SVG Export Plug-In . SVG Version: 6.00 Build 0)  -->
<svg version="1.1" id="Livello_1" xmlns="http://www.w3.org/2000/svg" xmlns:xlink="http://www.w3.org/1999/xlink" x="0px" y="0px"
	 width="486.7px" height="146px" viewBox="0 0 486.7 146" enable-background="new 0 0 486.7 146" xml:space="preserve">
<g>
	<g transform="translate(-395 -286)">
		<path fill-rule="evenodd" clip-rule="evenodd" fill="#00AD01" d="M733.7,290.1c0-2.3,1.8-4.1,4.1-4.1h139.8c2.3,0,4.1,1.8,4.1,4.1
			v137.8c0,2.3-1.8,4.1-4.1,4.1H737.8c-2.3,0-4.1-1.8-4.1-4.1V290.1z"/>
		<path fill-rule="evenodd" clip-rule="evenodd" fill="#FFFFFF" d="M843.8,309l-17.7,36c3.4,1,9.8,4.3,12.5,6.6
			c2.8,2.4,6.4,7.3,7.9,12.6c0,0,0.9,8.2,1,10.9c0,1.2-0.2,5-0.2,5l-0.4,1.3l0,0l-0.1,0.3l-1.7,6.2l-2.5,4.8l-0.2,0.3l0,0.1l-1,2
			c-1.5,2.3-3.3,4.4-5.3,6.3l-0.7,0.5l-0.4,0.5l-1.6,1.1l-3.7,2.8l-2.4,1.1l-2,1.3l-2.4,0.8l-0.5,0.2l-0.8,0.2l-0.6,0.2l0.1,0.2
			l-5.4,1l-1.2,0.3l-0.4,0l-0.1,0l-1.1,0c0,0-4.9,0.2-6.5,0.2c-1.9-0.1-7.6-0.9-7.6-0.9c-2.6-0.5-5.2-1.2-7.8-2.1l0.1-0.3l-1.6-0.5
			l-3.7-1.7l-0.2,0.3l-14.1-7.6l10.9-20.1c0,0,10,5.8,13.5,7.3c1.4,0.6,5.9,2.1,12.4,2.1c1.7,0,10.5-1.4,12.7-7.4
			c1.1-3,2.6-8.5,0.3-12.8c-1.3-2.4-3-4.7-5.5-6c-1.8-1-4.8-2.7-7.8-2.7c-1.3,0-5.1,0-5.1,0h-2.7h-7.4l15.1-29.1H777V309H843.8z"/>
	</g>
	<g transform="translate(-492 -301)">
		<path fill-rule="evenodd" clip-rule="evenodd" fill="#00AD01" d="M493.6,316h79.3c0.9,0,1.6,0.7,1.6,1.6v26.9
			c0,0.9-0.7,1.6-1.6,1.6h-45.3v15.3H562c0.8,0,1.5,0.7,1.5,1.5v22.2c0,0.8-0.7,1.5-1.5,1.5h-34.3v14.9h45.3c0.9,0,1.6,0.7,1.6,1.6
			v27.1c0,0.9-0.7,1.6-1.6,1.6h-79.3c-0.9,0-1.6-0.7-1.6-1.6V317.7C492,316.7,492.7,316,493.6,316z"/>
		<path fill-rule="evenodd" clip-rule="evenodd" fill="#00AD01" d="M782.1,316h-90.7v0.1c9.6,7.7,16.5,18.2,19.3,30h14.8v83.8
			c0,1.1,0.9,2,2,2h31.6c1.1,0,2-0.9,2-2v-83.8h21c1.4,0,2.6-1.2,2.6-2.6v-24.9C784.7,317.2,783.6,316,782.1,316z"/>
		<path fill-rule="evenodd" clip-rule="evenodd" fill="#00AD01" d="M630.6,346.9v25.5h15.3c7,0,12.8-5.7,12.8-12.8l0,0
			c0-7-5.7-12.8-12.8-12.8L630.6,346.9L630.6,346.9z M596.9,316h50.8c24.2,0,43.7,19.6,43.7,43.7l0,0c0,24.2-19.6,43.7-43.7,43.7
			h-17.1v26.8c0,1-0.8,1.8-1.8,1.8h-32c-1,0-1.8-0.8-1.8-1.8V317.8C595.2,316.8,595.9,316,596.9,316z"/>
	</g>
</g>
</svg>
