<?xml version="1.0" encoding="UTF-8"?> <svg xmlns="http://www.w3.org/2000/svg" xmlns:xlink="http://www.w3.org/1999/xlink" version="1.1" id="Layer_1" x="0px" y="0px" viewBox="0 0 386 106" style="enable-background:new 0 0 386 106;" xml:space="preserve"> <style type="text/css"> .st0{fill:#FFFFFF;} </style> <path class="st0" d="M383,0H224.3c-1.7,0-3,1.4-3,3v100c0,1.7,1.4,3,3,3H383c1.7,0,3-1.4,3-3V3C386,1.4,384.7,0,383,0z M264.3,70.8 h-5.6L242.2,47h-0.3v23.8h-6.3V35.9h5.7l16.4,23.8h0.3V35.9h6.3V70.8z M294,70.8h-22.8V35.9h22.7v5.3h-16.4v9.5h15.2V56h-15.2v9.5 H294V70.8z M334.4,70.8h-6.2l-7-24.5h-0.3l-7,24.5h-6.2l-9.9-34.9h6.8l6.3,25.7h0.3l6.7-25.7h6.2l6.7,25.7h0.3l6.3-25.7h6.8 L334.4,70.8z M372.4,66.4c-1,1.6-2.6,2.8-4.5,3.6c-2,0.9-4.4,1.3-7.2,1.3c-2.7,0-5.1-0.4-7.1-1.3c-2-0.8-3.6-2.1-4.7-3.7 c-1.1-1.6-1.7-3.6-1.8-5.9h6.2c0.1,1.2,0.5,2.2,1.1,3c0.7,0.8,1.5,1.4,2.6,1.8c1.1,0.4,2.3,0.6,3.6,0.6c1.4,0,2.6-0.2,3.6-0.6 c1-0.4,1.9-1,2.4-1.7c0.6-0.7,0.9-1.6,0.9-2.6c0-0.9-0.3-1.7-0.8-2.3c-0.5-0.6-1.3-1.1-2.2-1.5s-2-0.8-3.3-1.1l-4-1 c-2.9-0.7-5.1-1.9-6.8-3.4c-1.7-1.5-2.5-3.5-2.5-6c0-2.1,0.6-3.9,1.7-5.4c1.1-1.5,2.6-2.7,4.6-3.6c1.9-0.9,4.1-1.3,6.6-1.3 c2.5,0,4.7,0.4,6.5,1.3c1.9,0.9,3.3,2,4.4,3.6c1.1,1.5,1.6,3.3,1.7,5.2h-6.1c-0.2-1.5-0.8-2.6-2-3.5c-1.2-0.8-2.7-1.2-4.6-1.2 c-1.3,0-2.4,0.2-3.4,0.6s-1.7,0.9-2.2,1.6c-0.5,0.7-0.8,1.5-0.8,2.3c0,0.7,0.2,1.4,0.5,1.9c0.3,0.5,0.8,1,1.4,1.4 c0.6,0.4,1.2,0.7,1.9,0.9c0.7,0.2,1.4,0.5,2.1,0.6l3.3,0.8c1.3,0.3,2.6,0.7,3.8,1.2c1.2,0.5,2.3,1.2,3.3,2s1.7,1.8,2.3,2.9 c0.6,1.1,0.9,2.4,0.9,4C374,63,373.5,64.8,372.4,66.4z"></path> <path class="st0" d="M190.6,13h-13.6v0h-23.6v0h-22.2c0.8,0.6,1.6,1.2,2.4,1.9c3.6,3.2,6.4,7.3,8.4,12c0.8,2,1.5,3.9,1.9,6.2h9.5v55 c0,0.9,0.7,1.6,1.6,1.6h20.5c0.9,0,1.6-0.7,1.6-1.6v-55h13.6c1,0,1.8-0.8,1.8-1.8V14.8C192.3,13.8,191.6,13,190.6,13z"></path> <path class="st0" d="M53.3,12.4H1.8c-1,0-1.8,0.8-1.8,1.8l0,72.9c0,1,0.8,1.8,1.8,1.8h51.5c0.6,0,1.1-0.5,1.1-1.1V69.9 c0-0.6-0.5-1.1-1.1-1.1H23.6v-9.6h22.7c0.5,0,0.9-0.4,0.9-0.9v-15c0-0.5-0.4-0.9-0.9-0.9H23.6v-10h29.7c0.6,0,1.1-0.5,1.1-1.1V13.5 C54.4,12.9,53.9,12.4,53.3,12.4z"></path> <path class="st0" d="M103.4,12.4c-0.2,0-33.9,0-33.9,0c-1,0-1.8,0.8-1.8,1.8l0,0c0,0-0.1,0-0.1,0v73.6c0,0.6,0.5,1.2,1.2,1.2h21.3 c0.6,0,1.2-0.5,1.2-1.2V70h11.4c15.7-0.2,28.4-13,28.4-28.8C131.2,25.7,118.8,13,103.4,12.4z M101.5,49.6c0,0-4.4,0-10.1,0l0-16.9 h10.1c4.7,0,8.4,3.8,8.4,8.4C109.9,45.8,106.1,49.6,101.5,49.6z"></path> </svg> 