<?xml version="1.0" encoding="UTF-8" standalone="no"?>
<svg
   viewBox="0 0 341.27 44.440001"
   version="1.1"
   id="svg17"
   sodipodi:docname="Mega-logo.svg"
   width="113.75667"
   height="14.813334"
   inkscape:version="1.1 (c68e22c387, 2021-05-23)"
   xmlns:inkscape="http://www.inkscape.org/namespaces/inkscape"
   xmlns:sodipodi="http://sodipodi.sourceforge.net/DTD/sodipodi-0.dtd"
   xmlns="http://www.w3.org/2000/svg"
   xmlns:svg="http://www.w3.org/2000/svg"
   xmlns:rdf="http://www.w3.org/1999/02/22-rdf-syntax-ns#"
   xmlns:cc="http://creativecommons.org/ns#"
   xmlns:dc="http://purl.org/dc/elements/1.1/">
  <sodipodi:namedview
     id="namedview19"
     pagecolor="#ffffff"
     bordercolor="#666666"
     borderopacity="1.0"
     inkscape:pageshadow="2"
     inkscape:pageopacity="0.0"
     inkscape:pagecheckerboard="0"
     showgrid="false"
     scale-x="3"
     fit-margin-top="0"
     fit-margin-left="0"
     fit-margin-right="0"
     fit-margin-bottom="0"
     inkscape:zoom="3.6686496"
     inkscape:cx="84.908627"
     inkscape:cy="21.670099"
     inkscape:window-width="1920"
     inkscape:window-height="1001"
     inkscape:window-x="-9"
     inkscape:window-y="-9"
     inkscape:window-maximized="1"
     inkscape:current-layer="svg17" />
  <defs
     id="defs7">
    <style
       id="style2">.cls-1{fill:none;}.cls-2{clip-path:url(#clip-path);}.cls-3{fill:#231f20;}</style>
    <clipPath
       id="clip-path"
       transform="translate(-4.76 -29.39)">
      <rect
         class="cls-1"
         width="356.10999"
         height="103.19"
         id="rect4"
         x="0"
         y="0" />
    </clipPath>
  </defs>
  <title
     id="title9">Mega</title>
  <g
     id="Layer_2"
     data-name="Layer 2"
     style="stroke:none;stroke-opacity:1">
    <g
       id="svg58038"
       style="stroke:none;stroke-opacity:1">
      <g
         class="cls-2"
         clip-path="url(#clip-path)"
         id="g13"
         style="stroke:none;stroke-opacity:1">
        <g
           id="g17246"
           style="stroke:none;stroke-opacity:1">
          <path
             id="path17248"
             class="cls-3"
             d="M 290.68,48 V 36.69 h 16.69 c 7.88,0 14.18,4.34 16.09,11.27 z m 34.55,-18.57 h -43.09 c -7.22,0 -12.3,5.05 -12.41,12.22 V 49 H 249 v 17.57 h -16.35 c -9.17,-0.14 -16.72,-5.66 -16.72,-15 0,-9.07 7.32,-14.53 16.43,-14.76 v -0.05 h 33.75 v -7.3 h -50.72 c -9.83,0 -18.59,8.79 -20.42,18.57 h -47.11 c 1.64,-7 8.16,-11.07 16,-11.29 h 0.25 v 0 h 31.49 v -7.3 h -48.73 c -9.78,0 -18.52,8.71 -20.41,18.44 v -6 c 0,-7.28 -5.11,-12.45 -12.41,-12.45 H 25.58 c -11.07,0 -20.82,11.1 -20.82,22.24 0,11.14 9.75,22.16 20.82,22.16 H 39.44 V 73.57 C 31.76,71.46 26.74,63.3 26.74,52.49 c 0,-9.5 7.35,-15.69 16.7,-15.82 h 14.75 v 37.12 h 21 V 39.9 A 10.89,10.89 0 0 0 78.7,36.69 h 26.8 v 37.1 h 21 V 55.46 c 1.89,9.72 10.63,18.33 20.41,18.33 h 48.74 v -7.26 h -31.5 C 156.28,66.4 149.63,62.32 147.88,55.24 h 47.05 c 1.79,9.81 10.59,18.56 20.46,18.56 h 44.14 a 10.52,10.52 0 0 0 10.2,-8.12 v 8.11 h 20.95 V 55.23 h 33.24 c -0.77,9.42 -5.56,16.38 -12.54,18.3 v 0.26 h 13.85 c 11.06,0 20.8,-11 20.8,-22.16 0,-11.16 -9.74,-22.24 -20.8,-22.24"
             transform="translate(-4.76,-29.39)"
             style="stroke:none;stroke-opacity:1" />
        </g>
      </g>
    </g>
  </g>
  <metadata
     id="metadata1248">
    <rdf:RDF>
      <cc:Work
         rdf:about="">
        <dc:title>Mega</dc:title>
      </cc:Work>
    </rdf:RDF>
  </metadata>
</svg>
