<svg id="Layer_10" data-name="Layer 1" xmlns="http://www.w3.org/2000/svg" viewBox="0 0 472.48 157.25">                               <defs>                                 <style>                                   .cls-1 {                                     fill: #ff177a;                                   }                                 </style><style class="darkreader darkreader--sync" media="screen"/>                               </defs>                               <path class="cls-1" d="m17.09,133.58h8.66v23.31h-4.5v-22.08l-4.16,22.08h-8.43l-4.16-22.25v22.25H0v-23.31h8.79l4.13,22.08,4.16-22.08Zm46.46,0l7.86,23.31h-5.09l-1.67-5.06h-10.96l-1.63,5.06h-4.83l7.86-23.31h8.46Zm-.27,14.02l-4.09-12.62-4.13,12.62h8.23Zm49.03-14.02h-5.93l-8.73,9.96v-9.96h-4.76v23.31h4.76v-6.73l3.03-3.43,7.03,10.16h5.73l-9.53-13.82,8.39-9.49Zm22.61,23.31h15.52v-4.23h-10.76v-5.33h10.42v-4.2h-10.42v-5.33h10.76v-4.23h-15.52v23.31Zm53.32-23.31l7.86,23.31h-24.18l7.86-23.31h8.46Zm1.3,18.82l-5.66-17.42-5.66,17.42h11.32Zm52.56-7.16c0,6.76-5.33,11.99-12.26,11.99s-12.26-5.23-12.26-11.99,5.33-11.99,12.26-11.99,12.26,5.23,12.26,11.99Zm-4.93,0c0-4.3-3.16-7.63-7.33-7.63s-7.33,3.33-7.33,7.63,3.2,7.63,7.33,7.63,7.33-3.33,7.33-7.63Zm42.5,10.62l-6.86-22.28h-9.23v23.31h4.76v-22.28l6.83,22.28h9.26v-23.31h-4.76v22.28Zm26.24,1.03h4.76v-23.31h-4.76v23.31Zm42.56-23.31l7.86,23.31h-5.1l-1.67-5.06h-10.96l-1.63,5.06h-4.83l7.86-23.31h8.46Zm-.27,14.02l-4.1-12.62-4.13,12.62h8.23Zm-118.95-63.51l-13.43,22.81h23.3v13.19h28.66V0h-4.42s-33.23,0-33.23,0l-37.64,63.91v56.17h.16l46.48-78.92v42.93h-9.87Zm-50.02,35.99V0h0,0s-33.23,0-33.23,0l-42.06,71.42V0h-28.66s-4.58,0-4.58,0L0,120.08h33.23l42.06-71.42v71.42h0s33.23,0,33.23,0l42.06-71.42v71.42h28.66ZM351.91,0h-33.23l-37.64,63.91v56.17h.16l20.95-35.58,20.95,35.57h33.23l-37.57-63.79L351.91,0Zm120.54,66.01h-14.96l-20.93,35.54v-35.54h-66.97v12.9h20.58v41.17h12.9v-41.17h20.58v41.17h12.9s4.05,0,4.05,0l31.84-54.07Z"/>                             </svg>