<?xml version="1.0" encoding="UTF-8"?> <svg xmlns="http://www.w3.org/2000/svg" version="1.1" viewBox="0 0 93 25.6"><g><g><g><g><path d="M27.8,0c-4.4,0-8,2.5-8,5.7s3.6,5.7,8,5.7,8-2.5,8-5.7S32.2,0,27.8,0M32,5.7c0,1.6-1.9,2.9-4.2,2.9s-4.2-1.3-4.2-2.9,1.9-2.9,4.2-2.9,4.2,1.3,4.2,2.9"></path><path d="M17.7.4l-.2,9.2c0,.9-.7,1.4-2.2,1.4s-.4,0-.7,0c-.2,0-.5,0-.7-.2h-.1c-.5-.2-1-.5-1.5-.9l-6.4-5.2c-.7-.5-1.4-.5-1.4,0v5.2c0,.6-.3,1-1,1H0L.2,1.6C.2.7.9.3,2.4.3s2.8.4,3.9,1.3l6.6,5.2c.2,0,.3-.2.3-.4V1.3c-.1-.7.4-1.1,1.2-1.1h3.3v.2Z"></path><path d="M53.5.5l-6.1,9.2c-.6.9-1.6,1.3-3.1,1.3s-2.5-.4-3.1-1.3L35.1.5h3.5c.8,0,1.5.4,1.8,1l3.1,5.1c.3.5,1.1.5,1.4,0l3.1-5.1c.4-.7,1.2-1.1,2-1.1h3.5ZM62.5,1.6c-.6-.9-1.6-1.3-3.1-1.3s-2.5.4-3.1,1.3l-6.1,9.2h3.5c.7,0,1.4-.4,1.8-1l3.2-5.2c.3-.5,1.1-.5,1.4,0l1.1,1.8h-1.6c-.4,0-.7.2-.9.5l-1.3,2.1h5.4l.5.8c.4.6,1.1,1,1.9,1h3.5l-6.2-9.2Z"></path></g><path d="M77.8,25.6H2.2c-1.1,0-2-.9-2-2v-10.8h67.9c1.1,0,2.2.6,2.8,1.5l6.9,11.3Z" fill="#fa0a32"></path><g><path d="M9.2,21.3c.6.7,1.6,1.3,2.9,1.3s1.8-.6,1.8-1.3-1-1.1-2.1-1.4c-1.5-.4-3.3-.8-3.3-2.8s1.3-2.7,3.4-2.7,2.6.5,3.4,1.3l-.8,1.3c-.7-.7-1.7-1-2.7-1s-1.6.5-1.6,1.1.9,1,2,1.2c1.5.4,3.3.9,3.3,2.9s-1.1,2.8-3.6,2.8-2.9-.6-3.7-1.5l1-1.2Z" fill="#fff"></path><path d="M17.6,14.6h4c1.9,0,3,1.3,3,2.9s-1.1,2.9-3,2.9h-2.4v3.4h-1.6v-9.2ZM21.5,16h-2.2v2.9h2.2c.9,0,1.6-.6,1.6-1.5-.1-.8-.7-1.4-1.6-1.4Z" fill="#fff"></path><path d="M30.3,14.5c2.8,0,4.7,2,4.7,4.8s-1.9,4.8-4.7,4.8-4.7-2-4.7-4.8c0-2.8,2-4.8,4.7-4.8ZM30.3,15.9c-1.9,0-3,1.4-3,3.3s1.2,3.3,3,3.3,3-1.4,3-3.3c.1-1.9-1.1-3.3-3-3.3Z" fill="#fff"></path><path d="M39.8,20.4h-1.6v3.4h-1.6v-9.2h4c1.8,0,3,1.2,3,2.9s-1.1,2.5-2.2,2.7l2.2,3.6h-1.9l-1.9-3.4ZM40.4,16h-2.2v2.9h2.2c.9,0,1.6-.6,1.6-1.5s-.7-1.4-1.6-1.4Z" fill="#fff"></path><path d="M47.7,16h-2.8v-1.4h7.2v1.4h-2.8v7.8h-1.6s0-7.8,0-7.8Z" fill="#fff"></path><path d="M53.9,21.3c.6.7,1.6,1.3,2.9,1.3s1.8-.6,1.8-1.3-1-1.1-2.1-1.4c-1.5-.4-3.3-.8-3.3-2.8s1.3-2.7,3.4-2.7,2.6.5,3.4,1.3l-.9,1.2c-.7-.7-1.7-1-2.7-1s-1.6.5-1.6,1.1.9,1,2,1.2c1.5.4,3.3.9,3.3,2.9s-1.1,2.8-3.6,2.8-2.9-.6-3.7-1.5l1.1-1.1Z" fill="#fff"></path></g><path d="M79.2,2.2c1,.4,1.6,1,1.7,1.1,0-.3-.2-1.5-.4-2.2.6.4,1.9,1.3,2.3,1.6.2-.5.8-2.3.8-2.3,0,0,1.1,1.8,1.3,2.1.2-.2,1.5-1.7,1.9-2.1,0,.8,0,2,.2,2.2,0,0,.6-.8,1.4-1.4-.4.7-.5,1.7-.6,2.5-.8-.2-1.7-.4-2.6-.4-1.7,0-3.4.5-4.8,1.3-.3-.8-.7-1.8-1.2-2.4ZM92.4,17.3l-.8-.8c-.2,2.3-1.3,4.2-3.4,5.6l-.2-1.3c-1.7,1.3-4.7,2.1-7.3.6.3-1.6.6-3.3,0-5.3-1.4,2.2-2.7,3.1-2.7,3.1-1-1.6-.9-4.9-.6-5.8l-1.6.5c0-1.1.8-3.4,1.9-4.7l-1-.2h0c.7-1.4,1.7-2.6,2.9-3.5h0c-.4.6-.4,2,.7,2.6-.5-.8-.5-1.8,0-2.3s1.3-.3,1.8,0c-.2-.5-.6-1-1.3-1.1h0c1.3-.7,2.7-1,4.3-1h.9c.4.2,1.1.8,1.4,1.2,0,0,0-.5-.2-1,1.7.4,2.5,1.1,2.8,1.4,0,.7.3,1.2.6,1.8-.5-.6-1.9-1.6-2.5-1.8,0,0,0,.6-.3.9-1.3-.9-1.9-1.2-1.9-1.2-1.4.2-2.3.7-2.8,1.2l.4.4c-.9.3-1.4,1-1.4,1h.8c0,0,0,1,1,1.5,1,.5,2.3,0,3.6.4-.8-1-1.4-1.4-1.4-1.4,0,0-.3,0-.6,0s-.7,0-1.2,0c-.2,0-.5-.3-.7-.4,0,0,.6-.6,1.5-.7,0,0,.8.2,1.4.7.4-.4.8-.4.8-.4,0,0-.4.4-.3.9.6.6,1.3,1.3,1.3,1.3.7-.4,2.2-.3,2.5,0-.4-.5-.9-.9-1.4-1.3,0-.2-.5-.8-.6-.9,0,0,.5,0,.9.5,0-.2.3-.3.6-.4.3.3.4.6.3.7,0,.2-.3.2-.3.2l.7.8v-.6c1.7,2.6,2.6,5.4,1.4,8.8ZM89.3,12.2v-1.2s-.6-.2-1.1-.6c-1.2.2-2.6,1.4-2.6,1.4,0,0,.5.9,1,1.9.8,0,2.2-1.2,2.7-1.5ZM90.5,14.4s0-.5-.5-1h-.9s-1.2,1.1-2,1.1c0,0,.4.8.6,1.2.4,0,1.2-.4,1.5-.8,0,0,.2.6.2,1.4.3-.2.8-.8,1.1-1.9ZM90.8,10.4c-.5.4-.9.6-.9.6v1.2c.3.4.7.7.9,1.2.5-.8.5-2,0-3Z"></path></g></g></g></svg> 