<?xml version="1.0" encoding="UTF-8"?> <svg xmlns="http://www.w3.org/2000/svg" version="1.1" viewBox="0 0 92.9 35"><g><g><g><g><path d="M58.8,17.7h32c1.2,0,2.1,1,2.1,2.1v15.2h-20.6c-1.1,0-2.2-.6-2.8-1.5l-10.7-15.8Z" fill="#fa0a32"></path><path d="M0,17.7h54.4c1.1,0,2.2.6,2.8,1.5l10.5,15.8H2.3c-1.2,0-2.1-1-2.1-2.1v-15.2h-.1Z" fill="#fa0a32"></path></g><path d="M79.9,23.8l-1.9,1.9-1.4-1.4,3.6-3.6h2.1v11.4h-2.4s0-8.3,0-8.3Z" fill="#fff"></path><g><path d="M37.6,0c-6,0-10.8,3.4-10.8,7.7s4.9,7.7,10.8,7.7,10.8-3.4,10.8-7.7c.1-4.3-4.9-7.7-10.8-7.7M43.3,7.7c0,2.1-2.5,3.9-5.7,3.9s-5.7-1.7-5.7-3.9,2.5-3.9,5.7-3.9,5.7,1.7,5.7,3.9"></path><path d="M24,.5l-.2,12.5c0,1.2-1,1.9-3,1.9s-.6,0-.9,0c-.3,0-.6,0-1-.2h-.1c-.7-.2-1.4-.6-2.1-1.2L8,6.4c-.9-.7-1.9-.7-1.9,0l.2,7.1c0,.8-.6,1.3-1.5,1.3H0L.2,2.3C.2,1.1,1.2.5,3.2.5s3.8.6,5.3,1.8l8.9,7.1c.2,0,.4-.2.4-.5l-.2-6.8c0-.9.6-1.5,1.7-1.5h4.7Z"></path><path d="M72.4.7l-8.3,12.5c-.8,1.2-2.1,1.8-4.2,1.8s-3.5-.6-4.2-1.8L47.5.7h4.7c1,0,2,.5,2.5,1.4l4.2,6.9c.4.7,1.5.7,2,0l4.2-6.8c.6-.9,1.6-1.5,2.7-1.5,0,0,4.6,0,4.6,0ZM84.6,2.2c-.7-1.1-2.1-1.7-4.2-1.7s-3.4.6-4.2,1.8l-8.3,12.5h4.8c1,0,1.9-.5,2.4-1.3l4.4-7.1c.4-.7,1.5-.7,1.9,0l1.4,2.4h-2.1c-.5,0-.9.3-1.2.7l-1.8,2.9h7.3l.6,1c.5.9,1.5,1.4,2.5,1.4h4.7l-8.2-12.6Z"></path></g><g><path d="M4.9,28.5c.6.7,1.6,1.3,2.9,1.3s1.8-.6,1.8-1.2-1-1.1-2.1-1.4c-1.5-.4-3.2-.8-3.2-2.7s1.3-2.7,3.3-2.7,2.6.5,3.4,1.3l-.9,1.2c-.7-.7-1.7-1-2.6-1s-1.5.5-1.5,1.1.9.9,2,1.2c1.5.4,3.3.8,3.3,2.8s-1.1,2.8-3.5,2.8-2.9-.6-3.7-1.4l.8-1.3Z" fill="#fff"></path><path d="M13.3,21.9h4c1.9,0,3,1.3,3,2.9s-1.1,2.9-3,2.9h-2.4v3.4h-1.6v-9.2ZM17.1,23.4h-2.2v2.9h2.2c.9,0,1.6-.6,1.6-1.4-.1-1-.7-1.5-1.6-1.5Z" fill="#fff"></path><path d="M25.8,21.8c2.7,0,4.7,2,4.7,4.7s-1.9,4.7-4.7,4.7-4.7-2-4.7-4.7c.2-2.7,2-4.7,4.7-4.7ZM25.8,23.2c-1.8,0-3,1.4-3,3.3s1.2,3.3,3,3.3,3-1.4,3-3.3-1.1-3.3-3-3.3Z" fill="#fff"></path><path d="M35.3,27.6h-1.6v3.4h-1.6v-9.1h4c1.8,0,3,1.2,3,2.9s-1.1,2.5-2.2,2.7l2.2,3.6h-1.8l-2-3.5ZM35.8,23.4h-2.2v2.9h2.2c.9,0,1.6-.6,1.6-1.4.1-1-.7-1.5-1.6-1.5Z" fill="#fff"></path><path d="M43,23.4h-2.8v-1.4h7.1v1.4h-2.8v7.7h-1.6v-7.7h0Z" fill="#fff"></path><path d="M49.1,28.5c.6.7,1.6,1.3,2.9,1.3s1.8-.6,1.8-1.2-1-1.1-2.1-1.4c-1.4-.4-3.2-.8-3.2-2.7s1.3-2.7,3.3-2.7,2.6.5,3.4,1.3l-.9,1.2c-.7-.7-1.7-1-2.6-1s-1.5.5-1.5,1.1.9.9,2,1.2c1.5.4,3.3.8,3.3,2.8s-1.1,2.8-3.5,2.8-2.9-.6-3.7-1.4l.8-1.3Z" fill="#fff"></path></g></g></g></g></svg> 