<svg xmlns:xlink="http://www.w3.org/1999/xlink" xmlns="http://www.w3.org/2000/svg" viewBox="0 0 110.37 34.96" width="126" height="48">
                        <rect x="96.93" y="1.9" width="5.14" height="33.03" fill="#2672FF"></rect>
                        <rect x="88.64" y="1.9" width="5.15" height="5.19" fill="#2672FF"></rect>
                        <rect x="105.23" y="1.9" width="5.14" height="5.19" fill="#2672FF"></rect>
                        <polygon points="12.54 18.46 0.01 34.96 24.05 34.96 24.05 29.82 10.38 29.82 19 18.46 10.37 7.1 24.05 7.1 24.05 1.96 0 1.96 12.54 18.46" fill="#2672FF"></polygon>
                        <path d="M54.1,35h5.78l2.86-5.58H81.17L84,35h5.77L71.95,0ZM78.54,24.23H65.35l6.6-12.92Z" fill="#2672FF"></path>
                        <polygon points="43.12 1.9 31.84 17.95 31.47 18.45 42.81 34.6 43.07 34.96 49.35 34.96 37.76 18.46 49.41 1.9 43.12 1.9" fill="#2672FF"></polygon>
                    </svg>