<?xml version="1.0" standalone="no"?>
<!DOCTYPE svg PUBLIC "-//W3C//DTD SVG 20010904//EN"
 "http://www.w3.org/TR/2001/REC-SVG-20010904/DTD/svg10.dtd">
<svg version="1.0" xmlns="http://www.w3.org/2000/svg"
 width="1280.000000pt" height="340.000000pt" viewBox="0 0 1280.000000 340.000000"
 preserveAspectRatio="xMidYMid meet">

<g transform="translate(0.000000,340.000000) scale(0.100000,-0.100000)"
fill="#000000" stroke="none">
<path d="M1505 3289 c-192 -20 -360 -70 -540 -159 -650 -324 -992 -1064 -816
-1764 74 -292 201 -517 411 -726 180 -180 363 -296 589 -374 192 -67 279 -80
516 -80 231 0 313 12 498 74 494 166 881 583 1008 1088 41 161 53 280 46 457
-9 239 -63 444 -172 653 -77 148 -154 251 -285 382 -113 114 -225 198 -362
274 l-67 37 -71 -25 c-135 -47 -279 -165 -350 -289 -45 -77 -80 -197 -80 -272
l0 -63 73 -22 c231 -70 410 -196 506 -355 90 -149 131 -376 100 -551 -47 -267
-210 -495 -438 -613 -335 -173 -719 -111 -992 159 -137 137 -223 297 -264 496
-19 92 -22 286 -6 385 48 294 228 610 455 797 264 218 581 346 890 359 153 6
153 8 21 54 -215 74 -447 101 -670 78z"/>
<path d="M8965 2689 c-114 -17 -197 -75 -246 -170 -26 -52 -49 -158 -49 -231
l0 -58 -75 0 -75 0 0 -115 0 -115 75 0 75 0 0 -455 0 -455 145 0 145 0 0 455
0 455 120 0 120 0 0 115 0 115 -120 0 -120 0 0 50 c0 111 49 160 161 160 37 0
85 -7 108 -15 31 -10 41 -11 41 -2 0 7 7 59 15 116 8 57 13 107 10 111 -7 12
-132 38 -205 44 -36 2 -92 0 -125 -5z"/>
<path d="M6960 2449 l0 -222 -37 7 c-205 37 -321 23 -445 -57 -165 -105 -251
-286 -250 -522 1 -255 109 -458 288 -546 65 -32 74 -34 179 -34 96 0 116 3
159 24 27 13 64 37 81 53 l33 28 6 -45 7 -45 130 0 129 0 0 790 0 790 -140 0
-140 0 0 -221z m-27 -458 l27 -11 0 -284 0 -284 -39 -35 c-22 -20 -64 -43 -95
-53 -48 -15 -62 -16 -113 -5 -141 31 -231 216 -202 415 22 157 108 256 238
275 49 7 141 -2 184 -18z"/>
<path d="M5440 2250 c-218 -34 -375 -184 -436 -420 -20 -76 -23 -240 -5 -315
51 -222 192 -380 383 -431 70 -18 219 -18 293 1 140 37 255 135 323 275 167
344 26 763 -294 868 -71 24 -189 33 -264 22z m195 -262 c110 -59 171 -224 146
-394 -26 -175 -117 -276 -250 -276 -155 0 -249 114 -259 312 -2 53 1 120 7
151 15 73 66 156 116 191 66 47 169 53 240 16z"/>
<path d="M7835 2249 c-102 -15 -229 -63 -297 -111 l-27 -19 45 -96 c25 -54 47
-99 49 -102 3 -2 13 3 23 12 9 9 49 31 87 49 59 28 83 33 155 36 67 2 93 -1
120 -15 48 -25 80 -76 80 -129 0 -49 15 -43 -159 -65 -237 -29 -381 -104 -449
-234 -24 -44 -27 -61 -27 -150 0 -91 3 -105 29 -158 61 -120 172 -188 317
-195 104 -5 174 13 249 63 29 19 53 35 55 35 1 0 5 -18 9 -40 l6 -40 130 0
130 0 0 408 c0 330 -3 419 -15 465 -38 147 -123 237 -255 272 -71 19 -184 25
-255 14z m243 -742 l3 -117 -48 -30 c-57 -36 -102 -50 -166 -50 -91 0 -146 40
-154 113 -6 51 21 114 60 140 33 21 118 45 202 56 108 13 100 22 103 -112z"/>
<path d="M9725 2250 c-282 -39 -468 -294 -452 -620 9 -175 61 -304 167 -410
108 -108 212 -150 375 -150 106 0 170 15 254 61 90 47 163 125 211 223 55 111
71 181 71 307 2 384 -268 638 -626 589z m220 -278 c80 -56 125 -166 125 -308
0 -208 -102 -346 -257 -346 -103 0 -166 41 -213 136 -94 192 -43 456 104 534
71 37 174 31 241 -16z"/>
<path d="M11084 2250 c-75 -11 -144 -36 -205 -75 l-54 -34 -9 44 -9 45 -129 0
-128 0 0 -570 0 -570 140 0 140 0 0 404 0 405 43 34 c69 56 121 78 188 78 86
1 135 -29 174 -105 l30 -60 3 -378 3 -378 145 0 145 0 -4 413 c-4 438 -5 451
-57 559 -26 55 -89 122 -140 148 -71 36 -186 53 -276 40z"/>
<path d="M12194 2250 c-121 -18 -236 -78 -310 -163 -156 -177 -188 -504 -74
-735 94 -189 255 -281 491 -282 163 0 328 42 417 106 2 1 -13 54 -33 117 l-37
114 -67 -34 c-159 -81 -350 -80 -459 4 -38 29 -77 105 -88 171 l-7 42 373 0
373 0 -6 108 c-9 134 -28 217 -73 309 -39 78 -113 157 -180 191 -87 45 -223
67 -320 52z m121 -231 c22 -6 55 -22 74 -36 35 -27 78 -108 83 -158 l3 -30
-217 -3 -218 -2 0 28 c0 48 48 129 94 161 67 47 117 58 181 40z"/>
<path d="M3778 2187 c9 -24 116 -280 237 -570 l220 -526 126 -1 126 0 218 538
c120 295 225 552 232 570 l13 33 -147 -3 -147 -3 -137 -360 c-76 -198 -141
-367 -147 -375 -8 -13 -80 159 -273 658 l-32 82 -153 0 -154 0 18 -43z"/>
</g>
</svg>
