<svg version="1.1" id="Layer_1" xmlns="http://www.w3.org/2000/svg" xmlns:xlink="http://www.w3.org/1999/xlink" x="0px" y="0px"
	 width="100%" viewBox="0 0 1566 511" enable-background="new 0 0 1566 511" xml:space="preserve">
<path fill="#4C0065" opacity="1.000000" stroke="none" 
	d="
M1468.000000,512.000000 
	C978.725403,512.000000 489.950806,512.000000 1.088109,512.000000 
	C1.088109,341.745911 1.088109,171.491776 1.088109,1.118811 
	C523.000000,1.118811 1045.000000,1.118811 1566.993652,1.118811 
	C1566.993652,171.382767 1566.993652,341.691376 1566.990479,512.000000 
	C1534.158203,512.000000 1501.329102,512.000000 1468.000000,512.000000 
M959.116943,443.723389 
	C958.713440,444.163940 957.962219,444.601532 957.958435,445.045532 
	C957.895508,452.342102 957.908813,459.639648 957.982239,466.936218 
	C957.986572,467.362427 958.647766,467.782013 960.057190,469.457764 
	C960.057190,459.997101 960.057190,451.992798 960.305664,443.935730 
	C960.209778,443.930847 960.113831,443.925964 959.116943,443.723389 
M1075.986450,443.790527 
	C1075.742188,443.847229 1075.497925,443.903961 1074.505615,444.613739 
	C1074.610352,452.419891 1074.714966,460.226044 1074.819702,468.032227 
	C1075.547363,468.026337 1076.275024,468.020477 1077.002686,468.014587 
	C1077.002686,466.009705 1076.888428,463.996918 1077.025879,462.001495 
	C1077.340088,457.438080 1077.777588,452.883148 1078.796631,447.955383 
	C1081.625366,447.119812 1085.050903,444.920288 1087.118408,445.824738 
	C1089.271851,446.766663 1090.842896,450.570587 1091.354492,453.363831 
	C1092.062500,457.229523 1091.478760,461.322021 1091.592529,465.313293 
	C1091.620605,466.298798 1092.205811,467.268433 1092.534912,468.245361 
	C1092.941650,468.148834 1093.348511,468.052307 1093.755249,467.955780 
	C1093.755249,462.063507 1094.391724,456.068970 1093.468872,450.325012 
	C1093.049194,447.712738 1089.961670,444.681793 1087.334717,443.481445 
	C1083.886963,441.906036 1080.184204,443.221954 1077.208130,446.678711 
	C1076.796753,445.806702 1076.385376,444.934692 1075.986450,443.790527 
M1162.038452,448.217194 
	C1162.038452,448.217194 1161.993408,447.973663 1162.586304,447.586243 
	C1165.155640,446.808655 1167.885132,445.074768 1170.257690,445.472168 
	C1174.046387,446.106720 1174.919800,449.745605 1174.952637,453.271088 
	C1174.999023,458.230835 1174.964355,463.191406 1174.964355,468.151611 
	C1175.511963,468.191589 1176.059570,468.231567 1176.607178,468.271545 
	C1176.890747,467.340271 1177.400146,466.413605 1177.419189,465.476959 
	C1177.503784,461.326752 1177.604736,457.166260 1177.410522,453.023102 
	C1176.968018,443.587921 1170.504517,440.362457 1162.352905,445.324005 
	C1161.800659,445.660126 1160.768433,445.207794 1160.027344,444.415863 
	C1159.348389,445.028656 1158.096191,445.626617 1158.079834,446.256653 
	C1157.928833,452.082214 1157.970093,457.913452 1158.006226,463.742737 
	C1158.015259,465.210327 1158.206177,466.676788 1158.313599,468.143738 
	C1158.796997,468.135132 1159.280518,468.126526 1159.763916,468.117889 
	C1160.337646,461.707825 1160.911377,455.297729 1161.811768,448.719360 
	C1161.811768,448.719360 1161.830811,448.352295 1162.038452,448.217194 
M1430.041382,448.215576 
	C1430.041382,448.215576 1429.994141,447.976410 1430.585571,447.586548 
	C1433.450684,446.943298 1436.988770,444.988373 1438.995483,446.018097 
	C1441.088257,447.091766 1442.441650,450.947876 1442.801514,453.756256 
	C1443.405640,458.471527 1442.966919,463.320435 1442.966919,468.113098 
	C1443.772461,468.144531 1444.578003,468.175934 1445.383545,468.207336 
	C1445.409180,464.832458 1445.457275,461.457611 1445.456543,458.082764 
	C1445.453247,442.780457 1441.071777,439.900665 1428.121948,445.889221 
	C1427.788818,445.117615 1427.455811,444.346008 1427.122803,443.574432 
	C1426.934204,443.693665 1426.745483,443.812927 1426.556885,443.932190 
	C1426.556885,451.978729 1426.556885,460.025238 1426.556885,468.071777 
	C1426.959473,468.085022 1427.362183,468.098267 1427.764771,468.111511 
	C1428.340332,461.705841 1428.915894,455.300171 1429.818359,448.718475 
	C1429.818359,448.718475 1429.836548,448.347717 1430.041382,448.215576 
M791.751953,409.369537 
	C792.663452,408.962250 793.580017,408.565826 794.485718,408.145966 
	C803.795593,403.830597 808.711609,397.338531 808.329712,386.274811 
	C807.651794,366.637421 808.039490,346.959076 808.194519,327.299530 
	C808.243835,321.045746 805.709534,316.458435 800.867615,312.825653 
	C792.676331,306.679962 783.291260,304.260010 773.258423,304.225006 
	C747.266541,304.134277 721.274109,304.196716 695.281921,304.198029 
	C693.487793,304.198120 691.693665,304.198029 689.401733,304.198029 
	C689.401733,301.930481 689.401794,300.147797 689.401794,298.365112 
	C689.402039,280.370514 689.410095,262.375916 689.398071,244.381302 
	C689.394043,238.445740 688.456360,237.356659 682.531372,237.237350 
	C675.369751,237.093140 668.202637,237.153397 661.038635,237.212341 
	C654.050171,237.269836 652.999756,238.374329 652.999512,245.321320 
	C652.997986,298.305450 652.998596,351.289581 652.998718,404.273712 
	C652.998779,412.614716 653.654968,413.389191 662.012695,413.367523 
	C675.169678,413.333374 688.326111,413.054382 701.483093,413.018585 
	C724.309387,412.956512 747.140503,413.253326 769.959900,412.850616 
	C777.009094,412.726196 784.026794,410.818298 791.751953,409.369537 
M893.940674,319.757782 
	C893.495300,322.513519 892.678894,325.267212 892.663696,328.025330 
	C892.551758,348.346619 892.809387,368.672089 892.488953,388.988983 
	C892.369446,396.568512 895.588562,401.646576 901.566101,405.559845 
	C910.241760,411.239502 919.938354,412.996094 930.087219,412.998657 
	C960.903198,413.006470 991.719238,413.001862 1022.535217,413.001526 
	C1035.003174,413.001373 1035.003296,413.000702 1035.001831,400.623444 
	C1035.000732,391.852112 1034.171875,391.006989 1025.280029,391.003326 
	C995.963196,390.991241 966.646423,391.000793 937.329590,390.992493 
	C935.666077,390.992035 933.723328,391.429565 932.409058,390.728638 
	C930.733093,389.834778 928.598206,388.127380 928.368347,386.525604 
	C927.792236,382.511932 928.178101,378.360138 928.178101,374.001373 
	C930.596191,374.001373 932.409851,374.001373 934.223511,374.001373 
	C956.044556,374.001434 977.865784,374.050049 999.686584,373.979828 
	C1009.687622,373.947662 1019.154724,371.813385 1027.511719,365.976379 
	C1033.052856,362.106140 1036.155640,357.086517 1035.871216,349.997711 
	C1035.564209,342.347656 1035.715454,334.674438 1035.833984,327.013916 
	C1035.908325,322.208008 1034.207153,318.292236 1030.791504,314.999420 
	C1022.466919,306.974243 1012.010376,304.423035 1001.021973,304.290924 
	C976.372742,303.994476 951.712341,303.898499 927.066772,304.319763 
	C914.288696,304.538239 902.280823,307.685059 893.940674,319.757782 
M1210.595825,403.934540 
	C1219.795532,410.870911 1230.392700,413.008026 1241.625977,413.004761 
	C1273.113159,412.995544 1304.600464,413.006165 1336.087646,412.990051 
	C1337.915527,412.989105 1339.760010,412.944519 1341.567383,412.701202 
	C1344.578979,412.295807 1346.363281,410.828674 1346.180054,407.404358 
	C1345.984375,403.749695 1345.991943,400.068878 1346.180908,396.413452 
	C1346.345581,393.228485 1344.704712,391.782379 1341.910400,391.362793 
	C1339.946289,391.067902 1337.932007,391.014252 1335.939941,391.012695 
	C1308.950928,390.991577 1281.961914,390.999298 1254.972900,390.998047 
	C1237.645264,390.997284 1239.814575,392.361084 1239.895630,375.213104 
	C1239.896851,374.938080 1240.162109,374.664307 1240.505371,374.001617 
	C1241.931396,374.001617 1243.562500,374.001587 1245.193481,374.001617 
	C1267.017944,374.001709 1288.842529,374.033508 1310.666870,373.987976 
	C1321.034180,373.966370 1330.824951,371.810760 1339.393066,365.586853 
	C1344.559692,361.833740 1347.452759,357.035065 1347.203247,350.343964 
	C1346.917847,342.691071 1347.002686,335.016266 1347.178101,327.356750 
	C1347.320923,321.123993 1344.615845,316.553558 1339.836060,312.883759 
	C1331.528320,306.505310 1321.858521,304.331451 1311.723389,304.254761 
	C1287.567993,304.071991 1263.409546,304.098877 1239.253540,304.241364 
	C1229.622681,304.298218 1220.427124,306.370728 1212.367798,312.064789 
	C1206.713867,316.059448 1203.670166,321.163971 1203.766846,328.460083 
	C1204.036011,348.781586 1203.947754,369.109589 1203.806030,389.433655 
	C1203.765869,395.200684 1205.678589,399.805145 1210.595825,403.934540 
M587.500061,305.196106 
	C576.337463,305.196442 565.174500,305.140137 554.012512,305.220978 
	C548.418518,305.261475 547.235352,306.534180 547.199524,311.925385 
	C547.179626,314.924133 547.364990,317.935272 547.151733,320.918945 
	C546.893494,324.531708 548.737488,326.149323 551.967285,326.610931 
	C553.439941,326.821381 554.953003,326.795044 556.447876,326.796539 
	C571.109192,326.811249 585.770569,326.777618 600.431641,326.838226 
	C603.408325,326.850494 607.006470,326.674408 607.429321,330.730621 
	C607.867981,334.938446 607.527039,339.227570 607.527039,343.861786 
	C605.056213,343.861786 603.248230,343.859283 601.440186,343.862213 
	C578.616394,343.899261 555.791443,343.819885 532.969299,344.034546 
	C524.316040,344.115936 516.297668,346.761719 509.143524,351.796509 
	C503.749878,355.592377 500.691101,360.450684 500.937744,367.337769 
	C501.199951,374.659058 501.205261,382.004608 500.936279,389.325378 
	C500.683807,396.197388 503.692932,401.106079 509.033417,404.953156 
	C517.355103,410.947754 526.901306,412.899994 536.861938,412.958038 
	C560.352539,413.094971 583.844910,413.085144 607.335693,412.964294 
	C617.663757,412.911163 627.489563,410.809662 635.936890,404.321533 
	C640.709473,400.655823 643.260376,396.084229 643.207703,389.820465 
	C643.035278,369.329437 642.989441,348.834259 643.228699,328.344543 
	C643.307312,321.611206 640.656311,316.591492 635.269653,313.249664 
	C631.087585,310.655121 626.470825,307.767548 621.778503,307.188354 
	C610.771423,305.829681 599.603149,305.777252 587.500061,305.196106 
M1083.141479,407.145264 
	C1083.140869,382.656036 1083.136841,358.166809 1083.142212,333.677582 
	C1083.143555,327.399445 1084.322510,326.169922 1090.770874,326.156647 
	C1110.762207,326.115509 1130.753540,326.118896 1150.744873,326.150940 
	C1157.217651,326.161316 1158.195801,327.204102 1158.197510,333.714539 
	C1158.203735,357.704132 1158.190430,381.693695 1158.203369,405.683289 
	C1158.206665,411.766388 1159.366089,413.023285 1165.465942,413.108673 
	C1172.961182,413.213623 1180.459106,413.109467 1187.955688,413.136719 
	C1192.445679,413.153046 1194.502441,411.304169 1194.474976,406.488464 
	C1194.324951,380.167419 1194.323853,353.844666 1194.458008,327.523438 
	C1194.491943,320.870911 1191.677368,316.031250 1186.469238,312.348511 
	C1178.145874,306.463043 1168.631104,304.301788 1158.667114,304.245270 
	C1133.345459,304.101715 1108.022095,304.099457 1082.700684,304.250153 
	C1073.794312,304.303162 1065.180908,306.069183 1057.421387,310.821564 
	C1051.628052,314.369690 1047.068237,318.905823 1047.040894,326.186371 
	C1046.939453,353.174286 1047.035400,380.162872 1046.956543,407.150940 
	C1046.945557,410.909393 1048.600098,412.923950 1052.179932,412.980011 
	C1060.838257,413.115601 1069.501587,413.102539 1078.160034,412.969635 
	C1081.131104,412.924042 1083.298828,411.545044 1083.141479,407.145264 
M1359.032104,399.171295 
	C1365.918579,408.816345 1376.050537,412.477539 1387.136719,412.953033 
	C1402.930908,413.630432 1418.768555,413.324951 1434.587769,413.378998 
	C1442.747559,413.406860 1450.907837,413.312408 1459.067871,413.257568 
	C1463.185181,413.229889 1465.179932,411.320648 1464.839600,407.027344 
	C1464.629639,404.378723 1464.808716,401.699768 1464.802002,399.034454 
	C1464.785889,392.586304 1463.903687,391.661255 1457.221558,391.619385 
	C1447.726685,391.559906 1438.231079,391.603821 1428.735840,391.602875 
	C1419.407227,391.601929 1410.076538,391.715424 1400.750488,391.559814 
	C1394.081665,391.448486 1393.004028,390.178253 1393.001953,383.601166 
	C1392.997803,370.441071 1393.000610,357.280975 1393.000610,344.120880 
	C1393.000610,338.349121 1393.000610,332.577393 1393.000610,326.397980 
	C1395.180420,326.397980 1396.814697,326.397980 1398.448975,326.397980 
	C1416.106812,326.397980 1433.764771,326.398254 1451.422607,326.397888 
	C1464.813965,326.397583 1464.813965,326.397217 1464.803101,313.160370 
	C1464.796753,305.407135 1464.103516,304.637878 1456.278687,304.619324 
	C1437.121704,304.573883 1417.964478,304.602936 1398.807373,304.602020 
	C1397.014404,304.601959 1395.221436,304.602020 1393.000488,304.602020 
	C1393.000488,302.316223 1393.000488,300.523895 1393.000366,298.731598 
	C1393.000122,281.240326 1392.827026,263.746277 1393.106567,246.259506 
	C1393.189087,241.090942 1390.853882,239.290390 1386.368286,239.231415 
	C1378.706787,239.130661 1371.041626,239.120331 1363.380737,239.243362 
	C1358.846680,239.316162 1356.741333,241.310593 1356.759888,246.393021 
	C1356.933472,294.201843 1356.829956,342.011627 1356.940308,389.820862 
	C1356.947021,392.703033 1358.096802,395.582581 1359.032104,399.171295 
M389.001709,339.544128 
	C389.001526,338.544434 389.001343,337.544708 389.001129,336.545013 
	C388.998901,325.999939 388.998901,326.000946 399.566498,326.001221 
	C426.896332,326.001984 454.226196,326.001709 481.556030,326.002014 
	C495.415375,326.002167 495.415375,326.002350 495.401245,312.300232 
	C495.393707,305.026367 494.652039,304.212128 487.502411,304.207703 
	C454.173340,304.187042 420.844086,304.142090 387.515259,304.234741 
	C378.184570,304.260681 369.430542,306.646790 361.602905,311.942657 
	C355.801971,315.867310 352.888245,321.148865 352.944092,328.327728 
	C353.100952,348.490601 353.100189,368.656250 352.945282,388.819153 
	C352.889984,396.018555 355.888275,401.236542 361.683899,405.171875 
	C370.427399,411.108917 380.258453,412.983368 390.585419,412.994629 
	C411.582703,413.017487 432.580078,413.001923 453.577393,413.001648 
	C464.909271,413.001526 476.241791,413.071777 487.572815,412.973145 
	C494.514404,412.912720 495.397644,411.919098 495.404358,405.220123 
	C495.407043,402.553802 495.192963,399.867249 495.448517,397.225800 
	C495.848083,393.094940 493.782684,391.413971 490.040863,391.153168 
	C488.215210,391.025909 486.379303,391.004974 484.548035,391.004425 
	C455.051788,390.995697 425.555573,391.013000 396.059326,390.985352 
	C390.105774,390.979767 389.016022,389.861786 389.008057,384.025269 
	C388.988251,369.527161 389.001678,355.028961 389.001709,339.544128 
M852.137329,256.502258 
	C852.137756,252.504303 852.151794,248.506271 852.135437,244.508392 
	C852.111877,238.764420 850.962036,237.379654 845.245239,237.246384 
	C837.753052,237.071747 830.251892,237.096466 822.758240,237.235138 
	C816.913086,237.343307 815.868103,238.543808 815.867432,244.349854 
	C815.861755,292.658691 815.934998,340.967773 815.782471,389.276154 
	C815.761353,395.968750 818.257568,401.070312 823.619629,404.446259 
	C827.914673,407.150482 832.689392,410.374268 837.472717,410.784393 
	C852.669617,412.087372 867.967529,412.284882 883.232544,412.659393 
	C886.389221,412.736816 888.412292,410.844299 888.176392,407.170837 
	C887.973999,404.018768 888.152100,400.843292 888.131775,397.678375 
	C888.095398,392.007690 887.135742,390.954620 881.467224,390.886627 
	C874.305237,390.800720 867.140564,390.928925 859.978577,390.844330 
	C853.367432,390.766266 852.137573,389.461060 852.137268,382.937714 
	C852.135315,341.125580 852.137451,299.313416 852.137329,256.502258 
M306.937927,338.459595 
	C316.039398,327.564270 325.140869,316.668945 334.895020,304.992340 
	C329.443787,304.992340 325.125427,305.322693 320.882019,304.900299 
	C316.558380,304.469879 313.924225,306.194641 311.252380,309.417969 
	C289.679108,335.443848 267.930969,361.324677 246.245682,387.257751 
	C241.598953,392.814697 236.990952,398.404022 231.673950,404.811310 
	C237.588226,404.811310 242.362869,404.603577 247.108704,404.883911 
	C250.305466,405.072754 252.272247,403.879395 254.266647,401.475708 
	C271.596741,380.588928 289.056885,359.810028 306.937927,338.459595 
M247.442856,355.950256 
	C261.433167,339.187958 275.423492,322.425690 289.975128,304.990845 
	C284.547791,304.990845 280.199066,305.326660 275.927338,304.897064 
	C271.592499,304.461151 268.997101,306.231415 266.330658,309.442291 
	C241.250977,339.642395 216.010422,369.708923 190.827820,399.823639 
	C189.635666,401.249329 188.551788,402.765564 186.976074,404.813263 
	C193.063049,404.813263 198.074829,405.075653 203.035019,404.684265 
	C205.022583,404.527435 207.458084,403.411774 208.735596,401.917084 
	C221.595474,386.870789 234.256989,371.654968 247.442856,355.950256 
M180.307098,358.777435 
	C167.680756,373.869019 155.054428,388.960571 141.792664,404.811615 
	C147.848679,404.811615 152.653854,404.648041 157.440887,404.872192 
	C160.371643,405.009460 162.274200,404.083862 164.190567,401.782837 
	C190.383362,370.332886 216.692963,338.980255 242.953644,307.586761 
	C243.494751,306.939880 243.795044,306.091522 244.396637,304.991730 
	C238.530991,304.991730 233.199249,304.822235 227.890427,305.096588 
	C226.329849,305.177277 224.386734,306.137878 223.376251,307.334656 
	C209.101120,324.241241 194.956772,341.258240 180.307098,358.777435 
M1342.967529,455.530396 
	C1342.967529,463.146240 1342.967529,470.762085 1342.967529,478.377930 
	C1343.671265,478.401886 1344.375000,478.425842 1345.078735,478.449799 
	C1345.308105,474.291565 1345.537354,470.133331 1345.779663,465.739594 
	C1353.122070,469.823090 1358.853516,469.356293 1362.410767,464.762939 
	C1366.321899,459.712402 1366.110962,450.676331 1361.977905,446.225952 
	C1357.890991,441.825348 1352.596191,441.931244 1345.923828,446.573486 
	C1345.261597,445.562653 1344.595215,444.545563 1343.928955,443.528503 
	C1343.608521,443.618225 1343.287964,443.707947 1342.967529,443.797668 
	C1342.967529,447.381042 1342.967529,450.964386 1342.967529,455.530396 
M1371.702271,467.934692 
	C1372.431030,467.050049 1373.737061,466.197998 1373.789185,465.275269 
	C1374.023071,461.129364 1373.765747,456.957642 1373.943237,452.806213 
	C1374.135620,448.306091 1377.376953,445.123383 1381.466919,445.071442 
	C1385.472046,445.020599 1387.887695,447.710327 1388.062866,452.766998 
	C1388.212646,457.087158 1388.034302,461.418488 1388.173218,465.739349 
	C1388.201782,466.628601 1388.992432,467.493347 1389.431885,468.369385 
	C1390.433350,462.045654 1391.042114,456.057098 1390.273560,450.250885 
	C1389.385010,443.537323 1382.980835,441.049805 1377.020142,444.402954 
	C1376.099243,444.921051 1375.206543,445.489380 1374.123901,446.140839 
	C1373.264526,432.859131 1373.264526,432.859131 1371.199707,431.803558 
	C1371.199707,443.806244 1371.199707,455.555084 1371.702271,467.934692 
M1400.579224,446.006622 
	C1394.547241,454.068481 1395.938110,464.489655 1403.487427,467.795654 
	C1408.522461,470.000610 1414.560181,468.348572 1417.694824,463.908020 
	C1421.224487,458.907959 1420.730957,450.529816 1416.655029,446.259094 
	C1412.808960,442.228882 1407.202393,441.974152 1400.579224,446.006622 
M1336.862793,453.606476 
	C1336.227661,448.492310 1334.553711,444.031464 1328.739014,443.081116 
	C1324.417603,442.374847 1320.816650,444.088379 1318.520386,447.835571 
	C1315.747803,452.359833 1315.372559,457.268036 1317.344849,462.189545 
	C1320.040161,468.915131 1329.957642,471.189331 1334.772095,466.291901 
	C1321.456665,466.434143 1318.916138,464.803497 1319.150635,455.885834 
	C1323.279907,455.885834 1327.429688,456.025421 1331.562378,455.820435 
	C1333.336304,455.732422 1335.074829,454.928589 1336.862793,453.606476 
M859.115601,445.255493 
	C853.424683,441.733582 848.089233,442.461426 844.673035,447.225708 
	C840.487671,453.062714 841.212402,462.463654 846.150085,466.384094 
	C850.426331,469.779572 857.493042,469.697754 860.664001,466.216125 
	C847.188599,466.565399 845.078918,465.262177 844.702393,455.903076 
	C850.439148,455.903076 856.178528,455.903076 863.443359,455.903076 
	C861.950012,451.922913 860.799988,448.857727 859.115601,445.255493 
M1121.434082,467.316132 
	C1127.591309,469.634796 1131.194214,469.355621 1134.325439,466.317230 
	C1120.882202,466.247772 1117.874512,464.274994 1118.765015,455.666534 
	C1124.456299,455.666534 1130.195312,455.666534 1135.896729,455.666534 
	C1136.303223,448.049438 1133.489014,443.728790 1127.945801,443.008575 
	C1122.519043,442.303406 1117.319214,446.165894 1116.199219,452.203918 
	C1115.160156,457.804504 1115.524536,463.201630 1121.434082,467.316132 
M883.968872,444.107758 
	C877.242371,446.970093 875.936768,459.213196 880.304016,464.775665 
	C883.968506,469.443115 891.911560,470.279968 896.355225,466.413300 
	C882.279297,465.739594 880.109558,464.318939 880.650757,455.717834 
	C886.367493,455.717834 892.116821,455.717834 897.814026,455.717834 
	C898.593079,445.922028 893.377197,441.361206 883.968872,444.107758 
M1188.670288,444.951294 
	C1182.885010,450.643555 1182.077148,460.498657 1186.978882,465.585602 
	C1190.863037,469.616516 1198.443726,469.994385 1202.334595,466.350922 
	C1188.696411,466.074188 1185.964478,464.283417 1186.721558,455.685669 
	C1192.423828,455.685669 1198.167603,455.685669 1203.868042,455.685669 
	C1204.529785,445.149933 1198.483154,440.692596 1188.670288,444.951294 
M1469.359009,443.593658 
	C1468.520874,444.906677 1467.454834,446.128357 1466.884888,447.548981 
	C1464.739624,452.897858 1462.755737,458.311462 1460.545288,464.138885 
	C1457.166626,457.000732 1455.339600,449.626587 1450.666260,443.683563 
	C1451.631226,448.809967 1453.458008,453.527557 1455.332153,458.226257 
	C1459.691528,469.155762 1459.695679,469.146362 1450.926147,477.327332 
	C1450.678223,477.558533 1450.827026,478.215149 1450.754395,479.135773 
	C1455.295166,478.203430 1457.665039,475.102325 1459.269409,471.568848 
	C1462.692139,464.030457 1465.829224,456.359955 1468.959351,448.693054 
	C1469.589844,447.148621 1469.671387,445.380005 1469.359009,443.593658 
M1298.943848,446.712433 
	C1295.790527,442.830811 1291.864990,441.988281 1287.338501,443.890717 
	C1282.773682,445.809265 1280.122314,450.985901 1280.540161,457.216583 
	C1280.874512,462.200653 1282.697998,466.361938 1287.837402,468.052277 
	C1291.767700,469.344971 1295.665161,469.402496 1299.821411,466.346527 
	C1285.520386,466.199829 1283.168823,464.692871 1283.285156,455.859192 
	C1289.053345,455.859192 1294.834351,455.859192 1301.594238,455.859192 
	C1300.719604,452.633972 1300.011475,450.023346 1298.943848,446.712433 
M978.442627,442.956299 
	C976.989685,443.235870 975.462280,443.316956 974.096375,443.828766 
	C967.517029,446.293945 964.547729,454.684875 967.615601,461.889709 
	C970.280212,468.147766 977.232910,470.579681 983.389587,467.407288 
	C987.753479,465.158691 990.405273,459.753906 989.792542,454.356842 
	C989.052734,447.840973 986.129578,444.684509 978.442627,442.956299 
M1275.110107,445.426910 
	C1275.762817,445.196228 1276.415649,444.965515 1277.068359,444.734802 
	C1277.046509,444.475342 1277.024536,444.215851 1277.002686,443.956390 
	C1274.822632,443.692200 1272.642456,443.428009 1270.541016,443.173340 
	C1270.188965,441.461548 1269.887451,439.995209 1269.548340,438.346252 
	C1267.683960,440.845459 1266.099609,442.969147 1265.230713,444.133942 
	C1266.156738,446.252106 1267.545044,448.124207 1267.724487,450.105835 
	C1268.112549,454.391388 1267.656982,458.748779 1267.959839,463.047638 
	C1268.329468,468.293945 1272.408081,470.150940 1276.972656,466.800018 
	C1271.213379,467.587311 1269.914673,464.592621 1270.129395,460.039551 
	C1270.293457,456.558502 1270.379272,453.046112 1270.100342,449.579803 
	C1269.832153,446.243378 1271.046387,444.940704 1275.110107,445.426910 
M917.550964,457.136444 
	C919.270020,452.770996 920.989075,448.405548 922.708130,444.040100 
	C922.246094,443.836914 921.784058,443.633728 921.322021,443.430542 
	C916.826965,449.550110 915.993713,457.511444 911.972839,464.601746 
	C908.998840,457.081207 906.250366,450.130859 903.501892,443.180511 
	C902.834229,443.463959 902.166626,443.747437 901.498962,444.030884 
	C904.649902,452.202271 907.800842,460.373657 910.951782,468.545013 
	C911.590881,468.537567 912.229980,468.530121 912.869080,468.522675 
	C914.320862,464.958557 915.772644,461.394409 917.550964,457.136444 
M1102.889648,461.155212 
	C1104.178955,463.603790 1105.120728,466.369110 1106.925049,468.348328 
	C1107.668945,469.164368 1110.265869,468.291229 1111.160278,468.237762 
	C1109.087158,466.158173 1106.192871,464.625946 1105.979736,462.783539 
	C1105.340942,457.261414 1105.749756,451.618042 1105.749756,446.110046 
	C1108.339600,445.698303 1110.387085,445.372772 1112.434570,445.047272 
	C1112.391357,444.620728 1112.348267,444.194183 1112.305054,443.767670 
	C1110.269287,443.533875 1108.233521,443.300079 1106.118652,443.057220 
	C1105.737793,441.418213 1105.390137,439.921783 1104.970947,438.117798 
	C1102.949707,440.624298 1101.211914,442.779358 1099.341309,445.099091 
	C1100.118530,445.360168 1101.426514,445.799561 1102.889160,446.290894 
	C1102.889160,450.934784 1102.889160,455.581421 1102.889648,461.155212 
M1211.334595,439.256866 
	C1210.104858,441.205444 1208.875000,443.154022 1207.552734,445.248993 
	C1208.383545,445.490387 1209.685913,445.868774 1211.107666,446.281799 
	C1211.107666,451.941376 1210.816772,457.266388 1211.186279,462.545227 
	C1211.587524,468.276886 1215.514893,470.228180 1219.327026,467.920502 
	C1217.641357,466.279022 1214.512695,464.679504 1214.254028,462.704132 
	C1213.533569,457.201599 1214.003784,451.543121 1214.003784,446.014893 
	C1216.632446,445.678192 1218.725586,445.410095 1220.818726,445.141998 
	C1220.789062,444.704559 1220.759277,444.267120 1220.729614,443.829681 
	C1218.559570,443.554657 1216.389526,443.279663 1215.545288,443.172699 
	C1213.881226,441.121765 1212.936157,439.957001 1211.334595,439.256866 
M829.311035,463.671478 
	C831.468811,469.210663 833.919006,470.223938 837.260071,467.883606 
	C835.588257,466.354919 832.492615,464.885651 832.279236,463.076508 
	C831.612488,457.422455 832.034485,451.639954 832.034485,446.006317 
	C834.687073,445.645142 836.746704,445.364716 838.806396,445.084290 
	C838.763916,444.669922 838.721375,444.255585 838.678833,443.841217 
	C836.505737,443.546326 834.332642,443.251465 832.237915,442.967224 
	C832.005676,441.259857 831.815979,439.865387 831.529846,437.762451 
	C829.236877,440.481537 827.362244,442.704590 825.328552,445.116211 
	C826.269531,445.400909 827.574768,445.795868 829.132568,446.267242 
	C829.132568,451.905182 829.132568,457.366699 829.311035,463.671478 
M998.065430,467.255463 
	C998.099304,462.597992 998.015930,457.935883 998.199402,453.284332 
	C998.390503,448.439880 1001.564087,445.141296 1005.818787,445.026123 
	C1009.947388,444.914368 1012.553101,447.740906 1012.791565,453.000366 
	C1012.979797,457.151581 1012.788574,461.318848 1012.880676,465.476440 
	C1012.900818,466.386688 1013.407471,467.286133 1013.690125,468.190552 
	C1014.179688,468.136536 1014.669312,468.082520 1015.158875,468.028473 
	C1015.158875,463.660248 1015.121704,459.291595 1015.169189,454.923889 
	C1015.217834,450.455139 1014.914368,446.126984 1010.200073,443.881012 
	C1005.573486,441.676788 1001.862244,443.675018 998.562927,446.772430 
	C998.033752,445.651031 997.533508,444.590973 997.033264,443.530884 
	C995.883423,451.485504 995.856201,459.080627 995.951599,466.674225 
	C995.957275,467.126282 996.945984,467.566040 998.065430,467.255463 
M937.747986,450.903687 
	C940.339417,453.028656 943.160339,454.937134 945.441528,457.354767 
	C946.964050,458.968445 947.718079,461.307159 948.816040,463.321350 
	C946.624084,464.453186 944.531860,465.963501 942.203308,466.577332 
	C940.768860,466.955475 938.973755,465.965393 937.340576,465.589630 
	C937.215027,466.200226 937.089539,466.810791 936.964050,467.421387 
	C939.482544,467.860046 942.319885,469.227478 944.438171,468.500336 
	C947.039124,467.607452 950.007141,465.390564 951.069214,462.977112 
	C952.605408,459.486084 950.057922,456.725708 946.754639,455.090149 
	C945.864319,454.649292 944.916748,454.325287 944.017639,453.900574 
	C941.443542,452.684631 938.771362,450.778137 940.542175,447.935486 
	C941.555115,446.309448 944.849365,446.002930 947.187134,445.359039 
	C948.004761,445.133820 949.033936,445.676849 949.966492,445.869049 
	C950.057861,445.202118 950.149170,444.535217 950.240479,443.868286 
	C947.605408,443.717682 944.478271,442.623810 942.468445,443.672058 
	C940.300415,444.802856 939.177917,447.938171 937.747986,450.903687 
M811.500061,437.210571 
	C811.934143,435.950012 812.368225,434.689484 812.802307,433.428925 
	C812.202454,433.185547 811.602600,432.942139 811.002747,432.698761 
	C805.503662,445.099915 800.004639,457.501038 794.505554,469.902191 
	C795.167358,470.214844 795.829102,470.527527 796.490845,470.840210 
	C801.390137,459.855133 806.289368,448.870056 811.500061,437.210571 
M1030.903564,467.905334 
	C1030.799805,468.696472 1030.695923,469.487610 1030.592041,470.278778 
	C1031.082397,470.443695 1031.572754,470.608612 1032.063232,470.773499 
	C1037.537720,458.423737 1043.012207,446.073975 1048.486694,433.724213 
	C1047.815552,433.417084 1047.144409,433.109955 1046.473267,432.802826 
	C1041.361084,444.284821 1036.249023,455.766815 1030.903564,467.905334 
M1248.038818,441.657135 
	C1249.114502,438.957520 1250.190186,436.257874 1251.265869,433.558258 
	C1250.646851,433.312897 1250.027954,433.067535 1249.409058,432.822174 
	C1243.949707,445.190430 1238.490234,457.558685 1233.030762,469.926941 
	C1233.668579,470.225647 1234.306274,470.524353 1234.944092,470.823090 
	C1239.215576,461.334412 1243.487061,451.845764 1248.038818,441.657135 
M1307.071167,454.482605 
	C1307.078125,466.950134 1307.078125,466.950134 1309.390015,467.955688 
	C1309.390015,455.913940 1309.390015,443.904358 1309.390015,431.597717 
	C1308.375977,431.950928 1307.561768,432.091949 1307.556885,432.256683 
	C1307.349854,439.332855 1307.214722,446.411072 1307.071167,454.482605 
M1142.583740,460.363953 
	C1143.262329,462.862427 1141.182739,466.025574 1144.616089,467.941895 
	C1143.790161,459.918762 1147.287720,451.694916 1142.583740,443.887756 
	C1142.583740,449.058594 1142.583740,454.229431 1142.583740,460.363953 
M868.862427,450.499268 
	C868.862427,456.357361 868.862427,462.215454 868.862427,468.073547 
	C869.390320,468.036530 869.918213,467.999512 870.446106,467.962494 
	C870.446106,455.977081 870.446106,443.991669 870.446106,432.006256 
	C869.918396,432.000275 869.390625,431.994293 868.862915,431.988312 
	C868.862915,437.825745 868.862915,443.663208 868.862427,450.499268 
M1063.876587,466.245667 
	C1064.281494,466.892792 1064.686279,467.539917 1065.400024,468.680695 
	C1065.400024,459.862946 1065.400024,451.836853 1065.400024,443.810791 
	C1064.888794,443.812622 1064.377686,443.814453 1063.866455,443.816284 
	C1063.866455,450.973999 1063.866455,458.131744 1063.876587,466.245667 
M927.863403,456.488678 
	C927.863403,460.356018 927.863403,464.223389 927.863403,468.090729 
	C928.376099,468.045258 928.888794,467.999786 929.401489,467.954285 
	C929.401489,459.908691 929.401489,451.863068 929.401489,443.817474 
	C928.888550,443.820007 928.375610,443.822571 927.862671,443.825134 
	C927.862671,447.717224 927.862671,451.609314 927.863403,456.488678 
z"/>
<path fill="#FEFEFE" opacity="1.000000" stroke="none" 
	d="
M791.405457,409.548279 
	C784.026794,410.818298 777.009094,412.726196 769.959900,412.850616 
	C747.140503,413.253326 724.309387,412.956512 701.483093,413.018585 
	C688.326111,413.054382 675.169678,413.333374 662.012695,413.367523 
	C653.654968,413.389191 652.998779,412.614716 652.998718,404.273712 
	C652.998596,351.289581 652.997986,298.305450 652.999512,245.321320 
	C652.999756,238.374329 654.050171,237.269836 661.038635,237.212341 
	C668.202637,237.153397 675.369751,237.093140 682.531372,237.237350 
	C688.456360,237.356659 689.394043,238.445740 689.398071,244.381302 
	C689.410095,262.375916 689.402039,280.370514 689.401794,298.365112 
	C689.401794,300.147797 689.401733,301.930481 689.401733,304.198029 
	C691.693665,304.198029 693.487793,304.198120 695.281921,304.198029 
	C721.274109,304.196716 747.266541,304.134277 773.258423,304.225006 
	C783.291260,304.260010 792.676331,306.679962 800.867615,312.825653 
	C805.709534,316.458435 808.243835,321.045746 808.194519,327.299530 
	C808.039490,346.959076 807.651794,366.637421 808.329712,386.274811 
	C808.711609,397.338531 803.795593,403.830597 794.485718,408.145966 
	C793.580017,408.565826 792.663452,408.962250 791.405457,409.548279 
M768.810669,390.743134 
	C772.138489,389.803619 772.233704,387.221008 772.225037,384.400848 
	C772.173706,367.576904 772.204285,350.752716 772.199463,333.928589 
	C772.197449,326.767395 771.452271,326.010864 764.111572,326.005493 
	C740.624451,325.988403 717.137268,325.995667 693.650146,326.009308 
	C692.369202,326.010040 691.088318,326.154388 689.700012,326.238403 
	C689.700012,347.932404 689.700012,369.333466 689.700012,390.932098 
	C715.979614,390.932098 741.952698,390.932098 768.810669,390.743134 
z"/>
<path fill="#FEFEFE" opacity="1.000000" stroke="none" 
	d="
M894.093811,319.406403 
	C902.280823,307.685059 914.288696,304.538239 927.066772,304.319763 
	C951.712341,303.898499 976.372742,303.994476 1001.021973,304.290924 
	C1012.010376,304.423035 1022.466919,306.974243 1030.791504,314.999420 
	C1034.207153,318.292236 1035.908325,322.208008 1035.833984,327.013916 
	C1035.715454,334.674438 1035.564209,342.347656 1035.871216,349.997711 
	C1036.155640,357.086517 1033.052856,362.106140 1027.511719,365.976379 
	C1019.154724,371.813385 1009.687622,373.947662 999.686584,373.979828 
	C977.865784,374.050049 956.044556,374.001434 934.223511,374.001373 
	C932.409851,374.001373 930.596191,374.001373 928.178101,374.001373 
	C928.178101,378.360138 927.792236,382.511932 928.368347,386.525604 
	C928.598206,388.127380 930.733093,389.834778 932.409058,390.728638 
	C933.723328,391.429565 935.666077,390.992035 937.329590,390.992493 
	C966.646423,391.000793 995.963196,390.991241 1025.280029,391.003326 
	C1034.171875,391.006989 1035.000732,391.852112 1035.001831,400.623444 
	C1035.003296,413.000702 1035.003174,413.001373 1022.535217,413.001526 
	C991.719238,413.001862 960.903198,413.006470 930.087219,412.998657 
	C919.938354,412.996094 910.241760,411.239502 901.566101,405.559845 
	C895.588562,401.646576 892.369446,396.568512 892.488953,388.988983 
	C892.809387,368.672089 892.551758,348.346619 892.663696,328.025330 
	C892.678894,325.267212 893.495300,322.513519 894.093811,319.406403 
M972.500000,352.004364 
	C979.152832,352.003876 985.806335,352.063232 992.458313,351.985260 
	C998.483032,351.914673 999.834412,350.522797 999.864868,344.676636 
	C999.885620,340.685059 999.708252,336.684937 999.913208,332.703766 
	C1000.148804,328.125763 997.670776,326.203033 993.623352,326.183594 
	C973.831665,326.088440 954.039062,326.098785 934.247314,326.185547 
	C931.259399,326.198639 928.345459,327.287567 928.230347,330.858765 
	C928.007141,337.780975 928.165039,344.715515 928.165039,352.004364 
	C942.956726,352.004364 957.228394,352.004364 972.500000,352.004364 
z"/>
<path fill="#FEFEFE" opacity="1.000000" stroke="none" 
	d="
M1210.327148,403.695618 
	C1205.678589,399.805145 1203.765869,395.200684 1203.806030,389.433655 
	C1203.947754,369.109589 1204.036011,348.781586 1203.766846,328.460083 
	C1203.670166,321.163971 1206.713867,316.059448 1212.367798,312.064789 
	C1220.427124,306.370728 1229.622681,304.298218 1239.253540,304.241364 
	C1263.409546,304.098877 1287.567993,304.071991 1311.723389,304.254761 
	C1321.858521,304.331451 1331.528320,306.505310 1339.836060,312.883759 
	C1344.615845,316.553558 1347.320923,321.123993 1347.178101,327.356750 
	C1347.002686,335.016266 1346.917847,342.691071 1347.203247,350.343964 
	C1347.452759,357.035065 1344.559692,361.833740 1339.393066,365.586853 
	C1330.824951,371.810760 1321.034180,373.966370 1310.666870,373.987976 
	C1288.842529,374.033508 1267.017944,374.001709 1245.193481,374.001617 
	C1243.562500,374.001587 1241.931396,374.001617 1240.505371,374.001617 
	C1240.162109,374.664307 1239.896851,374.938080 1239.895630,375.213104 
	C1239.814575,392.361084 1237.645264,390.997284 1254.972900,390.998047 
	C1281.961914,390.999298 1308.950928,390.991577 1335.939941,391.012695 
	C1337.932007,391.014252 1339.946289,391.067902 1341.910400,391.362793 
	C1344.704712,391.782379 1346.345581,393.228485 1346.180908,396.413452 
	C1345.991943,400.068878 1345.984375,403.749695 1346.180054,407.404358 
	C1346.363281,410.828674 1344.578979,412.295807 1341.567383,412.701202 
	C1339.760010,412.944519 1337.915527,412.989105 1336.087646,412.990051 
	C1304.600464,413.006165 1273.113159,412.995544 1241.625977,413.004761 
	C1230.392700,413.008026 1219.795532,410.870911 1210.327148,403.695618 
M1270.500000,352.002075 
	C1281.651489,352.001221 1292.803467,352.061493 1303.954224,351.974762 
	C1309.867310,351.928741 1310.982544,350.712616 1310.999390,345.002655 
	C1311.011719,340.841675 1310.752808,336.661560 1311.069702,332.524811 
	C1311.408936,328.096649 1309.126343,326.429443 1305.287231,326.206757 
	C1301.969238,326.014343 1298.632446,326.138855 1295.303955,326.138092 
	C1279.325684,326.134277 1263.347290,326.084534 1247.369507,326.175293 
	C1243.927612,326.194824 1239.907471,326.003143 1239.830566,331.168274 
	C1239.729736,337.951111 1239.805908,344.736572 1239.805908,352.002075 
	C1249.951782,352.002075 1259.725830,352.002075 1270.500000,352.002075 
z"/>
<path fill="#FDFDFE" opacity="1.000000" stroke="none" 
	d="
M588.000122,305.196106 
	C599.603149,305.777252 610.771423,305.829681 621.778503,307.188354 
	C626.470825,307.767548 631.087585,310.655121 635.269653,313.249664 
	C640.656311,316.591492 643.307312,321.611206 643.228699,328.344543 
	C642.989441,348.834259 643.035278,369.329437 643.207703,389.820465 
	C643.260376,396.084229 640.709473,400.655823 635.936890,404.321533 
	C627.489563,410.809662 617.663757,412.911163 607.335693,412.964294 
	C583.844910,413.085144 560.352539,413.094971 536.861938,412.958038 
	C526.901306,412.899994 517.355103,410.947754 509.033417,404.953156 
	C503.692932,401.106079 500.683807,396.197388 500.936279,389.325378 
	C501.205261,382.004608 501.199951,374.659058 500.937744,367.337769 
	C500.691101,360.450684 503.749878,355.592377 509.143524,351.796509 
	C516.297668,346.761719 524.316040,344.115936 532.969299,344.034546 
	C555.791443,343.819885 578.616394,343.899261 601.440186,343.862213 
	C603.248230,343.859283 605.056213,343.861786 607.527039,343.861786 
	C607.527039,339.227570 607.867981,334.938446 607.429321,330.730621 
	C607.006470,326.674408 603.408325,326.850494 600.431641,326.838226 
	C585.770569,326.777618 571.109192,326.811249 556.447876,326.796539 
	C554.953003,326.795044 553.439941,326.821381 551.967285,326.610931 
	C548.737488,326.149323 546.893494,324.531708 547.151733,320.918945 
	C547.364990,317.935272 547.179626,314.924133 547.199524,311.925385 
	C547.235352,306.534180 548.418518,305.261475 554.012512,305.220978 
	C565.174500,305.140137 576.337463,305.196442 588.000122,305.196106 
M553.545166,365.384033 
	C549.561279,365.519348 545.573669,365.587189 541.594727,365.810364 
	C538.123474,366.005035 536.672607,367.985626 536.766357,371.431091 
	C536.884033,375.755585 536.981812,380.096497 536.739868,384.410736 
	C536.472839,389.170837 538.671875,391.103729 543.201355,391.101532 
	C551.522522,391.097504 559.843689,391.207916 568.164795,391.199432 
	C579.314880,391.188080 590.472473,391.306213 601.608093,390.879486 
	C603.640869,390.801605 607.168762,388.520721 607.298157,387.022827 
	C607.905823,379.986481 607.568420,372.868500 607.568420,365.383148 
	C589.427246,365.383148 571.979736,365.383148 553.545166,365.384033 
z"/>
<path fill="#FEFDFE" opacity="1.000000" stroke="none" 
	d="
M1083.139771,407.605225 
	C1083.298828,411.545044 1081.131104,412.924042 1078.160034,412.969635 
	C1069.501587,413.102539 1060.838257,413.115601 1052.179932,412.980011 
	C1048.600098,412.923950 1046.945557,410.909393 1046.956543,407.150940 
	C1047.035400,380.162872 1046.939453,353.174286 1047.040894,326.186371 
	C1047.068237,318.905823 1051.628052,314.369690 1057.421387,310.821564 
	C1065.180908,306.069183 1073.794312,304.303162 1082.700684,304.250153 
	C1108.022095,304.099457 1133.345459,304.101715 1158.667114,304.245270 
	C1168.631104,304.301788 1178.145874,306.463043 1186.469238,312.348511 
	C1191.677368,316.031250 1194.491943,320.870911 1194.458008,327.523438 
	C1194.323853,353.844666 1194.324951,380.167419 1194.474976,406.488464 
	C1194.502441,411.304169 1192.445679,413.153046 1187.955688,413.136719 
	C1180.459106,413.109467 1172.961182,413.213623 1165.465942,413.108673 
	C1159.366089,413.023285 1158.206665,411.766388 1158.203369,405.683289 
	C1158.190430,381.693695 1158.203735,357.704132 1158.197510,333.714539 
	C1158.195801,327.204102 1157.217651,326.161316 1150.744873,326.150940 
	C1130.753540,326.118896 1110.762207,326.115509 1090.770874,326.156647 
	C1084.322510,326.169922 1083.143555,327.399445 1083.142212,333.677582 
	C1083.136841,358.166809 1083.140869,382.656036 1083.139771,407.605225 
z"/>
<path fill="#FEFEFF" opacity="1.000000" stroke="none" 
	d="
M1358.873291,398.817322 
	C1358.096802,395.582581 1356.947021,392.703033 1356.940308,389.820862 
	C1356.829956,342.011627 1356.933472,294.201843 1356.759888,246.393021 
	C1356.741333,241.310593 1358.846680,239.316162 1363.380737,239.243362 
	C1371.041626,239.120331 1378.706787,239.130661 1386.368286,239.231415 
	C1390.853882,239.290390 1393.189087,241.090942 1393.106567,246.259506 
	C1392.827026,263.746277 1393.000122,281.240326 1393.000366,298.731598 
	C1393.000488,300.523895 1393.000488,302.316223 1393.000488,304.602020 
	C1395.221436,304.602020 1397.014404,304.601959 1398.807373,304.602020 
	C1417.964478,304.602936 1437.121704,304.573883 1456.278687,304.619324 
	C1464.103516,304.637878 1464.796753,305.407135 1464.803101,313.160370 
	C1464.813965,326.397217 1464.813965,326.397583 1451.422607,326.397888 
	C1433.764771,326.398254 1416.106812,326.397980 1398.448975,326.397980 
	C1396.814697,326.397980 1395.180420,326.397980 1393.000610,326.397980 
	C1393.000610,332.577393 1393.000610,338.349121 1393.000610,344.120880 
	C1393.000610,357.280975 1392.997803,370.441071 1393.001953,383.601166 
	C1393.004028,390.178253 1394.081665,391.448486 1400.750488,391.559814 
	C1410.076538,391.715424 1419.407227,391.601929 1428.735840,391.602875 
	C1438.231079,391.603821 1447.726685,391.559906 1457.221558,391.619385 
	C1463.903687,391.661255 1464.785889,392.586304 1464.802002,399.034454 
	C1464.808716,401.699768 1464.629639,404.378723 1464.839600,407.027344 
	C1465.179932,411.320648 1463.185181,413.229889 1459.067871,413.257568 
	C1450.907837,413.312408 1442.747559,413.406860 1434.587769,413.378998 
	C1418.768555,413.324951 1402.930908,413.630432 1387.136719,412.953033 
	C1376.050537,412.477539 1365.918579,408.816345 1358.873291,398.817322 
z"/>
<path fill="#FEFEFE" opacity="1.000000" stroke="none" 
	d="
M389.001709,340.037476 
	C389.001678,355.028961 388.988251,369.527161 389.008057,384.025269 
	C389.016022,389.861786 390.105774,390.979767 396.059326,390.985352 
	C425.555573,391.013000 455.051788,390.995697 484.548035,391.004425 
	C486.379303,391.004974 488.215210,391.025909 490.040863,391.153168 
	C493.782684,391.413971 495.848083,393.094940 495.448517,397.225800 
	C495.192963,399.867249 495.407043,402.553802 495.404358,405.220123 
	C495.397644,411.919098 494.514404,412.912720 487.572815,412.973145 
	C476.241791,413.071777 464.909271,413.001526 453.577393,413.001648 
	C432.580078,413.001923 411.582703,413.017487 390.585419,412.994629 
	C380.258453,412.983368 370.427399,411.108917 361.683899,405.171875 
	C355.888275,401.236542 352.889984,396.018555 352.945282,388.819153 
	C353.100189,368.656250 353.100952,348.490601 352.944092,328.327728 
	C352.888245,321.148865 355.801971,315.867310 361.602905,311.942657 
	C369.430542,306.646790 378.184570,304.260681 387.515259,304.234741 
	C420.844086,304.142090 454.173340,304.187042 487.502411,304.207703 
	C494.652039,304.212128 495.393707,305.026367 495.401245,312.300232 
	C495.415375,326.002350 495.415375,326.002167 481.556030,326.002014 
	C454.226196,326.001709 426.896332,326.001984 399.566498,326.001221 
	C388.998901,326.000946 388.998901,325.999939 389.001129,336.545013 
	C389.001343,337.544708 389.001526,338.544434 389.001709,340.037476 
z"/>
<path fill="#FEFEFF" opacity="1.000000" stroke="none" 
	d="
M852.137817,257.001770 
	C852.137451,299.313416 852.135315,341.125580 852.137268,382.937714 
	C852.137573,389.461060 853.367432,390.766266 859.978577,390.844330 
	C867.140564,390.928925 874.305237,390.800720 881.467224,390.886627 
	C887.135742,390.954620 888.095398,392.007690 888.131775,397.678375 
	C888.152100,400.843292 887.973999,404.018768 888.176392,407.170837 
	C888.412292,410.844299 886.389221,412.736816 883.232544,412.659393 
	C867.967529,412.284882 852.669617,412.087372 837.472717,410.784393 
	C832.689392,410.374268 827.914673,407.150482 823.619629,404.446259 
	C818.257568,401.070312 815.761353,395.968750 815.782471,389.276154 
	C815.934998,340.967773 815.861755,292.658691 815.867432,244.349854 
	C815.868103,238.543808 816.913086,237.343307 822.758240,237.235138 
	C830.251892,237.096466 837.753052,237.071747 845.245239,237.246384 
	C850.962036,237.379654 852.111877,238.764420 852.135437,244.508392 
	C852.151794,248.506271 852.137756,252.504303 852.137817,257.001770 
z"/>
<path fill="#FBFAFC" opacity="1.000000" stroke="none" 
	d="
M306.708130,338.729309 
	C289.056885,359.810028 271.596741,380.588928 254.266647,401.475708 
	C252.272247,403.879395 250.305466,405.072754 247.108704,404.883911 
	C242.362869,404.603577 237.588226,404.811310 231.673950,404.811310 
	C236.990952,398.404022 241.598953,392.814697 246.245682,387.257751 
	C267.930969,361.324677 289.679108,335.443848 311.252380,309.417969 
	C313.924225,306.194641 316.558380,304.469879 320.882019,304.900299 
	C325.125427,305.322693 329.443787,304.992340 334.895020,304.992340 
	C325.140869,316.668945 316.039398,327.564270 306.708130,338.729309 
z"/>
<path fill="#FBFAFC" opacity="1.000000" stroke="none" 
	d="
M247.208557,356.218536 
	C234.256989,371.654968 221.595474,386.870789 208.735596,401.917084 
	C207.458084,403.411774 205.022583,404.527435 203.035019,404.684265 
	C198.074829,405.075653 193.063049,404.813263 186.976074,404.813263 
	C188.551788,402.765564 189.635666,401.249329 190.827820,399.823639 
	C216.010422,369.708923 241.250977,339.642395 266.330658,309.442291 
	C268.997101,306.231415 271.592499,304.461151 275.927338,304.897064 
	C280.199066,305.326660 284.547791,304.990845 289.975128,304.990845 
	C275.423492,322.425690 261.433167,339.187958 247.208557,356.218536 
z"/>
<path fill="#FBFAFC" opacity="1.000000" stroke="none" 
	d="
M180.543915,358.512970 
	C194.956772,341.258240 209.101120,324.241241 223.376251,307.334656 
	C224.386734,306.137878 226.329849,305.177277 227.890427,305.096588 
	C233.199249,304.822235 238.530991,304.991730 244.396637,304.991730 
	C243.795044,306.091522 243.494751,306.939880 242.953644,307.586761 
	C216.692963,338.980255 190.383362,370.332886 164.190567,401.782837 
	C162.274200,404.083862 160.371643,405.009460 157.440887,404.872192 
	C152.653854,404.648041 147.848679,404.811615 141.792664,404.811615 
	C155.054428,388.960571 167.680756,373.869019 180.543915,358.512970 
z"/>
<path fill="#F2EFF5" opacity="1.000000" stroke="none" 
	d="
M1342.967529,455.039062 
	C1342.967529,450.964386 1342.967529,447.381042 1342.967529,443.797668 
	C1343.287964,443.707947 1343.608521,443.618225 1343.928955,443.528503 
	C1344.595215,444.545563 1345.261597,445.562653 1345.923828,446.573486 
	C1352.596191,441.931244 1357.890991,441.825348 1361.977905,446.225952 
	C1366.110962,450.676331 1366.321899,459.712402 1362.410767,464.762939 
	C1358.853516,469.356293 1353.122070,469.823090 1345.779663,465.739594 
	C1345.537354,470.133331 1345.308105,474.291565 1345.078735,478.449799 
	C1344.375000,478.425842 1343.671265,478.401886 1342.967529,478.377930 
	C1342.967529,470.762085 1342.967529,463.146240 1342.967529,455.039062 
M1362.689087,457.947449 
	C1362.450806,455.674469 1362.559082,453.295593 1361.903442,451.150146 
	C1360.460938,446.429016 1356.153564,444.044250 1351.939941,445.245941 
	C1347.177612,446.604187 1344.884277,451.181671 1345.431885,458.236542 
	C1345.796875,462.939117 1348.668945,466.230988 1352.896729,466.792542 
	C1357.420288,467.393402 1360.606079,464.713715 1362.689087,457.947449 
z"/>
<path fill="#E6E0EB" opacity="1.000000" stroke="none" 
	d="
M1371.450928,467.619324 
	C1371.199707,455.555084 1371.199707,443.806244 1371.199707,431.803558 
	C1373.264526,432.859131 1373.264526,432.859131 1374.123901,446.140839 
	C1375.206543,445.489380 1376.099243,444.921051 1377.020142,444.402954 
	C1382.980835,441.049805 1389.385010,443.537323 1390.273560,450.250885 
	C1391.042114,456.057098 1390.433350,462.045654 1389.431885,468.369385 
	C1388.992432,467.493347 1388.201782,466.628601 1388.173218,465.739349 
	C1388.034302,461.418488 1388.212646,457.087158 1388.062866,452.766998 
	C1387.887695,447.710327 1385.472046,445.020599 1381.466919,445.071442 
	C1377.376953,445.123383 1374.135620,448.306091 1373.943237,452.806213 
	C1373.765747,456.957642 1374.023071,461.129364 1373.789185,465.275269 
	C1373.737061,466.197998 1372.431030,467.050049 1371.450928,467.619324 
z"/>
<path fill="#E9E4EE" opacity="1.000000" stroke="none" 
	d="
M1400.882324,445.781464 
	C1407.202393,441.974152 1412.808960,442.228882 1416.655029,446.259094 
	C1420.730957,450.529816 1421.224487,458.907959 1417.694824,463.908020 
	C1414.560181,468.348572 1408.522461,470.000610 1403.487427,467.795654 
	C1395.938110,464.489655 1394.547241,454.068481 1400.882324,445.781464 
M1413.979248,464.466919 
	C1415.153076,461.789398 1417.066040,459.190094 1417.359131,456.419342 
	C1418.169189,448.765472 1411.593384,443.091858 1405.327271,445.540100 
	C1400.130859,447.570404 1397.653198,455.121918 1400.259888,460.984467 
	C1402.714111,466.504089 1407.491699,467.943634 1413.979248,464.466919 
z"/>
<path fill="#E6E0EB" opacity="1.000000" stroke="none" 
	d="
M1336.846069,454.028198 
	C1335.074829,454.928589 1333.336304,455.732422 1331.562378,455.820435 
	C1327.429688,456.025421 1323.279907,455.885834 1319.150635,455.885834 
	C1318.916138,464.803497 1321.456665,466.434143 1334.772095,466.291901 
	C1329.957642,471.189331 1320.040161,468.915131 1317.344849,462.189545 
	C1315.372559,457.268036 1315.747803,452.359833 1318.520386,447.835571 
	C1320.816650,444.088379 1324.417603,442.374847 1328.739014,443.081116 
	C1334.553711,444.031464 1336.227661,448.492310 1336.846069,454.028198 
M1331.083618,446.280212 
	C1324.305176,443.448883 1319.826416,446.221924 1319.361328,453.660980 
	C1324.137817,453.660980 1328.906128,453.660980 1334.758179,453.660980 
	C1333.579346,451.020691 1332.635498,448.906708 1331.083618,446.280212 
z"/>
<path fill="#E8E3ED" opacity="1.000000" stroke="none" 
	d="
M859.382751,445.523987 
	C860.799988,448.857727 861.950012,451.922913 863.443359,455.903076 
	C856.178528,455.903076 850.439148,455.903076 844.702393,455.903076 
	C845.078918,465.262177 847.188599,466.565399 860.664001,466.216125 
	C857.493042,469.697754 850.426331,469.779572 846.150085,466.384094 
	C841.212402,462.463654 840.487671,453.062714 844.673035,447.225708 
	C848.089233,442.461426 853.424683,441.733582 859.382751,445.523987 
M846.977173,453.824554 
	C851.223633,453.824554 855.470032,453.824554 860.509094,453.824554 
	C859.594421,451.329529 859.290894,449.276733 858.207031,447.794617 
	C855.793762,444.494659 852.255981,443.948883 848.994934,446.111542 
	C846.528381,447.747314 843.439697,449.890503 846.977173,453.824554 
z"/>
<path fill="#E9E4EE" opacity="1.000000" stroke="none" 
	d="
M1121.083740,467.155212 
	C1115.524536,463.201630 1115.160156,457.804504 1116.199219,452.203918 
	C1117.319214,446.165894 1122.519043,442.303406 1127.945801,443.008575 
	C1133.489014,443.728790 1136.303223,448.049438 1135.896729,455.666534 
	C1130.195312,455.666534 1124.456299,455.666534 1118.765015,455.666534 
	C1117.874512,464.274994 1120.882202,466.247772 1134.325439,466.317230 
	C1131.194214,469.355621 1127.591309,469.634796 1121.083740,467.155212 
M1121.762573,453.832184 
	C1125.683228,453.832184 1129.603882,453.832184 1133.936035,453.832184 
	C1133.301392,449.205566 1132.112793,445.717865 1127.438843,445.097260 
	C1123.195679,444.533844 1120.451904,446.839020 1119.171143,450.662994 
	C1118.909546,451.444183 1120.243286,452.759583 1121.762573,453.832184 
z"/>
<path fill="#E9E4EE" opacity="1.000000" stroke="none" 
	d="
M884.337219,443.969666 
	C893.377197,441.361206 898.593079,445.922028 897.814026,455.717834 
	C892.116821,455.717834 886.367493,455.717834 880.650757,455.717834 
	C880.109558,464.318939 882.279297,465.739594 896.355225,466.413300 
	C891.911560,470.279968 883.968506,469.443115 880.304016,464.775665 
	C875.936768,459.213196 877.242371,446.970093 884.337219,443.969666 
M888.490356,445.028717 
	C883.249695,445.352203 881.239502,448.672150 880.426697,453.454590 
	C885.694397,453.454590 890.647583,453.454590 895.825500,453.454590 
	C895.319458,448.956909 893.883545,445.749908 888.490356,445.028717 
z"/>
<path fill="#E9E4EE" opacity="1.000000" stroke="none" 
	d="
M1188.996338,444.744141 
	C1198.483154,440.692596 1204.529785,445.149933 1203.868042,455.685669 
	C1198.167603,455.685669 1192.423828,455.685669 1186.721558,455.685669 
	C1185.964478,464.283417 1188.696411,466.074188 1202.334595,466.350922 
	C1198.443726,469.994385 1190.863037,469.616516 1186.978882,465.585602 
	C1182.077148,460.498657 1182.885010,450.643555 1188.996338,444.744141 
M1198.862793,446.452423 
	C1191.980103,443.280579 1186.762695,446.486969 1187.170410,453.590393 
	C1191.948242,453.590393 1196.720825,453.590393 1202.476196,453.590393 
	C1201.283813,451.013275 1200.352783,449.000702 1198.862793,446.452423 
z"/>
<path fill="#E9E4EE" opacity="1.000000" stroke="none" 
	d="
M1469.682495,443.654236 
	C1469.671387,445.380005 1469.589844,447.148621 1468.959351,448.693054 
	C1465.829224,456.359955 1462.692139,464.030457 1459.269409,471.568848 
	C1457.665039,475.102325 1455.295166,478.203430 1450.754395,479.135773 
	C1450.827026,478.215149 1450.678223,477.558533 1450.926147,477.327332 
	C1459.695679,469.146362 1459.691528,469.155762 1455.332153,458.226257 
	C1453.458008,453.527557 1451.631226,448.809967 1450.666260,443.683563 
	C1455.339600,449.626587 1457.166626,457.000732 1460.545288,464.138885 
	C1462.755737,458.311462 1464.739624,452.897858 1466.884888,447.548981 
	C1467.454834,446.128357 1468.520874,444.906677 1469.682495,443.654236 
z"/>
<path fill="#E8E3ED" opacity="1.000000" stroke="none" 
	d="
M1299.123657,447.062561 
	C1300.011475,450.023346 1300.719604,452.633972 1301.594238,455.859192 
	C1294.834351,455.859192 1289.053345,455.859192 1283.285156,455.859192 
	C1283.168823,464.692871 1285.520386,466.199829 1299.821411,466.346527 
	C1295.665161,469.402496 1291.767700,469.344971 1287.837402,468.052277 
	C1282.697998,466.361938 1280.874512,462.200653 1280.540161,457.216583 
	C1280.122314,450.985901 1282.773682,445.809265 1287.338501,443.890717 
	C1291.864990,441.988281 1295.790527,442.830811 1299.123657,447.062561 
M1284.904785,448.478394 
	C1284.247803,450.105499 1283.590942,451.732635 1282.891235,453.465790 
	C1288.345703,453.465790 1293.229004,453.465790 1298.112183,453.465790 
	C1298.492188,453.052246 1298.872192,452.638702 1299.252197,452.225159 
	C1297.460327,449.973816 1296.037598,446.484100 1293.775635,445.809692 
	C1291.380981,445.095734 1288.187866,447.059937 1284.904785,448.478394 
z"/>
<path fill="#ECE6F0" opacity="1.000000" stroke="none" 
	d="
M978.851074,442.969788 
	C986.129578,444.684509 989.052734,447.840973 989.792542,454.356842 
	C990.405273,459.753906 987.753479,465.158691 983.389587,467.407288 
	C977.232910,470.579681 970.280212,468.147766 967.615601,461.889709 
	C964.547729,454.684875 967.517029,446.293945 974.096375,443.828766 
	C975.462280,443.316956 976.989685,443.235870 978.851074,442.969788 
M976.824585,445.095673 
	C968.962646,447.935028 966.355225,457.357788 971.682739,463.677124 
	C974.744690,467.309021 979.619568,467.889343 983.252075,464.851837 
	C987.319458,461.450714 987.932922,456.848511 986.634216,452.108246 
	C985.440430,447.750946 982.613281,444.860321 976.824585,445.095673 
z"/>
<path fill="#F7F5F9" opacity="1.000000" stroke="none" 
	d="
M1274.705078,445.428864 
	C1271.046387,444.940704 1269.832153,446.243378 1270.100342,449.579803 
	C1270.379272,453.046112 1270.293457,456.558502 1270.129395,460.039551 
	C1269.914673,464.592621 1271.213379,467.587311 1276.972656,466.800018 
	C1272.408081,470.150940 1268.329468,468.293945 1267.959839,463.047638 
	C1267.656982,458.748779 1268.112549,454.391388 1267.724487,450.105835 
	C1267.545044,448.124207 1266.156738,446.252106 1265.230713,444.133942 
	C1266.099609,442.969147 1267.683960,440.845459 1269.548340,438.346252 
	C1269.887451,439.995209 1270.188965,441.461548 1270.541016,443.173340 
	C1272.642456,443.428009 1274.822632,443.692200 1277.002686,443.956390 
	C1277.024536,444.215851 1277.046509,444.475342 1277.068359,444.734802 
	C1276.415649,444.965515 1275.762817,445.196228 1274.705078,445.428864 
z"/>
<path fill="#E8E3ED" opacity="1.000000" stroke="none" 
	d="
M917.387695,457.483337 
	C915.772644,461.394409 914.320862,464.958557 912.869080,468.522675 
	C912.229980,468.530121 911.590881,468.537567 910.951782,468.545013 
	C907.800842,460.373657 904.649902,452.202271 901.498962,444.030884 
	C902.166626,443.747437 902.834229,443.463959 903.501892,443.180511 
	C906.250366,450.130859 908.998840,457.081207 911.972839,464.601746 
	C915.993713,457.511444 916.826965,449.550110 921.322021,443.430542 
	C921.784058,443.633728 922.246094,443.836914 922.708130,444.040100 
	C920.989075,448.405548 919.270020,452.770996 917.387695,457.483337 
z"/>
<path fill="#D4C8DC" opacity="1.000000" stroke="none" 
	d="
M1102.889404,460.691650 
	C1102.889160,455.581421 1102.889160,450.934784 1102.889160,446.290894 
	C1101.426514,445.799561 1100.118530,445.360168 1099.341309,445.099091 
	C1101.211914,442.779358 1102.949707,440.624298 1104.970947,438.117798 
	C1105.390137,439.921783 1105.737793,441.418213 1106.118652,443.057220 
	C1108.233521,443.300079 1110.269287,443.533875 1112.305054,443.767670 
	C1112.348267,444.194183 1112.391357,444.620728 1112.434570,445.047272 
	C1110.387085,445.372772 1108.339600,445.698303 1105.749756,446.110046 
	C1105.749756,451.618042 1105.340942,457.261414 1105.979736,462.783539 
	C1106.192871,464.625946 1109.087158,466.158173 1111.160278,468.237762 
	C1110.265869,468.291229 1107.668945,469.164368 1106.925049,468.348328 
	C1105.120728,466.369110 1104.178955,463.603790 1102.889404,460.691650 
z"/>
<path fill="#D4C8DC" opacity="1.000000" stroke="none" 
	d="
M1211.662842,439.024536 
	C1212.936157,439.957001 1213.881226,441.121765 1215.545288,443.172699 
	C1216.389526,443.279663 1218.559570,443.554657 1220.729614,443.829681 
	C1220.759277,444.267120 1220.789062,444.704559 1220.818726,445.141998 
	C1218.725586,445.410095 1216.632446,445.678192 1214.003784,446.014893 
	C1214.003784,451.543121 1213.533569,457.201599 1214.254028,462.704132 
	C1214.512695,464.679504 1217.641357,466.279022 1219.327026,467.920502 
	C1215.514893,470.228180 1211.587524,468.276886 1211.186279,462.545227 
	C1210.816772,457.266388 1211.107666,451.941376 1211.107666,446.281799 
	C1209.685913,445.868774 1208.383545,445.490387 1207.552734,445.248993 
	C1208.875000,443.154022 1210.104858,441.205444 1211.662842,439.024536 
z"/>
<path fill="#D4C8DC" opacity="1.000000" stroke="none" 
	d="
M829.221802,463.249878 
	C829.132568,457.366699 829.132568,451.905182 829.132568,446.267242 
	C827.574768,445.795868 826.269531,445.400909 825.328552,445.116211 
	C827.362244,442.704590 829.236877,440.481537 831.529846,437.762451 
	C831.815979,439.865387 832.005676,441.259857 832.237915,442.967224 
	C834.332642,443.251465 836.505737,443.546326 838.678833,443.841217 
	C838.721375,444.255585 838.763916,444.669922 838.806396,445.084290 
	C836.746704,445.364716 834.687073,445.645142 832.034485,446.006317 
	C832.034485,451.639954 831.612488,457.422455 832.279236,463.076508 
	C832.492615,464.885651 835.588257,466.354919 837.260071,467.883606 
	C833.919006,470.223938 831.468811,469.210663 829.221802,463.249878 
z"/>
<path fill="#F7F5F9" opacity="1.000000" stroke="none" 
	d="
M997.771362,467.633484 
	C996.945984,467.566040 995.957275,467.126282 995.951599,466.674225 
	C995.856201,459.080627 995.883423,451.485504 997.033264,443.530884 
	C997.533508,444.590973 998.033752,445.651031 998.562927,446.772430 
	C1001.862244,443.675018 1005.573486,441.676788 1010.200073,443.881012 
	C1014.914368,446.126984 1015.217834,450.455139 1015.169189,454.923889 
	C1015.121704,459.291595 1015.158875,463.660248 1015.158875,468.028473 
	C1014.669312,468.082520 1014.179688,468.136536 1013.690125,468.190552 
	C1013.407471,467.286133 1012.900818,466.386688 1012.880676,465.476440 
	C1012.788574,461.318848 1012.979797,457.151581 1012.791565,453.000366 
	C1012.553101,447.740906 1009.947388,444.914368 1005.818787,445.026123 
	C1001.564087,445.141296 998.390503,448.439880 998.199402,453.284332 
	C998.015930,457.935883 998.099304,462.597992 997.771362,467.633484 
z"/>
<path fill="#ECE6F0" opacity="1.000000" stroke="none" 
	d="
M937.673645,450.551361 
	C939.177917,447.938171 940.300415,444.802856 942.468445,443.672058 
	C944.478271,442.623810 947.605408,443.717682 950.240479,443.868286 
	C950.149170,444.535217 950.057861,445.202118 949.966492,445.869049 
	C949.033936,445.676849 948.004761,445.133820 947.187134,445.359039 
	C944.849365,446.002930 941.555115,446.309448 940.542175,447.935486 
	C938.771362,450.778137 941.443542,452.684631 944.017639,453.900574 
	C944.916748,454.325287 945.864319,454.649292 946.754639,455.090149 
	C950.057922,456.725708 952.605408,459.486084 951.069214,462.977112 
	C950.007141,465.390564 947.039124,467.607452 944.438171,468.500336 
	C942.319885,469.227478 939.482544,467.860046 936.964050,467.421387 
	C937.089539,466.810791 937.215027,466.200226 937.340576,465.589630 
	C938.973755,465.965393 940.768860,466.955475 942.203308,466.577332 
	C944.531860,465.963501 946.624084,464.453186 948.816040,463.321381 
	C947.718079,461.307159 946.964050,458.968445 945.441528,457.354767 
	C943.160339,454.937134 940.339417,453.028656 937.673645,450.551361 
z"/>
<path fill="#E8E3ED" opacity="1.000000" stroke="none" 
	d="
M811.344360,437.547791 
	C806.289368,448.870056 801.390137,459.855133 796.490845,470.840210 
	C795.829102,470.527527 795.167358,470.214844 794.505554,469.902191 
	C800.004639,457.501038 805.503662,445.099915 811.002747,432.698761 
	C811.602600,432.942139 812.202454,433.185547 812.802307,433.428925 
	C812.368225,434.689484 811.934143,435.950012 811.344360,437.547791 
z"/>
<path fill="#ECE6F0" opacity="1.000000" stroke="none" 
	d="
M1031.020264,467.577057 
	C1036.249023,455.766815 1041.361084,444.284821 1046.473267,432.802826 
	C1047.144409,433.109955 1047.815552,433.417084 1048.486694,433.724213 
	C1043.012207,446.073975 1037.537720,458.423737 1032.063232,470.773499 
	C1031.572754,470.608612 1031.082397,470.443695 1030.592041,470.278778 
	C1030.695923,469.487610 1030.799805,468.696472 1031.020264,467.577057 
z"/>
<path fill="#ECE6F0" opacity="1.000000" stroke="none" 
	d="
M1247.898682,442.007141 
	C1243.487061,451.845764 1239.215576,461.334412 1234.944092,470.823090 
	C1234.306274,470.524353 1233.668579,470.225647 1233.030762,469.926941 
	C1238.490234,457.558685 1243.949707,445.190430 1249.409058,432.822174 
	C1250.027954,433.067535 1250.646851,433.312897 1251.265869,433.558258 
	C1250.190186,436.257874 1249.114502,438.957520 1247.898682,442.007141 
z"/>
<path fill="#DCD3E3" opacity="1.000000" stroke="none" 
	d="
M1307.071045,453.985840 
	C1307.214722,446.411072 1307.349854,439.332855 1307.556885,432.256683 
	C1307.561768,432.091949 1308.375977,431.950928 1309.390015,431.597717 
	C1309.390015,443.904358 1309.390015,455.913940 1309.390015,467.955688 
	C1307.078125,466.950134 1307.078125,466.950134 1307.071045,453.985840 
z"/>
<path fill="#F2EFF5" opacity="1.000000" stroke="none" 
	d="
M1159.959473,445.122131 
	C1160.768433,445.207794 1161.800659,445.660126 1162.352905,445.324005 
	C1170.504517,440.362457 1176.968018,443.587921 1177.410522,453.023102 
	C1177.604736,457.166260 1177.503784,461.326752 1177.419189,465.476959 
	C1177.400146,466.413605 1176.890747,467.340271 1176.607178,468.271545 
	C1176.059570,468.231567 1175.511963,468.191589 1174.964355,468.151611 
	C1174.964355,463.191406 1174.999023,458.230835 1174.952637,453.271088 
	C1174.919800,449.745605 1174.046387,446.106720 1170.257690,445.472168 
	C1167.885132,445.074768 1165.155640,446.808655 1162.180420,447.726624 
	C1161.774658,447.867004 1161.608521,448.064636 1161.608521,448.064636 
	C1161.608521,448.064636 1161.830811,448.352295 1161.830811,448.352295 
	C1161.830811,448.352295 1161.811768,448.719360 1161.369263,448.485229 
	C1160.604370,447.208099 1160.281860,446.165100 1159.959473,445.122131 
z"/>
<path fill="#F2EFF5" opacity="1.000000" stroke="none" 
	d="
M1427.971802,446.574982 
	C1441.071777,439.900665 1445.453247,442.780457 1445.456543,458.082764 
	C1445.457275,461.457611 1445.409180,464.832458 1445.383545,468.207336 
	C1444.578003,468.175934 1443.772461,468.144531 1442.966919,468.113098 
	C1442.966919,463.320435 1443.405640,458.471527 1442.801514,453.756256 
	C1442.441650,450.947876 1441.088257,447.091766 1438.995483,446.018097 
	C1436.988770,444.988373 1433.450684,446.943298 1430.181274,447.727844 
	C1429.776978,447.869141 1429.612549,448.063446 1429.612549,448.063446 
	C1429.612549,448.063446 1429.836548,448.347717 1429.836548,448.347717 
	C1429.836548,448.347717 1429.818359,448.718475 1429.454834,448.600891 
	C1428.718018,447.847198 1428.344971,447.211090 1427.971802,446.574982 
z"/>
<path fill="#F2EFF5" opacity="1.000000" stroke="none" 
	d="
M1077.957397,446.873871 
	C1080.184204,443.221954 1083.886963,441.906036 1087.334717,443.481445 
	C1089.961670,444.681793 1093.049194,447.712738 1093.468872,450.325012 
	C1094.391724,456.068970 1093.755249,462.063507 1093.755249,467.955780 
	C1093.348511,468.052307 1092.941650,468.148834 1092.534912,468.245361 
	C1092.205811,467.268433 1091.620605,466.298798 1091.592529,465.313293 
	C1091.478760,461.322021 1092.062500,457.229523 1091.354492,453.363831 
	C1090.842896,450.570587 1089.271851,446.766663 1087.118408,445.824738 
	C1085.050903,444.920288 1081.625366,447.119812 1078.414673,447.779358 
	C1078.007690,447.360199 1077.982544,447.117035 1077.957397,446.873871 
z"/>
<path fill="#FBFAFC" opacity="1.000000" stroke="none" 
	d="
M1142.583740,459.882111 
	C1142.583740,454.229431 1142.583740,449.058594 1142.583740,443.887756 
	C1147.287720,451.694916 1143.790161,459.918762 1144.616089,467.941895 
	C1141.182739,466.025574 1143.262329,462.862427 1142.583740,459.882111 
z"/>
<path fill="#FEFEFF" opacity="1.000000" stroke="none" 
	d="
M868.862671,449.999969 
	C868.862915,443.663208 868.862915,437.825745 868.862915,431.988312 
	C869.390625,431.994293 869.918396,432.000275 870.446106,432.006256 
	C870.446106,443.991669 870.446106,455.977081 870.446106,467.962494 
	C869.918213,467.999512 869.390320,468.036530 868.862427,468.073547 
	C868.862427,462.215454 868.862427,456.357361 868.862671,449.999969 
z"/>
<path fill="#FBFAFC" opacity="1.000000" stroke="none" 
	d="
M1428.046875,446.232117 
	C1428.344971,447.211090 1428.718018,447.847198 1429.291260,448.688904 
	C1428.915894,455.300171 1428.340332,461.705841 1427.764771,468.111511 
	C1427.362183,468.098267 1426.959473,468.085022 1426.556885,468.071777 
	C1426.556885,460.025238 1426.556885,451.978729 1426.556885,443.932190 
	C1426.745483,443.812927 1426.934204,443.693665 1427.122803,443.574432 
	C1427.455811,444.346008 1427.788818,445.117615 1428.046875,446.232117 
z"/>
<path fill="#FBFAFC" opacity="1.000000" stroke="none" 
	d="
M1159.993408,444.768982 
	C1160.281860,446.165100 1160.604370,447.208099 1161.205933,448.569366 
	C1160.911377,455.297729 1160.337646,461.707825 1159.763916,468.117889 
	C1159.280518,468.126526 1158.796997,468.135132 1158.313599,468.143738 
	C1158.206177,466.676788 1158.015259,465.210327 1158.006226,463.742737 
	C1157.970093,457.913452 1157.928833,452.082214 1158.079834,446.256653 
	C1158.096191,445.626617 1159.348389,445.028656 1159.993408,444.768982 
z"/>
<path fill="#FDFDFE" opacity="1.000000" stroke="none" 
	d="
M1077.582764,446.776306 
	C1077.982544,447.117035 1078.007690,447.360199 1078.098877,447.964050 
	C1077.777588,452.883148 1077.340088,457.438080 1077.025879,462.001495 
	C1076.888428,463.996918 1077.002686,466.009705 1077.002686,468.014587 
	C1076.275024,468.020477 1075.547363,468.026337 1074.819702,468.032227 
	C1074.714966,460.226044 1074.610352,452.419891 1074.993286,444.338715 
	C1075.480957,444.063690 1075.973877,444.062714 1075.973877,444.062714 
	C1076.385376,444.934692 1076.796753,445.806702 1077.582764,446.776306 
z"/>
<path fill="#FEFEFF" opacity="1.000000" stroke="none" 
	d="
M1063.871582,465.767578 
	C1063.866455,458.131744 1063.866455,450.973999 1063.866455,443.816284 
	C1064.377686,443.814453 1064.888794,443.812622 1065.400024,443.810791 
	C1065.400024,451.836853 1065.400024,459.862946 1065.400024,468.680695 
	C1064.686279,467.539917 1064.281494,466.892792 1063.871582,465.767578 
z"/>
<path fill="#FEFEFF" opacity="1.000000" stroke="none" 
	d="
M960.057190,443.988495 
	C960.057190,451.992798 960.057190,459.997101 960.057190,469.457764 
	C958.647766,467.782013 957.986572,467.362427 957.982239,466.936218 
	C957.908813,459.639648 957.895508,452.342102 957.958435,445.045532 
	C957.962219,444.601532 958.713440,444.163940 959.554688,443.852264 
	C959.992371,443.981140 960.057190,443.988495 960.057190,443.988495 
z"/>
<path fill="#FEFEFF" opacity="1.000000" stroke="none" 
	d="
M927.863037,455.995056 
	C927.862671,451.609314 927.862671,447.717224 927.862671,443.825134 
	C928.375610,443.822571 928.888550,443.820007 929.401489,443.817474 
	C929.401489,451.863068 929.401489,459.908691 929.401489,467.954285 
	C928.888794,467.999786 928.376099,468.045258 927.863403,468.090729 
	C927.863403,464.223389 927.863403,460.356018 927.863037,455.995056 
z"/>
<path fill="#F2EFF5" opacity="1.000000" stroke="none" 
	d="
M1075.980225,443.926636 
	C1075.973877,444.062714 1075.480957,444.063690 1075.367310,444.012177 
	C1075.497925,443.903961 1075.742188,443.847229 1075.980225,443.926636 
z"/>
<path fill="#FBFAFC" opacity="1.000000" stroke="none" 
	d="
M1161.934570,448.284729 
	C1161.830811,448.352295 1161.608521,448.064636 1161.608521,448.064636 
	C1161.608521,448.064636 1161.774658,447.867004 1161.884033,447.920349 
	C1161.993408,447.973663 1162.038452,448.217194 1161.934570,448.284729 
z"/>
<path fill="#FBFAFC" opacity="1.000000" stroke="none" 
	d="
M1429.938965,448.281647 
	C1429.836548,448.347717 1429.612549,448.063446 1429.612549,448.063446 
	C1429.612549,448.063446 1429.776978,447.869141 1429.885498,447.922791 
	C1429.994141,447.976410 1430.041382,448.215576 1429.938965,448.281647 
z"/>
<path fill="#6C4082" opacity="1.000000" stroke="none" 
	d="
M960.005127,443.951111 
	C960.113831,443.925964 960.209778,443.930847 960.181396,443.962097 
	C960.057190,443.988495 959.992371,443.981140 960.005127,443.951111 
z"/>
<path fill="#4D0266" opacity="1.000000" stroke="none" 
	d="
M768.368225,390.837616 
	C741.952698,390.932098 715.979614,390.932098 689.700012,390.932098 
	C689.700012,369.333466 689.700012,347.932404 689.700012,326.238403 
	C691.088318,326.154388 692.369202,326.010040 693.650146,326.009308 
	C717.137268,325.995667 740.624451,325.988403 764.111572,326.005493 
	C771.452271,326.010864 772.197449,326.767395 772.199463,333.928589 
	C772.204285,350.752716 772.173706,367.576904 772.225037,384.400848 
	C772.233704,387.221008 772.138489,389.803619 768.368225,390.837616 
z"/>
<path fill="#4E0467" opacity="1.000000" stroke="none" 
	d="
M972.000000,352.004364 
	C957.228394,352.004364 942.956726,352.004364 928.165039,352.004364 
	C928.165039,344.715515 928.007141,337.780975 928.230347,330.858765 
	C928.345459,327.287567 931.259399,326.198639 934.247314,326.185547 
	C954.039062,326.098785 973.831665,326.088440 993.623352,326.183594 
	C997.670776,326.203033 1000.148804,328.125763 999.913208,332.703766 
	C999.708252,336.684937 999.885620,340.685059 999.864868,344.676636 
	C999.834412,350.522797 998.483032,351.914673 992.458313,351.985260 
	C985.806335,352.063232 979.152832,352.003876 972.000000,352.004364 
z"/>
<path fill="#4D0366" opacity="1.000000" stroke="none" 
	d="
M1270.000000,352.002075 
	C1259.725830,352.002075 1249.951782,352.002075 1239.805908,352.002075 
	C1239.805908,344.736572 1239.729736,337.951111 1239.830566,331.168274 
	C1239.907471,326.003143 1243.927612,326.194824 1247.369507,326.175293 
	C1263.347290,326.084534 1279.325684,326.134277 1295.303955,326.138092 
	C1298.632446,326.138855 1301.969238,326.014343 1305.287231,326.206757 
	C1309.126343,326.429443 1311.408936,328.096649 1311.069702,332.524811 
	C1310.752808,336.661560 1311.011719,340.841675 1310.999390,345.002655 
	C1310.982544,350.712616 1309.867310,351.928741 1303.954224,351.974762 
	C1292.803467,352.061493 1281.651489,352.001221 1270.000000,352.002075 
z"/>
<path fill="#4F0668" opacity="1.000000" stroke="none" 
	d="
M554.038696,365.383606 
	C571.979736,365.383148 589.427246,365.383148 607.568420,365.383148 
	C607.568420,372.868500 607.905823,379.986481 607.298157,387.022827 
	C607.168762,388.520721 603.640869,390.801605 601.608093,390.879486 
	C590.472473,391.306213 579.314880,391.188080 568.164795,391.199432 
	C559.843689,391.207916 551.522522,391.097504 543.201355,391.101532 
	C538.671875,391.103729 536.472839,389.170837 536.739868,384.410736 
	C536.981812,380.096497 536.884033,375.755585 536.766357,371.431091 
	C536.672607,367.985626 538.123474,366.005035 541.594727,365.810364 
	C545.573669,365.587189 549.561279,365.519348 554.038696,365.383606 
z"/>
<path fill="#510A6A" opacity="1.000000" stroke="none" 
	d="
M1362.587769,458.336792 
	C1360.606079,464.713715 1357.420288,467.393402 1352.896729,466.792542 
	C1348.668945,466.230988 1345.796875,462.939117 1345.431885,458.236542 
	C1344.884277,451.181671 1347.177612,446.604187 1351.939941,445.245941 
	C1356.153564,444.044250 1360.460938,446.429016 1361.903442,451.150146 
	C1362.559082,453.295593 1362.450806,455.674469 1362.587769,458.336792 
z"/>
<path fill="#500869" opacity="1.000000" stroke="none" 
	d="
M1413.677002,464.701660 
	C1407.491699,467.943634 1402.714111,466.504089 1400.259888,460.984467 
	C1397.653198,455.121918 1400.130859,447.570404 1405.327271,445.540100 
	C1411.593384,443.091858 1418.169189,448.765472 1417.359131,456.419342 
	C1417.066040,459.190094 1415.153076,461.789398 1413.677002,464.701660 
z"/>
<path fill="#55116D" opacity="1.000000" stroke="none" 
	d="
M1331.387695,446.536499 
	C1332.635498,448.906708 1333.579346,451.020691 1334.758179,453.660980 
	C1328.906128,453.660980 1324.137817,453.660980 1319.361328,453.660980 
	C1319.826416,446.221924 1324.305176,443.448883 1331.387695,446.536499 
z"/>
<path fill="#55116D" opacity="1.000000" stroke="none" 
	d="
M846.536987,453.809082 
	C843.439697,449.890503 846.528381,447.747314 848.994934,446.111542 
	C852.255981,443.948883 855.793762,444.494659 858.207031,447.794617 
	C859.290894,449.276733 859.594421,451.329529 860.509094,453.824554 
	C855.470032,453.824554 851.223633,453.824554 846.536987,453.809082 
z"/>
<path fill="#55116D" opacity="1.000000" stroke="none" 
	d="
M1121.302124,453.830444 
	C1120.243286,452.759583 1118.909546,451.444183 1119.171143,450.662994 
	C1120.451904,446.839020 1123.195679,444.533844 1127.438843,445.097260 
	C1132.112793,445.717865 1133.301392,449.205566 1133.936035,453.832184 
	C1129.603882,453.832184 1125.683228,453.832184 1121.302124,453.830444 
z"/>
<path fill="#55116D" opacity="1.000000" stroke="none" 
	d="
M888.881836,445.033264 
	C893.883545,445.749908 895.319458,448.956909 895.825500,453.454590 
	C890.647583,453.454590 885.694397,453.454590 880.426697,453.454590 
	C881.239502,448.672150 883.249695,445.352203 888.881836,445.033264 
z"/>
<path fill="#55116D" opacity="1.000000" stroke="none" 
	d="
M1199.142212,446.720276 
	C1200.352783,449.000702 1201.283813,451.013275 1202.476196,453.590393 
	C1196.720825,453.590393 1191.948242,453.590393 1187.170410,453.590393 
	C1186.762695,446.486969 1191.980103,443.280579 1199.142212,446.720276 
z"/>
<path fill="#55116D" opacity="1.000000" stroke="none" 
	d="
M1285.124146,448.166382 
	C1288.187866,447.059937 1291.380981,445.095734 1293.775635,445.809692 
	C1296.037598,446.484100 1297.460327,449.973816 1299.252197,452.225159 
	C1298.872192,452.638702 1298.492188,453.052246 1298.112183,453.465790 
	C1293.229004,453.465790 1288.345703,453.465790 1282.891235,453.465790 
	C1283.590942,451.732635 1284.247803,450.105499 1285.124146,448.166382 
z"/>
<path fill="#4F0668" opacity="1.000000" stroke="none" 
	d="
M977.223022,445.070557 
	C982.613281,444.860321 985.440430,447.750946 986.634216,452.108246 
	C987.932922,456.848511 987.319458,461.450714 983.252075,464.851837 
	C979.619568,467.889343 974.744690,467.309021 971.682739,463.677124 
	C966.355225,457.357788 968.962646,447.935028 977.223022,445.070557 
z"/>
</svg>