<svg version="1.1" id="Layer_1" xmlns="http://www.w3.org/2000/svg" xmlns:xlink="http://www.w3.org/1999/xlink" x="0px" y="0px"
	 width="100%" viewBox="0 0 1030 1030" enable-background="new 0 0 1030 1030" xml:space="preserve">
<path fill="#000000" opacity="1.000000" stroke="none" 
	d="
M576.000000,1031.000000 
	C384.023193,1031.000000 192.546387,1031.000000 1.034791,1031.000000 
	C1.034791,687.731445 1.034791,344.462891 1.034791,1.097166 
	C344.226959,1.097166 687.453918,1.097166 1030.840454,1.097166 
	C1030.840454,344.333282 1030.840454,687.666626 1030.840454,1031.000000 
	C879.462585,1031.000000 727.981262,1031.000000 576.000000,1031.000000 
M487.947266,641.535522 
	C498.590576,641.280518 509.399353,642.139160 519.849854,640.586304 
	C579.167908,631.772522 624.251648,582.170776 627.145996,522.161499 
	C629.638916,470.473663 607.216003,431.327820 563.625488,404.658386 
	C520.918457,378.529449 455.852875,381.356293 414.162506,421.757751 
	C412.961945,422.921112 411.721893,424.043732 410.500305,425.185364 
	C410.053253,424.973297 409.606201,424.761230 409.159149,424.549164 
	C409.159149,417.071228 409.800323,409.522552 408.984741,402.134644 
	C408.111969,394.229065 400.492035,388.346771 392.536072,388.031250 
	C380.809204,387.566193 373.346985,395.917145 373.345642,409.597809 
	C373.336609,501.919006 373.336121,594.240234 373.366425,686.561401 
	C373.367310,689.214478 373.515991,691.908142 373.985870,694.512512 
	C375.209869,701.297119 381.449219,707.155396 388.235382,708.166321 
	C400.474121,709.989502 409.718475,701.800903 409.773590,688.731750 
	C409.883942,662.568970 409.806946,636.405396 409.807281,610.242188 
	C409.807312,608.537842 409.807312,606.833496 409.807312,603.933777 
	C431.930817,626.036560 457.248840,638.440613 487.947266,641.535522 
M344.952545,495.571838 
	C338.766205,455.126434 316.817566,425.112518 282.324829,404.553802 
	C235.344666,376.552216 163.003265,380.677765 118.971947,436.950073 
	C69.739067,499.869904 90.346573,592.255981 162.008316,628.743652 
	C186.693420,641.312439 212.996490,644.540405 240.211945,640.510193 
	C262.805695,637.164368 282.872131,627.979004 300.247009,613.105347 
	C309.830170,604.901855 309.722443,591.819336 300.151703,584.071777 
	C293.605713,578.772766 285.247192,579.100342 277.547791,584.443787 
	C270.604858,589.262207 263.823425,594.689453 256.182587,598.062866 
	C217.066849,615.332153 172.416565,603.540955 146.521439,569.574707 
	C138.370071,558.882629 132.627701,547.055969 130.357651,533.171448 
	C132.655701,533.171448 134.459991,533.171448 136.264267,533.171448 
	C185.430771,533.171448 234.597260,533.171753 283.763763,533.171265 
	C298.263702,533.171143 312.765076,533.293335 327.263153,533.128540 
	C339.059540,532.994507 346.552582,525.131104 346.204285,513.394104 
	C346.036530,507.741669 345.427887,502.102264 344.952545,495.571838 
M820.782715,429.113800 
	C831.592529,427.492462 842.391235,424.612305 853.214600,424.516266 
	C874.639038,424.326111 893.279175,432.602722 909.725891,446.315918 
	C918.148193,453.338440 929.088135,452.052490 935.533020,444.129150 
	C942.189453,435.945862 940.980774,425.044342 932.626282,417.911530 
	C889.456848,381.054810 826.037903,377.544434 779.185913,409.805267 
	C699.983887,464.341431 705.176453,582.482422 793.417847,628.738220 
	C817.930664,641.587769 844.365479,644.552368 871.569336,640.495422 
	C894.324829,637.101990 914.566589,627.904663 931.912476,612.719604 
	C942.807861,603.181519 941.085632,587.561646 928.536499,581.703674 
	C920.262878,577.841492 913.168457,580.710876 906.492981,586.155334 
	C868.166443,617.413940 809.708862,610.638977 779.422852,571.523865 
	C740.940796,521.823303 761.150330,451.108826 820.782715,429.113800 
M693.811096,469.500092 
	C693.811096,449.510498 693.833801,429.520844 693.782166,409.531372 
	C693.775757,407.049377 693.611328,404.520081 693.116455,402.095032 
	C690.576294,389.647095 675.574463,383.866638 665.234985,391.224731 
	C659.032166,395.638885 657.282654,401.842285 657.288818,409.085510 
	C657.348999,479.715210 657.321472,550.344971 657.343384,620.974731 
	C657.343994,622.964661 657.478882,624.975952 657.784851,626.940918 
	C659.778687,639.746582 674.681030,646.232544 685.440735,639.043823 
	C691.947510,634.696533 693.854614,628.367920 693.844910,620.921448 
	C693.779907,570.781128 693.811096,520.640564 693.811096,469.500092 
M664.915161,326.228180 
	C655.938110,331.707458 651.514893,339.657959 653.268616,350.111755 
	C654.793335,359.200073 660.432068,365.370636 669.367737,367.952148 
	C679.348083,370.835480 689.352356,366.784698 694.882690,358.031097 
	C699.893066,350.100555 699.135498,339.430054 693.035156,332.006866 
	C686.236877,323.734467 676.399353,321.556763 664.915161,326.228180 
z"/>
<path fill="#FDE300" opacity="1.000000" stroke="none" 
	d="
M487.492706,641.474487 
	C457.248840,638.440613 431.930817,626.036560 409.807312,603.933777 
	C409.807312,606.833496 409.807312,608.537842 409.807281,610.242188 
	C409.806946,636.405396 409.883942,662.568970 409.773590,688.731750 
	C409.718475,701.800903 400.474121,709.989502 388.235382,708.166321 
	C381.449219,707.155396 375.209869,701.297119 373.985870,694.512512 
	C373.515991,691.908142 373.367310,689.214478 373.366425,686.561401 
	C373.336121,594.240234 373.336609,501.919006 373.345642,409.597809 
	C373.346985,395.917145 380.809204,387.566193 392.536072,388.031250 
	C400.492035,388.346771 408.111969,394.229065 408.984741,402.134644 
	C409.800323,409.522552 409.159149,417.071228 409.159149,424.549164 
	C409.606201,424.761230 410.053253,424.973297 410.500305,425.185364 
	C411.721893,424.043732 412.961945,422.921112 414.162506,421.757751 
	C455.852875,381.356293 520.918457,378.529449 563.625488,404.658386 
	C607.216003,431.327820 629.638916,470.473663 627.145996,522.161499 
	C624.251648,582.170776 579.167908,631.772522 519.849854,640.586304 
	C509.399353,642.139160 498.590576,641.280518 487.492706,641.474487 
M552.155334,589.704834 
	C588.626099,563.581787 598.532288,522.887756 586.530457,485.965729 
	C573.557068,446.054749 535.491760,422.008057 493.384796,424.617065 
	C439.256042,427.970917 393.857056,482.983734 414.710236,544.919739 
	C433.796478,601.607727 501.749237,623.636963 552.155334,589.704834 
z"/>
<path fill="#FEE400" opacity="1.000000" stroke="none" 
	d="
M344.985718,496.014404 
	C345.427887,502.102264 346.036530,507.741669 346.204285,513.394104 
	C346.552582,525.131104 339.059540,532.994507 327.263153,533.128540 
	C312.765076,533.293335 298.263702,533.171143 283.763763,533.171265 
	C234.597260,533.171753 185.430771,533.171448 136.264267,533.171448 
	C134.459991,533.171448 132.655701,533.171448 130.357651,533.171448 
	C132.627701,547.055969 138.370071,558.882629 146.521439,569.574707 
	C172.416565,603.540955 217.066849,615.332153 256.182587,598.062866 
	C263.823425,594.689453 270.604858,589.262207 277.547791,584.443787 
	C285.247192,579.100342 293.605713,578.772766 300.151703,584.071777 
	C309.722443,591.819336 309.830170,604.901855 300.247009,613.105347 
	C282.872131,627.979004 262.805695,637.164368 240.211945,640.510193 
	C212.996490,644.540405 186.693420,641.312439 162.008316,628.743652 
	C90.346573,592.255981 69.739067,499.869904 118.971947,436.950073 
	C163.003265,380.677765 235.344666,376.552216 282.324829,404.553802 
	C316.817566,425.112518 338.766205,455.126434 344.985718,496.014404 
M154.189377,451.684387 
	C141.927017,464.234955 133.676727,478.900452 130.335480,496.578552 
	C189.707520,496.578552 248.757004,496.578552 307.879181,496.578552 
	C307.879181,495.631958 308.043518,494.775452 307.855408,494.005005 
	C301.076569,466.240082 284.487183,445.933624 259.227356,433.383484 
	C226.642410,417.193939 183.103943,421.776123 154.189377,451.684387 
z"/>
<path fill="#FDE300" opacity="1.000000" stroke="none" 
	d="
M820.412292,429.254517 
	C761.150330,451.108826 740.940796,521.823303 779.422852,571.523865 
	C809.708862,610.638977 868.166443,617.413940 906.492981,586.155334 
	C913.168457,580.710876 920.262878,577.841492 928.536499,581.703674 
	C941.085632,587.561646 942.807861,603.181519 931.912476,612.719604 
	C914.566589,627.904663 894.324829,637.101990 871.569336,640.495422 
	C844.365479,644.552368 817.930664,641.587769 793.417847,628.738220 
	C705.176453,582.482422 699.983887,464.341431 779.185913,409.805267 
	C826.037903,377.544434 889.456848,381.054810 932.626282,417.911530 
	C940.980774,425.044342 942.189453,435.945862 935.533020,444.129150 
	C929.088135,452.052490 918.148193,453.338440 909.725891,446.315918 
	C893.279175,432.602722 874.639038,424.326111 853.214600,424.516266 
	C842.391235,424.612305 831.592529,427.492462 820.412292,429.254517 
z"/>
<path fill="#FAE100" opacity="1.000000" stroke="none" 
	d="
M693.811096,470.000122 
	C693.811096,520.640564 693.779907,570.781128 693.844910,620.921448 
	C693.854614,628.367920 691.947510,634.696533 685.440735,639.043823 
	C674.681030,646.232544 659.778687,639.746582 657.784851,626.940918 
	C657.478882,624.975952 657.343994,622.964661 657.343384,620.974731 
	C657.321472,550.344971 657.348999,479.715210 657.288818,409.085510 
	C657.282654,401.842285 659.032166,395.638885 665.234985,391.224731 
	C675.574463,383.866638 690.576294,389.647095 693.116455,402.095032 
	C693.611328,404.520081 693.775757,407.049377 693.782166,409.531372 
	C693.833801,429.520844 693.811096,449.510498 693.811096,470.000122 
z"/>
<path fill="#FCE200" opacity="1.000000" stroke="none" 
	d="
M665.262634,326.082031 
	C676.399353,321.556763 686.236877,323.734467 693.035156,332.006866 
	C699.135498,339.430054 699.893066,350.100555 694.882690,358.031097 
	C689.352356,366.784698 679.348083,370.835480 669.367737,367.952148 
	C660.432068,365.370636 654.793335,359.200073 653.268616,350.111755 
	C651.514893,339.657959 655.938110,331.707458 665.262634,326.082031 
z"/>
<path fill="#010100" opacity="1.000000" stroke="none" 
	d="
M551.853882,589.901245 
	C501.749237,623.636963 433.796478,601.607727 414.710236,544.919739 
	C393.857056,482.983734 439.256042,427.970917 493.384796,424.617065 
	C535.491760,422.008057 573.557068,446.054749 586.530457,485.965729 
	C598.532288,522.887756 588.626099,563.581787 551.853882,589.901245 
z"/>
<path fill="#020200" opacity="1.000000" stroke="none" 
	d="
M154.437103,451.434998 
	C183.103943,421.776123 226.642410,417.193939 259.227356,433.383484 
	C284.487183,445.933624 301.076569,466.240082 307.855408,494.005005 
	C308.043518,494.775452 307.879181,495.631958 307.879181,496.578552 
	C248.757004,496.578552 189.707520,496.578552 130.335480,496.578552 
	C133.676727,478.900452 141.927017,464.234955 154.437103,451.434998 
z"/>
</svg>