<svg version="1.1" id="Layer_1" xmlns="http://www.w3.org/2000/svg" xmlns:xlink="http://www.w3.org/1999/xlink" x="0px" y="0px"
	 width="100%" viewBox="0 0 801 801" enable-background="new 0 0 801 801" xml:space="preserve">
<path fill="#D70564" opacity="1.000000" stroke="none" 
	d="
M725.000000,802.000000 
	C483.333344,802.000000 242.166672,802.000000 1.000000,802.000000 
	C1.000000,535.000000 1.000000,268.000000 1.000000,1.000000 
	C268.000000,1.000000 535.000000,1.000000 802.000000,1.000000 
	C802.000000,268.000000 802.000000,535.000000 802.000000,802.000000 
	C776.500000,802.000000 751.000000,802.000000 725.000000,802.000000 
M501.826965,389.616577 
	C500.619873,387.625549 499.536224,385.546326 498.186615,383.657104 
	C484.687958,364.761658 457.943542,358.945496 437.432922,370.400940 
	C417.725525,381.407776 409.359863,405.961548 418.129944,427.056519 
	C430.758301,457.431915 476.672638,463.979248 497.976807,438.393311 
	C500.125366,435.812927 501.808289,432.844879 503.669281,430.112549 
	C502.851898,429.494720 502.730988,429.330566 502.584351,429.302948 
	C495.390076,427.946838 488.175598,426.689911 481.005737,425.216003 
	C477.910278,424.579620 475.594238,424.889526 472.865112,427.070435 
	C464.014740,434.142853 450.006165,430.293915 446.907593,419.896973 
	C466.275604,419.896973 485.516235,419.896973 504.894165,419.896973 
	C507.362549,410.127838 506.138153,401.041565 504.029755,392.052185 
	C507.303162,392.052185 510.576599,392.052185 514.160095,392.052185 
	C514.160095,403.399414 514.180542,414.197052 514.153076,424.994537 
	C514.134155,432.406403 516.943176,438.547852 522.229614,443.670746 
	C533.259766,454.359650 546.922424,452.206512 560.293823,452.041443 
	C560.293823,443.111023 560.293823,434.677795 560.293823,425.742432 
	C557.085083,425.742432 554.114136,425.882904 551.161804,425.708252 
	C547.129883,425.469727 543.560364,423.654633 543.357971,419.415741 
	C542.925598,410.361206 543.225586,401.271729 543.225586,391.882751 
	C549.155273,391.882751 554.599792,391.882751 560.295898,391.882751 
	C560.295898,383.473969 560.295898,375.390564 560.295898,366.799622 
	C554.545227,366.799622 548.963440,366.799622 542.988159,366.799622 
	C542.988159,361.190552 542.988159,356.081726 542.988159,350.830353 
	C533.195557,350.830353 523.812256,350.830353 513.950806,350.830353 
	C513.950806,356.299164 513.950806,361.384308 513.950806,366.933777 
	C510.054565,366.933777 506.639679,366.933777 502.993134,366.933777 
	C502.993134,372.231079 503.115234,377.054321 502.946808,381.867432 
	C502.847687,384.699524 502.287140,387.515472 501.826965,389.616577 
M405.346741,452.236420 
	C407.803558,452.236420 410.260376,452.236420 413.004242,452.236420 
	C413.004242,432.914642 413.068359,414.106445 412.981659,395.298950 
	C412.924286,382.859039 404.709442,371.461121 392.819733,366.957794 
	C380.366974,362.241211 367.254150,365.292450 358.619293,374.895081 
	C358.117737,375.452850 357.484802,375.892456 357.012817,376.300720 
	C343.372925,362.423859 328.663025,361.381317 312.548462,371.647552 
	C312.307953,369.860687 312.118469,368.452911 311.936920,367.104126 
	C302.213318,367.104126 292.815491,367.104126 283.365234,367.104126 
	C283.365234,395.549744 283.365234,423.654327 283.365234,451.983521 
	C292.981995,451.983521 302.395630,451.983521 312.236450,451.983521 
	C312.236450,444.779877 312.235168,437.822083 312.236786,430.864288 
	C312.238983,421.537170 312.090179,412.206604 312.301056,402.884186 
	C312.440765,396.707947 316.855927,391.974060 322.228149,391.577026 
	C327.805725,391.164795 332.255524,395.022583 333.376465,401.468170 
	C333.743896,403.580994 333.743683,405.774261 333.748047,407.931061 
	C333.777710,422.544495 333.763550,437.157990 333.763550,451.845947 
	C343.593597,451.845947 352.954681,451.845947 362.552216,451.845947 
	C362.552216,436.640991 362.495667,421.824890 362.602417,407.009949 
	C362.622498,404.223022 362.855408,401.287537 363.762726,398.690552 
	C365.310547,394.260223 368.593201,391.533569 373.552429,391.587341 
	C378.276794,391.638519 381.480011,394.218750 382.938416,398.496460 
	C383.826782,401.102295 384.091553,404.022644 384.111603,406.805511 
	C384.219330,421.777985 384.162537,436.751648 384.162537,452.236389 
	C391.117706,452.236389 397.751648,452.236389 405.346741,452.236420 
M193.003067,400.412476 
	C189.734818,382.140411 178.057022,368.764648 162.307129,365.528351 
	C152.447662,363.502411 143.116531,365.215546 134.784973,370.247772 
	C133.567062,368.934753 132.593613,366.952332 131.566284,366.924011 
	C122.630814,366.677765 113.685684,366.781982 104.801743,366.781982 
	C104.801743,402.968140 104.801743,438.529785 104.801743,474.113098 
	C114.535881,474.113098 123.903877,474.113098 133.760651,474.113098 
	C133.760651,465.442505 133.760651,457.211548 133.760651,448.396729 
	C135.561371,449.234497 136.732468,449.752533 137.880447,450.317505 
	C152.848816,457.683929 169.972122,454.697479 181.354507,442.519989 
	C192.288254,430.822571 195.163483,416.727875 193.003067,400.412476 
M561.480164,396.054443 
	C555.212280,422.653137 567.476807,445.212372 592.038635,452.263336 
	C614.966187,458.845184 641.827576,448.039337 648.085632,429.426239 
	C640.893738,428.075958 633.723694,426.839355 626.607422,425.346069 
	C623.194763,424.629913 620.542908,424.850464 617.511658,427.245667 
	C608.244263,434.568329 593.296997,429.146637 591.663635,419.837799 
	C601.350830,419.837799 610.983826,419.837799 620.616821,419.837799 
	C630.256226,419.837799 639.895569,419.837799 649.411072,419.837799 
	C656.402832,399.625977 643.049500,374.788818 621.431274,367.225220 
	C596.534363,358.514557 570.415222,370.810272 561.480164,396.054443 
M696.850220,333.710419 
	C696.997864,332.278320 697.145447,330.846191 697.305542,329.292847 
	C687.562927,329.292847 678.166504,329.292847 668.553467,329.292847 
	C661.341797,370.272614 654.174316,411.001129 646.955872,452.019470 
	C656.824341,452.019470 666.225159,452.019470 675.956177,452.019470 
	C682.888611,412.770599 689.798523,373.649170 696.850220,333.710419 
M244.789383,393.196136 
	C244.789383,384.444916 244.789383,375.693695 244.789383,366.850494 
	C237.272232,365.857513 231.059601,367.111847 225.802368,372.790344 
	C225.352737,370.272491 225.048599,368.569336 224.793213,367.139221 
	C215.169754,367.139221 205.924637,367.139221 196.727631,367.139221 
	C196.727631,395.609283 196.727631,423.698242 196.727631,452.013000 
	C206.262909,452.013000 215.512604,452.013000 225.240982,452.013000 
	C225.240982,450.184357 225.240952,448.556854 225.240982,446.929352 
	C225.241211,434.267334 225.163712,421.604736 225.261307,408.943481 
	C225.384247,392.995941 229.462112,389.862885 244.789383,393.196136 
M277.999756,404.500000 
	C277.999756,392.062195 277.999756,379.624390 277.999756,367.084351 
	C268.101990,367.084351 258.727051,367.084351 249.338486,367.084351 
	C249.338486,395.599579 249.338486,423.801086 249.338486,452.013031 
	C258.948578,452.013031 268.218933,452.013031 277.999756,452.013031 
	C277.999756,436.369141 277.999756,420.934570 277.999756,404.500000 
M277.558990,355.934540 
	C278.211975,354.780304 278.977875,353.674774 279.499756,352.464050 
	C283.110687,344.086273 279.934387,334.217041 272.292297,329.920929 
	C264.638428,325.618195 254.700928,327.649902 249.458923,334.589142 
	C244.146881,341.621094 245.105225,352.384491 251.560959,358.197021 
	C258.690613,364.616333 269.537598,363.897247 277.558990,355.934540 
z"/>
<path fill="#FFFDFD" opacity="1.000000" stroke="none" 
	d="
M404.866180,452.236389 
	C397.751648,452.236389 391.117706,452.236389 384.162537,452.236389 
	C384.162537,436.751648 384.219330,421.777985 384.111603,406.805511 
	C384.091553,404.022644 383.826782,401.102295 382.938416,398.496460 
	C381.480011,394.218750 378.276794,391.638519 373.552429,391.587341 
	C368.593201,391.533569 365.310547,394.260223 363.762726,398.690552 
	C362.855408,401.287537 362.622498,404.223022 362.602417,407.009949 
	C362.495667,421.824890 362.552216,436.640991 362.552216,451.845947 
	C352.954681,451.845947 343.593597,451.845947 333.763550,451.845947 
	C333.763550,437.157990 333.777710,422.544495 333.748047,407.931061 
	C333.743683,405.774261 333.743896,403.580994 333.376465,401.468170 
	C332.255524,395.022583 327.805725,391.164795 322.228149,391.577026 
	C316.855927,391.974060 312.440765,396.707947 312.301056,402.884186 
	C312.090179,412.206604 312.238983,421.537170 312.236786,430.864288 
	C312.235168,437.822083 312.236450,444.779877 312.236450,451.983521 
	C302.395630,451.983521 292.981995,451.983521 283.365234,451.983521 
	C283.365234,423.654327 283.365234,395.549744 283.365234,367.104126 
	C292.815491,367.104126 302.213318,367.104126 311.936920,367.104126 
	C312.118469,368.452911 312.307953,369.860687 312.548462,371.647552 
	C328.663025,361.381317 343.372925,362.423859 357.012817,376.300720 
	C357.484802,375.892456 358.117737,375.452850 358.619293,374.895081 
	C367.254150,365.292450 380.366974,362.241211 392.819733,366.957794 
	C404.709442,371.461121 412.924286,382.859039 412.981659,395.298950 
	C413.068359,414.106445 413.004242,432.914642 413.004242,452.236420 
	C410.260376,452.236420 407.803558,452.236420 404.866180,452.236389 
z"/>
<path fill="#FEFBFC" opacity="1.000000" stroke="none" 
	d="
M193.064484,400.845520 
	C195.163483,416.727875 192.288254,430.822571 181.354507,442.519989 
	C169.972122,454.697479 152.848816,457.683929 137.880447,450.317505 
	C136.732468,449.752533 135.561371,449.234497 133.760651,448.396729 
	C133.760651,457.211548 133.760651,465.442505 133.760651,474.113098 
	C123.903877,474.113098 114.535881,474.113098 104.801743,474.113098 
	C104.801743,438.529785 104.801743,402.968140 104.801743,366.781982 
	C113.685684,366.781982 122.630814,366.677765 131.566284,366.924011 
	C132.593613,366.952332 133.567062,368.934753 134.784973,370.247772 
	C143.116531,365.215546 152.447662,363.502411 162.307129,365.528351 
	C178.057022,368.764648 189.734818,382.140411 193.064484,400.845520 
M157.194397,396.151245 
	C149.646973,391.692902 142.696671,392.566956 137.575470,398.618500 
	C133.403015,403.549011 132.523041,411.463806 135.631851,417.347778 
	C138.514206,422.803101 143.119370,425.974640 149.299789,425.650330 
	C155.911285,425.303436 160.531555,421.430420 162.529922,415.223969 
	C164.783463,408.224976 163.475967,401.770325 157.194397,396.151245 
z"/>
<path fill="#FFFDFD" opacity="1.000000" stroke="none" 
	d="
M561.626160,395.682312 
	C570.415222,370.810272 596.534363,358.514557 621.431274,367.225220 
	C643.049500,374.788818 656.402832,399.625977 649.411072,419.837799 
	C639.895569,419.837799 630.256226,419.837799 620.616821,419.837799 
	C610.983826,419.837799 601.350830,419.837799 591.663635,419.837799 
	C593.296997,429.146637 608.244263,434.568329 617.511658,427.245667 
	C620.542908,424.850464 623.194763,424.629913 626.607422,425.346069 
	C633.723694,426.839355 640.893738,428.075958 648.085632,429.426239 
	C641.827576,448.039337 614.966187,458.845184 592.038635,452.263336 
	C567.476807,445.212372 555.212280,422.653137 561.626160,395.682312 
M617.561646,392.938721 
	C607.725830,385.076935 594.739685,387.860809 591.804932,398.438416 
	C601.442139,398.438416 611.081299,398.438416 621.624939,398.438416 
	C620.123840,396.331970 619.102112,394.898254 617.561646,392.938721 
z"/>
<path fill="#FFFDFD" opacity="1.000000" stroke="none" 
	d="
M503.117889,392.062378 
	C506.138153,401.041565 507.362549,410.127838 504.894165,419.896973 
	C485.516235,419.896973 466.275604,419.896973 446.907593,419.896973 
	C450.006165,430.293915 464.014740,434.142853 472.865112,427.070435 
	C475.594238,424.889526 477.910278,424.579620 481.005737,425.216003 
	C488.175598,426.689911 495.390076,427.946838 502.584351,429.302948 
	C502.730988,429.330566 502.851898,429.494720 503.669281,430.112549 
	C501.808289,432.844879 500.125366,435.812927 497.976807,438.393311 
	C476.672638,463.979248 430.758301,457.431915 418.129944,427.056519 
	C409.359863,405.961548 417.725525,381.407776 437.432922,370.400940 
	C457.943542,358.945496 484.687958,364.761658 498.186615,383.657104 
	C499.536224,385.546326 500.619873,387.625549 501.973633,390.226257 
	C502.452820,391.244720 502.785339,391.653564 503.117889,392.062378 
M452.795349,398.808380 
	C460.490570,398.808380 468.185791,398.808380 476.239471,398.808380 
	C472.959778,391.468658 466.658478,387.635559 460.010193,388.300140 
	C453.477203,388.953217 448.328247,392.986847 446.898376,398.808380 
	C448.607330,398.808380 450.251251,398.808380 452.795349,398.808380 
z"/>
<path fill="#FEFCFC" opacity="1.000000" stroke="none" 
	d="
M503.573822,392.057281 
	C502.785339,391.653564 502.452820,391.244720 502.027191,390.587280 
	C502.287140,387.515472 502.847687,384.699524 502.946808,381.867432 
	C503.115234,377.054321 502.993134,372.231079 502.993134,366.933777 
	C506.639679,366.933777 510.054565,366.933777 513.950806,366.933777 
	C513.950806,361.384308 513.950806,356.299164 513.950806,350.830353 
	C523.812256,350.830353 533.195557,350.830353 542.988159,350.830353 
	C542.988159,356.081726 542.988159,361.190552 542.988159,366.799622 
	C548.963440,366.799622 554.545227,366.799622 560.295898,366.799622 
	C560.295898,375.390564 560.295898,383.473969 560.295898,391.882751 
	C554.599792,391.882751 549.155273,391.882751 543.225586,391.882751 
	C543.225586,401.271729 542.925598,410.361206 543.357971,419.415741 
	C543.560364,423.654633 547.129883,425.469727 551.161804,425.708252 
	C554.114136,425.882904 557.085083,425.742432 560.293823,425.742432 
	C560.293823,434.677795 560.293823,443.111023 560.293823,452.041443 
	C546.922424,452.206512 533.259766,454.359650 522.229614,443.670746 
	C516.943176,438.547852 514.134155,432.406403 514.153076,424.994537 
	C514.180542,414.197052 514.160095,403.399414 514.160095,392.052185 
	C510.576599,392.052185 507.303162,392.052185 503.573822,392.057281 
z"/>
<path fill="#FFFDFD" opacity="1.000000" stroke="none" 
	d="
M696.779297,334.119080 
	C689.798523,373.649170 682.888611,412.770599 675.956177,452.019470 
	C666.225159,452.019470 656.824341,452.019470 646.955872,452.019470 
	C654.174316,411.001129 661.341797,370.272614 668.553467,329.292847 
	C678.166504,329.292847 687.562927,329.292847 697.305542,329.292847 
	C697.145447,330.846191 696.997864,332.278320 696.779297,334.119080 
z"/>
<path fill="#FEFBFC" opacity="1.000000" stroke="none" 
	d="
M244.651581,393.551392 
	C229.462112,389.862885 225.384247,392.995941 225.261307,408.943481 
	C225.163712,421.604736 225.241211,434.267334 225.240982,446.929352 
	C225.240952,448.556854 225.240982,450.184357 225.240982,452.013000 
	C215.512604,452.013000 206.262909,452.013000 196.727631,452.013000 
	C196.727631,423.698242 196.727631,395.609283 196.727631,367.139221 
	C205.924637,367.139221 215.169754,367.139221 224.793213,367.139221 
	C225.048599,368.569336 225.352737,370.272491 225.802368,372.790344 
	C231.059601,367.111847 237.272232,365.857513 244.789383,366.850494 
	C244.789383,375.693695 244.789383,384.444916 244.651581,393.551392 
z"/>
<path fill="#FFFFFF" opacity="1.000000" stroke="none" 
	d="
M277.999756,405.000000 
	C277.999756,420.934570 277.999756,436.369141 277.999756,452.013031 
	C268.218933,452.013031 258.948578,452.013031 249.338486,452.013031 
	C249.338486,423.801086 249.338486,395.599579 249.338486,367.084351 
	C258.727051,367.084351 268.101990,367.084351 277.999756,367.084351 
	C277.999756,379.624390 277.999756,392.062195 277.999756,405.000000 
z"/>
<path fill="#FEFBFC" opacity="1.000000" stroke="none" 
	d="
M277.325012,356.219513 
	C269.537598,363.897247 258.690613,364.616333 251.560959,358.197021 
	C245.105225,352.384491 244.146881,341.621094 249.458923,334.589142 
	C254.700928,327.649902 264.638428,325.618195 272.292297,329.920929 
	C279.934387,334.217041 283.110687,344.086273 279.499756,352.464050 
	C278.977875,353.674774 278.211975,354.780304 277.325012,356.219513 
z"/>
<path fill="#D70A66" opacity="1.000000" stroke="none" 
	d="
M157.484955,396.386902 
	C163.475967,401.770325 164.783463,408.224976 162.529922,415.223969 
	C160.531555,421.430420 155.911285,425.303436 149.299789,425.650330 
	C143.119370,425.974640 138.514206,422.803101 135.631851,417.347778 
	C132.523041,411.463806 133.403015,403.549011 137.575470,398.618500 
	C142.696671,392.566956 149.646973,391.692902 157.484955,396.386902 
z"/>
<path fill="#D9166A" opacity="1.000000" stroke="none" 
	d="
M617.821045,393.201630 
	C619.102112,394.898254 620.123840,396.331970 621.624939,398.438416 
	C611.081299,398.438416 601.442139,398.438416 591.804932,398.438416 
	C594.739685,387.860809 607.725830,385.076935 617.821045,393.201630 
z"/>
<path fill="#D9166A" opacity="1.000000" stroke="none" 
	d="
M452.345276,398.808380 
	C450.251251,398.808380 448.607330,398.808380 446.898376,398.808380 
	C448.328247,392.986847 453.477203,388.953217 460.010193,388.300140 
	C466.658478,387.635559 472.959778,391.468658 476.239471,398.808380 
	C468.185791,398.808380 460.490570,398.808380 452.345276,398.808380 
z"/>
</svg>